<?xml version="1.0" standalone="no"?>
<!DOCTYPE svg PUBLIC "-//W3C//DTD SVG 20010904//EN"
 "http://www.w3.org/TR/2001/REC-SVG-20010904/DTD/svg10.dtd">
<svg version="1.0" xmlns="http://www.w3.org/2000/svg"
 width="1080.000000pt" height="1080.000000pt" viewBox="0 0 1080.000000 1080.000000"
 preserveAspectRatio="xMidYMid meet">

<g transform="translate(0.000000,1080.000000) scale(0.100000,-0.100000)"
fill="#000000" stroke="none">
<path d="M4390 10330 c0 -5 -13 -10 -28 -10 -16 0 -34 -8 -42 -20 -8 -11 -20
-20 -28 -20 -17 0 -42 -25 -42 -42 0 -8 -9 -20 -20 -28 -11 -8 -20 -22 -20
-32 0 -10 -4 -18 -10 -18 -7 0 -10 -600 -10 -1780 l0 -1780 -1780 0 c-1180 0
-1780 -3 -1780 -10 0 -5 -9 -10 -19 -10 -11 0 -22 -8 -26 -19 -3 -10 -19 -21
-35 -25 -20 -4 -30 -12 -30 -24 0 -9 -9 -24 -20 -32 -12 -8 -20 -26 -20 -42 0
-15 -4 -28 -10 -28 -7 0 -10 -340 -10 -1000 0 -660 3 -1000 10 -1000 6 0 10
-13 10 -28 0 -16 8 -34 20 -42 11 -8 20 -20 20 -28 0 -18 25 -42 44 -42 8 0
17 -8 21 -19 3 -11 19 -21 37 -25 17 -3 826 -6 1799 -6 l1769 0 0 -1785 c0
-1183 3 -1785 10 -1785 6 0 10 -6 10 -13 0 -7 9 -19 20 -27 11 -8 20 -20 20
-28 0 -17 25 -42 42 -42 8 0 20 -9 28 -20 8 -12 26 -20 42 -20 15 0 28 -4 28
-10 0 -7 340 -10 1000 -10 660 0 1000 3 1000 10 0 6 13 10 28 10 16 0 34 8 42
20 8 11 18 20 23 20 13 0 37 27 37 42 0 8 9 20 20 28 11 8 20 20 20 27 0 7 5
13 10 13 7 0 10 602 10 1785 l0 1785 1794 2 1794 3 20 23 c11 12 25 22 31 22
16 0 41 25 41 41 0 6 10 20 23 31 l22 20 0 1048 0 1048 -22 20 c-13 11 -23 27
-23 35 0 10 -12 19 -27 23 -16 4 -35 15 -44 26 -9 10 -24 18 -33 18 -9 0 -16
5 -16 10 0 7 -600 10 -1780 10 l-1780 0 0 1780 c0 1180 -3 1780 -10 1780 -5 0
-10 8 -10 18 0 10 -9 24 -20 32 -11 8 -20 20 -20 28 0 15 -24 42 -37 42 -5 0
-15 9 -23 20 -8 12 -26 20 -42 20 -15 0 -28 5 -28 10 0 7 -340 10 -1000 10
-660 0 -1000 -3 -1000 -10z"/>
</g>
</svg>
