<?xml version="1.0" encoding="UTF-8"?>
<svg id="Layer_1" data-name="Layer 1" xmlns="http://www.w3.org/2000/svg" viewBox="0 0 677.41 643.69">
  <defs>
    <style>
      .cls-1 {
        fill: #fefefe;
      }

      .cls-1, .cls-2, .cls-3 {
        stroke-width: 0px;
      }

      .cls-2 {
        fill: #e5e5e5;
      }

      .cls-3 {
        fill: #7d70ba;
      }
    </style>
  </defs>
  <path class="cls-3" d="m401.76,358.17c16.35-.01,32.7-.01,49.06-.05,1.68,0,3.03-.25,3.01,2.35-.13,15.97-.06,31.94-.09,47.91,0,.72-.29,1.44-.45,2.16-3.18-.3-6.36-.39-9.54,0-3.75,0-7.51,0-11.26,0-3.74-.36-7.48-.36-11.22,0-3.75,0-7.51,0-11.26,0-2.46-.07-5.33.63-7.27-.41-2.53-1.35-.38-4.72-1.27-7.05.32-11.97.32-23.93,0-35.9.1-3.01.21-6.02.31-9.03Z"/>
  <path class="cls-2" d="m401.76,358.17c-.1,3.01-.21,6.02-.31,9.03-.9.24-1.79.48-2.69.73,0-3.75.01-7.5.02-11.25,0,0-.02.02-.02.02,1.28-.07,2.45.08,3,1.48Z"/>
  <path class="cls-3" d="m413.02,107.06c12.59.04,25.18.11,37.77.09,1.81,0,2.97.02,2.96,2.42-.08,16.32-.03,32.64-.04,48.97,0,.35-.21.71-.33,1.06-3.22-.26-6.43-.33-9.65.02-3.75,0-7.5,0-11.24,0-3.75-.33-7.49-.32-11.24,0-3.75,0-7.5,0-11.24,0-1.61-.07-3.22-.05-4.82-.23-1.32-.15-3.1.87-3.74-1.3.05-13.78.09-27.55.15-41.33.01-2.98-1.01-6.74.41-8.73,1.69-2.38,5.75-.34,8.73-.97.76,0,1.52,0,2.28,0Z"/>
  <path class="cls-3" d="m427.65,284.82c-7.73,0-15.46-.1-23.18.06-2.37.05-2.86-.67-2.84-2.92.1-15.47.11-30.94,0-46.4-.02-2.39.72-2.85,2.94-2.84,15.44.09,30.89.1,46.33-.01,2.37-.02,2.82.68,2.8,2.95-.11,15.46-.12,30.93.01,46.39.02,2.38-.63,2.87-2.88,2.82-7.72-.14-15.45-.06-23.18-.05Z"/>
  <path class="cls-3" d="m276.12,277.99q-.49,6.78-7.56,6.79c-13.96,0-27.92-.04-41.87.04-2.05.01-2.71-.46-2.69-2.63.12-16.45.1-32.91.12-49.37,3.48,0,6.97.01,10.45.03,13.8.06,27.59.12,41.39.18.05,3.77.1,7.53.15,11.3v11.18c0,2.27,0,4.53.01,6.8,0,.98,0,1.96,0,2.95,0,.52-.01,1.04-.02,1.55,0,3.73,0,7.46,0,11.19Z"/>
  <path class="cls-1" d="m398.76,367.92c.9-.24,1.79-.48,2.69-.73.33,11.97.33,23.93,0,35.9-1.13-.05-1.44-1.64-2.7-1.45,0-3.75,0-7.5,0-11.25,1.77-1.62,2.24-8.8.69-11.02-.11-.15-.46-.14-.69-.2,0-3.75,0-7.5.01-11.25h-.01Z"/>
  <path class="cls-1" d="m276.13,262.3c1.93.98,1.93,1.96,0,2.95,0-.98,0-1.96,0-2.95Z"/>
  <path class="cls-3" d="m230.16,159.62c-1.96-.36-3.93-.26-5.89-.03-.13-8.57-.3-17.14-.37-25.71-.06-7.59.17-15.2-.1-22.78-.12-3.34.89-4.49,4.12-3.95.96.16,1.98-.05,2.98-.09.76,0,1.52,0,2.28,0,13.98,0,27.96,0,41.94,0,1.35.38.61,1.6.96,2.39.01,3.73.03,7.46.04,11.19,0,3.77,0,7.53,0,11.3v11.18c0,3.76,0,7.53,0,11.29-.7,1.67.74,3.74-1,5.2-3.75-.33-7.49-.32-11.24,0-3.75,0-7.5,0-11.24,0-3.75-.33-7.49-.32-11.24,0-3.75,0-7.5,0-11.24,0Z"/>
  <path class="cls-3" d="m224.93,358.02c15.9.04,31.8.16,47.71.03,2.89-.02,3.65.81,3.37,3.52-.21,2.08.06,4.21.11,6.32,0,3.76,0,7.53,0,11.29,0,3.73,0,7.46,0,11.19,0,3.76,0,7.53,0,11.29-.81,2.91.84,6.1-1.01,8.89-3.74-.36-7.48-.36-11.22,0-3.75,0-7.51,0-11.26,0-3.74-.36-7.48-.36-11.22,0-3.75,0-7.51,0-11.26,0-2.07-.74-4.34.47-6.36-.68.02-17.18.04-34.36.06-51.53.36-.1.72-.21,1.09-.31Z"/>
  <path class="cls-2" d="m398.76,379.16c.24.06.59.05.69.2,1.54,2.23,1.07,9.4-.69,11.02,0,0,.01.01.01.01,0-3.75,0-7.5,0-11.25h-.02Z"/>
  <path class="cls-3" d="m312.59,233.04c11.79-.07,23.58-.2,35.37-.17,5.7.01,11.4-.53,17.09.18.02,3.75.04,7.5.05,11.25,0,3.74,0,7.48,0,11.22v22.48c-.47,6.77-.47,6.75-7.4,6.78-5.05.02-10.1.11-15.16.17-3.98,0-7.96,0-11.95,0-1.02.02-2.03.04-3.05.06-.23-.1-.47-.1-.7,0l-3.05-.05-1.45.05c-.52,0-1.04,0-1.56,0l-.35-.08s-.36.04-.36.04c-.25-.01-.5-.02-.76-.04q-6.46-.32-6.79-6.91v-11.25c0-3.74,0-7.48,0-11.22,0-3.75,0-7.5,0-11.25.02-3.74.03-7.49.05-11.23,0,0,0,0,0,0Z"/>
  <path class="cls-3" d="m320.82,107.06c.76,0,1.52,0,2.28,0,12.47.04,24.94.08,37.42.13,1.49,0,2.99.1,4.48.16l.11,2.09c0,3.74,0,7.48,0,11.22,0,3.75,0,7.5,0,11.25,0,3.74,0,7.48,0,11.22,0,3.75,0,7.5,0,11.25-.06,1.65-.13,3.31-.19,4.96l-11.11.26c-3.75,0-7.5,0-11.24,0-3.75-.33-7.49-.32-11.24,0-3.75,0-7.5,0-11.24,0-1.57-.07-3.15-.26-4.72-.17-1.91.11-3.07-.26-2.7-2.54.13-.82-.08-1.69-.14-2.53v-11.22c0-3.75,0-7.5,0-11.25,0-3.74,0-7.48,0-11.22,0-3.75,0-7.5,0-11.25.08-1.25.05-2.42,1.96-2.28,2.1.15,4.22-.04,6.33-.08Z"/>
  <path class="cls-2" d="m319.33,284.93c.25.01.5.02.76.04-.27.37-.52.32-.76-.04Z"/>
  <path class="cls-3" d="m365.1,401.64c-.07,2.91-.14,5.82-.2,8.72-3.69.06-7.39.13-11.08.19-3.75,0-7.51,0-11.26,0-3.74-.36-7.48-.36-11.22,0-3.75,0-7.51,0-11.26,0-2.37-.89-5.74,1.18-7.12-1.03-1.1-1.77-.25-4.74-.28-7.18,0-.24-.09-.48-.14-.72,0-3.74,0-7.48,0-11.22,0-3.75,0-7.5,0-11.25,0-3.74,0-7.48,0-11.22.05-2.61.15-5.22.13-7.83,0-1.11.1-1.97,1.44-2.06,15.84.04,31.67.15,47.51.03,2.84-.02,3.73.71,3.42,3.5-.23,2.09.03,4.23.07,6.35,0,3.75,0,7.5,0,11.25,0,3.74,0,7.48,0,11.22,0,3.75,0,7.5,0,11.25Z"/>
  <path class="cls-1" d="m323.81,284.95c-.17.31-.27.81-.52.89-.65.22-.72-.43-.93-.84.48-.02.97-.03,1.45-.05Z"/>
  <path class="cls-1" d="m327.55,285.01c-.16.19-.31.38-.47.57-.08-.19-.15-.38-.23-.57.23-.1.47-.1.7,0Z"/>
  <path class="cls-1" d="m312.53,154.38c-1.23,0-2.46,0-3.69,0,0,0,.01.01.01.01,0-3.75,0-7.5-.01-11.25,1.23,0,2.47,0,3.7.01,0,3.74,0,7.48,0,11.22Z"/>
  <path class="cls-1" d="m312.54,131.9c-1.23,0-2.47,0-3.7.02,0-3.75,0-7.5,0-11.25,1.23,0,2.47,0,3.7.01,0,3.74,0,7.48,0,11.22Z"/>
  <path class="cls-3" d="m1.59,618.58c1.44-2.09,2.85-4.2,4.81-5.88,5.49-3.58,11.67-2.95,17.76-2.96q5.79,0,5.8-5.87c-.02-64.04-.05-128.07-.05-192.11,0-65.28.06-130.57,0-195.85,0-4.72.58-9.13,3.03-13.21,1.97-2.3,4.27-4.19,6.94-5.61,14.21-5.49,28.42-10.98,42.63-16.47.74-.33,1.47-.67,2.21-1,.82-.06,1.65-.08,2.19-.85,1.33-.29,2.65-.63,3.75-1.5.87.06,1.6-.27,2.24-.83,8.44-3.27,16.88-6.54,25.32-9.82,3.51-1.32,7.02-2.63,10.53-3.95,1.86-.68,3.77-1.24,5.55-2.08,6.3-2.97,13.28-4.35,19.26-8.08.41-2.25.34-4.49.05-6.74,0-3.75,0-7.5,0-11.24.31-3.74.32-7.49,0-11.23,0-3.75,0-7.5,0-11.24.31-3.75.31-7.49,0-11.23,0-3.75,0-7.49,0-11.24.32-3.74.31-7.49,0-11.23,0-3.75,0-7.5,0-11.24.31-3.74.31-7.49,0-11.23,0-3.75,0-7.5,0-11.24.31-3.74.32-7.49,0-11.23,0-3.75,0-7.5,0-11.24,0-2.24.02-4.48.02-6.72C155.45,5.84,162.27-.02,173.63,0c110.06.22,220.12.18,330.18.03,8.18-.01,14.2,2.72,18.36,9.68-.12.21-.07.36.15.46,1.29,3.9,1.28,7.95,1.43,11.98-.32,3.74-.32,7.49,0,11.23,0,3.75,0,7.5,0,11.24-.32,3.49-.32,6.99,0,10.48,0,4,0,7.99,0,11.99-.32,3.74-.31,7.49,0,11.23,0,3.75,0,7.49,0,11.24-.32,3.74-.31,7.49,0,11.23,0,3.75,0,7.5,0,11.24-.32,3.74-.32,7.49,0,11.23,0,3.75,0,7.5,0,11.24-.32,3.49-.32,6.99,0,10.48-.05,2.11-.08,4.21-.16,6.32-.04,1.09.19,1.76,1.4,2.2,6.59,2.41,13.14,4.94,19.7,7.43,3.14,1.62,6.4,2.92,9.84,3.78,7.82,3.52,15.88,6.47,23.93,9.4l.97.17c.28.5.71.73,1.29.67,1.37.83,2.81,1.47,4.41,1.68.53.2,1.06.41,1.59.61.54.75,1.36.8,2.17.84,1.58,1.19,3.5,1.53,5.32,2.11,8.33,3.66,16.8,6.93,25.41,9.88.37.59.96.58,1.56.57.62.62,1.31,1.05,2.24.89.22.12.45.23.67.35,2.42,1.14,4.85,2.27,7.5,2.77.53.3,1.03.73,1.61.89,9.97,2.87,14.67,9.55,14.42,19.84,0,2.51,0,5.03,0,7.54-.01,11.72-.03,23.45-.04,35.17.01,3.26.03,6.52.04,9.78,0,4.73,0,9.46,0,14.19,0,2.51,0,5.03,0,7.54,0,5.23,0,10.46,0,15.69,0,2.51,0,5.03,0,7.54-.01,11.72-.03,23.45-.04,35.17.01,3.26.03,6.52.04,9.78,0,4.73,0,9.46,0,14.19,0,2.51,0,5.03,0,7.54-.01,19.46-.03,38.93-.04,58.39.01,3.26.03,6.52.04,9.78,0,4.73,0,9.46,0,14.19,0,2.51,0,5.03,0,7.54-.01,19.46-.03,38.93-.04,58.39.01,3.26.03,6.52.04,9.78,0,4.73,0,9.46,0,14.19,0,2.51,0,5.03,0,7.54-.04,13.8-.09,27.61-.12,41.41q-.02,9.37,9.66,8.78c1.74.02,3.48.03,5.22.05,1,.19,2.01.39,3.01.58.98.35,1.95.69,2.93,1.04,4.07,2.06,6.56,5.5,8.36,9.54.09,2.72,1.09,5.34.6,8.15-1.66,9.57-7.32,14.49-17.27,14.55-15.48.09-30.96.03-46.45.03-197.9,0-395.8-.12-593.7.21-16.81.03-23.13-12.9-18.27-25.1Zm187.22-9.01c2.49-.01,4.99-.02,7.48-.03,3.75,0,7.5,0,11.24,0,3.75.32,7.49.31,11.24,0,3.75,0,7.5,0,11.25,0,3.75.32,7.49.3,11.24,0,3.75,0,7.5,0,11.24,0,3.75.32,7.49.31,11.24,0,4.75.18,9.49.34,14.24-.09.53.05.74-.14.5-.67.06-1.99.16-3.99.16-5.98,0-35.44-.01-70.88-.02-106.33.09-.49.19-.99.28-1.48,3.36-8.46,9.36-12.43,18.69-12.35,27.36.25,54.72.25,82.07,0,8.25-.07,14.12,2.96,17.98,10.12.14.47.28.93.42,1.4.79,2.16.65,4.41.65,6.65.03,32.89.02,65.79.15,98.68.01,3.36-1.78,8.01.8,9.77,2.37,1.61,6.73.3,10.21.27,3.75.32,7.49.3,11.24,0,3.75,0,7.5,0,11.24,0,3.75.32,7.49.31,11.24,0,3.75,0,7.5,0,11.24,0,3.75.31,7.49.32,11.24,0,3.75,0,7.5,0,11.24,0,3.74,0,7.49.02,11.23.03.66.12.92-.16.82-.8.31-.75.32-1.49-.02-2.23,0-3.75,0-7.5,0-11.25.42-3.74.39-7.48,0-11.23,0-3.75,0-7.5,0-11.25.41-3.74.4-7.48,0-11.23,0-3.75,0-7.5,0-11.25.4-3.74.43-7.49,0-11.23,0-3.75,0-7.5,0-11.25.41-3.74.4-7.48,0-11.23,0-3.75,0-7.5,0-11.25.42-3.74.39-7.48,0-11.23,0-3.75,0-7.5,0-11.25.41-3.74.4-7.48,0-11.23,0-3.75,0-7.5,0-11.25.4-3.74.43-7.49,0-11.23,0-3.75,0-7.5,0-11.25.41-3.74.4-7.48,0-11.23,0-3.75,0-7.5,0-11.25.42-3.74.39-7.48,0-11.23,0-3.75,0-7.5,0-11.25.41-3.74.4-7.48,0-11.23,0-3.75,0-7.5,0-11.25.4-3.74.43-7.49,0-11.23,0-3.75,0-7.5,0-11.25.41-3.74.4-7.48,0-11.22,0-3.75,0-7.5,0-11.25.42-3.74.39-7.48,0-11.23,0-3.75,0-7.5,0-11.25.41-3.74.4-7.48,0-11.23,0-3.75,0-7.5,0-11.25.4-3.74.43-7.49,0-11.23,0-3.75,0-7.5,0-11.25.41-3.74.4-7.48,0-11.22,0-3.75,0-7.5,0-11.25.42-3.74.39-7.48,0-11.23,0-3.75,0-7.5,0-11.25.41-3.74.4-7.48,0-11.23,0-3.75,0-7.5,0-11.25.4-3.74.43-7.49,0-11.23,0-3.75,0-7.5,0-11.25.41-3.74.4-7.48,0-11.23,0-3.75,0-7.5,0-11.25.42-3.74.39-7.48,0-11.23,0-3.75,0-7.5,0-11.25.41-3.74.4-7.48,0-11.23,0-3.75,0-7.5,0-11.25.4-3.74.43-7.49,0-11.23,0-3.75,0-7.5,0-11.25.41-3.74.4-7.48,0-11.23,0-3.75,0-7.5,0-11.25.41-3.74.4-7.48,0-11.23.04-2.86-.02-5.73.14-8.59.09-1.66-.46-2.16-2.09-2.09-3.36.15-6.73.12-10.09.17-3.75-.32-7.49-.3-11.24,0-3.75,0-7.5,0-11.24,0-3.75-.33-7.49-.31-11.24,0-3.75,0-7.5,0-11.24,0-3.75-.31-7.49-.33-11.24,0-3.75,0-7.5,0-11.24,0-3.75-.32-7.49-.31-11.24,0-3.75,0-7.5,0-11.25,0-3.75-.32-7.49-.3-11.24,0-3.75,0-7.5,0-11.24,0-3.75-.33-7.49-.31-11.24,0-3.75,0-7.5,0-11.24,0-3.75-.31-7.49-.33-11.24,0-3.75,0-7.5,0-11.24,0-3.75-.32-7.49-.31-11.24,0-3.75,0-7.5,0-11.25,0-3.75-.32-7.49-.3-11.24,0-3.75,0-7.5,0-11.24,0-3.75-.33-7.49-.31-11.24,0-3.75,0-7.5,0-11.24,0-3.75-.31-7.49-.33-11.24,0-3.75,0-7.5,0-11.24,0-3.75-.32-7.49-.31-11.24,0-3.75,0-7.5,0-11.25,0-3.75-.32-7.49-.3-11.24,0q-8.53-.51-8.46,7.96c0,.85.11,1.7.17,2.56,0,3.74-.02,7.48-.02,11.22,0,3.75.02,7.5.03,11.26,0,3.74-.01,7.48-.02,11.22,0,3.75.01,7.5.02,11.25,0,3.74-.02,7.48-.02,11.22,0,3.75.01,7.5.02,11.26,0,3.74,0,7.48-.01,11.22,0,3.75,0,7.5.01,11.25,0,3.74-.02,7.48-.02,11.22,0,3.75.02,7.5.03,11.26,0,3.74-.01,7.48-.02,11.22,0,3.75.01,7.5.02,11.25,0,3.74-.02,7.48-.02,11.22,0,3.75.01,7.5.02,11.26,0,3.74,0,7.48-.01,11.22,0,3.75,0,7.5.01,11.25,0,3.74-.02,7.48-.02,11.22l.03,11.26c0,3.74-.01,7.48-.02,11.22,0,3.75.01,7.5.02,11.25,0,3.74-.02,7.48-.02,11.22,0,3.75.01,7.5.02,11.26,0,3.74,0,7.48-.01,11.22,0,3.75,0,7.5.01,11.25,0,3.74-.02,7.48-.02,11.22,0,3.75.02,7.5.03,11.26,0,3.74-.01,7.48-.02,11.22,0,3.75.01,7.5.02,11.25,0,3.74-.02,7.48-.02,11.22,0,3.75.01,7.5.02,11.26,0,3.74,0,7.48-.01,11.22,0,3.75,0,7.5.01,11.25,0,3.74-.02,7.48-.02,11.22,0,3.75.02,7.5.03,11.26,0,3.74-.01,7.48-.02,11.22,0,3.75.01,7.5.02,11.25,0,3.74-.02,7.48-.02,11.22,0,3.75.01,7.5.02,11.26,0,3.74,0,7.48-.01,11.22,0,3.75,0,7.5.01,11.25,0,3.74-.02,7.48-.02,11.22,0,3.75.02,7.5.03,11.26,0,3.74-.01,7.48-.02,11.22,0,3.75.01,7.5.02,11.25,0,3.74-.02,7.48-.02,11.22,0,3.75.01,7.5.02,11.26v11.22c0,3.75,0,7.5,0,11.25,0,3.74-.02,7.48-.02,11.22,0,3.75.02,7.5.03,11.26,0,.74-.02,1.48-.03,2.23-.09.65.17.93.83.81Zm418.9-387.43c-1.15-.75-2.39-1.25-3.76-1.4-.62-.56-1.32-.95-2.19-.93-3.99-1.59-7.98-3.18-11.97-4.77-4.98-1.98-9.81-4.36-15.04-5.67-.35-.6-.9-.73-1.53-.67-.51-.2-1.01-.41-1.52-.61-.48-.08-.97-.16-1.45-.24-.65-1.45-2.01-.38-2.94-.82-.12-.35-.14-.92-.36-1.01-8.89-3.38-17.8-6.71-26.7-10.05-.63-.54-1.3-.98-2.19-.9-.38-.57-.97-.57-1.56-.56-.59-.63-1.3-.98-2.18-.93-3.48-1.42-6.96-2.83-10.58-4.31v12.68c-.32,3.74-.32,7.49,0,11.23,0,3.75,0,7.5,0,11.24-.31,3.74-.32,7.49,0,11.23,0,3.75,0,7.5,0,11.24-.32,3.74-.31,7.49,0,11.23,0,3.75,0,7.49,0,11.24-.32,3.74-.31,7.49,0,11.23,0,3.75,0,7.5,0,11.24-.32,3.74-.32,7.49,0,11.23,0,3.75,0,7.5,0,11.24-.31,3.74-.32,7.49,0,11.23,0,3.75,0,7.5,0,11.24-.32,3.74-.31,7.49,0,11.23,0,3.75,0,7.49,0,11.24-.32,3.74-.31,7.49,0,11.23,0,3.75,0,7.5,0,11.24-.32,3.74-.32,7.49,0,11.23,0,3.75,0,7.5,0,11.24-.31,3.74-.32,7.49,0,11.23,0,3.75,0,7.5,0,11.24-.32,3.74-.31,7.49,0,11.23,0,3.75,0,7.49,0,11.24-.32,3.74-.31,7.49,0,11.23,0,3.75,0,7.5,0,11.24-.32,3.74-.32,7.49,0,11.23,0,3.75,0,7.5,0,11.24-.31,3.74-.32,7.49,0,11.23,0,3.75,0,7.5,0,11.24-.32,3.74-.31,7.49,0,11.23,0,3.75,0,7.49,0,11.24-.32,3.74-.31,7.49,0,11.23,0,3.75,0,7.5,0,11.24-.32,3.74-.32,7.49,0,11.23,0,3.75,0,7.5,0,11.24-.31,3.74-.32,7.49,0,11.23,0,3.75,0,7.5,0,11.24,0,.75,0,1.49,0,2.24-.1.61.16.86.77.77,3,.3,5.99.32,8.99,0,3.75,0,7.5,0,11.24,0,3.75.31,7.49.32,11.24,0,3.75,0,7.5,0,11.24,0,3.75.32,7.49.31,11.24,0,3.75,0,7.5,0,11.25,0,3.75.32,7.49.3,11.24,0,2.87.05,5.77-.16,8.59.21,3.59.47,4.18-1.06,4.17-4.27-.11-34.95-.1-69.9-.1-104.85,0-90.87-.02-181.74.06-272.6,0-2.92-.43-4.85-3.72-5.01-.64-.55-1.32-1.03-2.24-.88Zm-454.12,36.01c0-3.75,0-7.5,0-11.24.31-3.74.31-7.49,0-11.23,0-3.75,0-7.5,0-11.24.31-3.74.32-7.49,0-11.23,0-3.75,0-7.5,0-11.24.31-3.74.31-7.49,0-11.23-.04-.41-.07-.82-.11-1.22-.26.07-.53.15-.79.22-.48.22-.96.45-1.45.67-4.1,1.29-8.11,2.81-11.98,4.69-3.48,1.32-6.96,2.64-10.44,3.96-8.02,3.14-16.04,6.28-24.06,9.43-3.15.76-6.07,2.11-9,3.43-2.24.89-4.47,1.78-6.71,2.66-7.38,2.42-14.58,5.3-21.68,8.45-1.59.62-3.75.27-3.73,3.12.12,18.16.13,36.31.18,54.47,0,.27.01.55.02.82,0,7.22-.02,14.44-.03,21.66,0,.76.02,1.53.03,2.29,0,29.2-.02,58.41-.03,87.61,0,.76.02,1.53.03,2.29,0,21.95,0,43.91,0,65.86,0,.27,0,.54,0,.82-.01,6.98-.02,13.96-.03,20.93l.03,2.29c0,21.71-.01,43.42-.02,65.14,0,.27.01.55.02.82,0,7.22-.02,14.44-.03,21.66l.03,2.29c-.04,8.81-.09,17.63-.11,26.44q-.02,8.56,8.91,8.01c3.75.32,7.49.31,11.24,0,3.75,0,7.5,0,11.24,0,3.75.31,7.49.32,11.24,0,3.75,0,7.5,0,11.24,0,3.75.32,7.49.31,11.24,0,3.75,0,7.5,0,11.25,0,3.74.33,7.49.3,11.23,0,3.15.79,2.44-1.32,2.26-3.02.32-3.74.31-7.49,0-11.23,0-3.75,0-7.5,0-11.24.31-3.74.32-7.49,0-11.23,0-3.75,0-7.5,0-11.24.31-3.75.31-7.49,0-11.23,0-3.75,0-7.49,0-11.24.32-3.74.31-7.49,0-11.23,0-3.75,0-7.49,0-11.24.31-3.74.31-7.49,0-11.23,0-3.75,0-7.5,0-11.24.31-3.74.32-7.49,0-11.23,0-3.75,0-7.5,0-11.24.31-3.75.31-7.49,0-11.23,0-3.75,0-7.49,0-11.24.32-3.74.31-7.49,0-11.23,0-3.75,0-7.5,0-11.24.31-3.74.31-7.49,0-11.23,0-3.75,0-7.5,0-11.24.31-3.74.32-7.49,0-11.23,0-3.75,0-7.5,0-11.24.31-3.75.31-7.49,0-11.23,0-3.75,0-7.49,0-11.24.32-3.74.31-7.49,0-11.23,0-3.75,0-7.49,0-11.24.31-3.74.31-7.49,0-11.23v-11.24c.31-3.74.31-7.49,0-11.23,0-3.75,0-7.5,0-11.24.31-3.75.31-7.49,0-11.23,0-3.75,0-7.49,0-11.24.32-3.74.31-7.49,0-11.23Zm188.83,351.39c3.75.32,7.49.31,11.24,0,2.97.05,5.95-.05,8.9.2,2.14.18,2.45-.74,2.37-2.54-.15-3.46-.12-6.93-.17-10.39,0-.51,0-1.02.01-1.53,0-6.73-.01-13.46-.02-20.19l.03-2.28c0-3.74,0-7.47,0-11.21,0-.76-.02-1.52-.03-2.28,0-9.98,0-19.95,0-29.93.01-.51.03-1.02.04-1.53.04-3.08,0-6.17.14-9.25.07-1.57-.34-2.17-2.03-2.08-3.07.17-6.16.1-9.23.13-3.75,0-7.5,0-11.25,0-3.74,0-7.49,0-11.23,0-3.75-.3-7.5-.31-11.25,0q-7.49-.31-7.48,7.14c0,1.35.07,2.7.11,4.06,0,.51.02,1.02.03,1.53-.04,9.2-.09,18.4-.08,27.6,0,.82-.55,2.22,1.26,2v-.07c-2.69-.13-1.22,1.94-1.22,2.78-.11,13.66-.07,27.32-.06,40.98q0,7.31,7.46,6.88c3.75.32,7.49.3,11.24,0,3.75,0,7.5,0,11.24,0Z"/>
</svg>