<?xml version="1.0" encoding="UTF-8"?>
<svg id="Layer_1" data-name="Layer 1" xmlns="http://www.w3.org/2000/svg" viewBox="0 0 595.76 595.66">
  <defs>
    <style>
      .cls-1 {
        fill: #7d70ba;
        stroke-width: 0px;
      }
    </style>
  </defs>
  <path class="cls-1" d="m595.76,274.54v46.53c-1.25.34-1.08,1.39-1.16,2.32-5.84,64.67-29.69,121.89-72.74,170.45-57.1,64.41-129.2,97.96-215.21,101.65-32.14,1.38-63.04-5.6-93.94-13.2-14.69-3.61-28.43-8.8-40.06-18.64-10.76-9.11-13.4-20.19-8.78-33.42,2.58-7.38,6.38-14.05,10.58-20.56,8.8-13.66,19.04-26.37,27.12-40.51,8.11-14.19,14.31-28.98,10.75-45.81-6.03-28.56-31.83-45.97-62.16-42.66-15.3,1.67-29.91,5.94-44.47,10.6-18.56,5.94-36.59,13.56-56.07,16.54-17.1,2.61-28.96-4.13-34.44-20.03-17.51-50.77-19.51-102.42-7.93-154.56C34.16,112.22,132.45,21.21,255.11,3.11c6.15-.91,12.54-.55,18.41-3.11h46.53c.45,1.63,1.81,1.06,2.85,1.14,32.49,2.56,63.94,9.87,93.48,23.53,99.22,45.91,158.18,122.86,176.33,230.87,1.06,6.33.51,12.92,3.04,19Zm-30.28,7.48c-.11-13.62-4.36-24.25-12.55-33.05-23.25-24.99-61.68-28-90.21-7.31-26.68,19.35-27.02,57.45-.41,76.86,23.66,17.27,49.14,18.76,74.81,5.51,17.15-8.86,27.44-23.43,28.36-42.01Zm-263.87-145.83c17.81-.27,31.86-4.83,44.27-14.35,23.04-17.69,25.63-49.69,5.61-70.36-23.73-24.5-65.19-26.58-91.29-4.57-19.87,16.76-23.93,41.8-9.32,63.32,12.54,18.47,31.44,25.24,50.73,25.97Zm137.43,67.61c18.89-.09,32.74-4.61,45.11-13.89,26.17-19.62,26.13-57.27-.21-76.68-25.18-18.55-58.08-18.51-83.19.1-20.65,15.31-25.88,42.08-11.85,63.43,12.59,19.16,31.61,26.28,50.14,27.04Zm-276.12-8.01c19.88,0,33.86-4.69,46.32-14.14,25.54-19.36,25.63-56.65.06-75.94-25.31-19.09-58.48-19.18-84.02-.21-20.53,15.25-25.69,42.16-11.64,63.38,12.62,19.05,31.56,26.27,49.27,26.91Zm-69.76,120.7c17.5-.3,31.62-4.7,44.07-14.26,25.83-19.82,25.64-57.08-.48-76.4-25.22-18.66-58.85-18.83-83.64.43-21.17,16.45-25.2,43.12-11.65,63.03,12.91,18.98,31.67,26.23,51.71,27.2Zm379.7,42.78c-17.72.17-31.78,4.66-44.27,14.15-23.36,17.74-26.01,49.95-5.68,70.82,23.56,24.18,64.94,26.16,90.99,4.36,19.35-16.19,23.77-41.58,10.35-61.99-12.59-19.12-31.48-26.46-51.38-27.34Zm-122.53,89.63c-18.2.13-32.28,4.62-44.75,14.12-23.4,17.83-26,49.73-5.69,70.83,23.21,24.1,65.38,26.12,91,4.34,19.26-16.37,23.71-41.32,10.67-61.51-12.58-19.5-31.61-26.84-51.24-27.78Z"/>
</svg>