<?xml version="1.0" encoding="UTF-8"?>
<svg id="Layer_1" data-name="Layer 1" xmlns="http://www.w3.org/2000/svg" viewBox="0 0 565.42 565.48">
  <defs>
    <style>
      .cls-1 {
        fill: #cdd1de;
      }

      .cls-1, .cls-2 {
        stroke-width: 0px;
      }

      .cls-2 {
        fill: #7d70b2;
      }
    </style>
  </defs>
  <path class="cls-2" d="m349.71,501.87c0,3.9,0,8.09,0,12.27,0,12.49-.13,24.98.05,37.46.08,5.15-2.15,8.79-6.26,11.34-2.29,1.42-4.69,2.55-7.71,2.54-35.13-.12-70.26-.09-105.4-.07-5.01,0-8.64-2.05-11.98-5.91-2.44-2.82-2.6-5.64-2.61-8.77-.05-15.47-.12-30.94.06-46.41.04-3.03-1.84-3.88-3.79-4.72-2.31-.99-4.86-1.44-7.24-2.29-3.68-1.31-7.35-2.65-10.94-4.18-4.37-1.87-8.66-3.93-12.95-5.97-.83-.39-1.49-1.1-2.29-1.59-2.93-1.79-4.28.76-5.84,2.31-2.89,2.87-5.55,5.96-8.44,8.84-2.07,2.06-4.46,3.8-6.51,5.87-2.6,2.63-4.92,5.55-7.52,8.19-2.3,2.32-4.83,4.4-7.24,6.61-.78.72-1.63,1.4-2.26,2.24-3.43,4.59-10.77,5.77-15.63,3.52-3.78-1.76-6.23-4.91-8.94-7.84-2.12-2.29-4.3-4.53-6.49-6.75-2.9-2.94-5.79-5.88-8.76-8.76-2.29-2.22-4.72-4.31-7.03-6.51-2.27-2.15-4.48-4.36-6.7-6.56-2.87-2.84-5.75-5.67-8.56-8.57-2.28-2.36-4.42-4.85-6.68-7.23-2.09-2.21-4.24-4.35-6.39-6.51-2.91-2.93-5.8-5.88-8.78-8.74-2.36-2.27-4.98-4.29-7.25-6.64-3.84-3.98-8.56-7.67-8.16-13.96.24-3.81.49-7.68,4.3-10.48,3-2.2,5.09-5.61,7.77-8.31,2.3-2.32,4.96-4.28,7.27-6.58,2.63-2.62,4.97-5.53,7.59-8.16,2.69-2.7,5.57-5.2,8.34-7.83,1.17-1.11,2.18-2.4,3.38-3.48,1.73-1.54-.07-2.94-.46-3.97-1.1-2.9-3.04-5.47-4.42-8.29-1.28-2.63-2.35-5.36-3.37-8.11-2.04-5.51-3.9-11.09-5.99-16.57-.78-2.03-1.77-3.74-4.7-3.71-15.65.16-31.31-.05-46.97.14-5.2.07-8.91-2.1-11.56-6.16C1.2,341.35,0,338.95,0,335.94c.11-35.6.06-71.2.08-106.8,0-6.36,6.02-13.63,13.14-13.48,16.21.35,32.43.1,48.64.09.65,0,1.29,0,2.47,0,1.34-4.21,2.44-8.53,4.09-12.63,1.88-4.66,4.31-9.09,6.39-13.68,1.29-2.84,2.33-5.78,3.55-8.65.5-1.17,1.07-2.35,1.84-3.35,1.24-1.61.03-2.53-.85-3.44-3.11-3.24-6.23-6.47-9.47-9.58-3.18-3.06-6.58-5.88-9.73-8.96-3.21-3.15-6.19-6.54-9.35-9.74-2.89-2.94-6.31-5.34-8.25-9.19-2.3-4.54-.73-12.06,3.13-15.5,2.69-2.4,4.88-5.37,7.45-7.92,4.11-4.07,8.42-7.94,12.5-12.03,3.77-3.77,7.28-7.79,11.03-11.58,2.61-2.63,5.54-4.96,8.16-7.58,2.3-2.31,4.27-4.96,6.58-7.27,2.69-2.68,5.68-5.05,8.38-7.72,2.32-2.3,4.35-4.88,6.6-7.24,2.47-2.59,5.01-5.1,7.59-7.58,2.03-1.96,4.52-3.57,6.15-5.81,1.84-2.53,4.2-3.64,6.98-4.4,1.38-.37,2.75-1.35,4.07-1.25,1.74.12,3.52.85,5.11,1.64,4.29,2.12,7.27,5.73,10.36,9.26,2.14,2.45,4.79,4.45,7.14,6.73,2.29,2.23,4.47,4.57,6.72,6.84,2.73,2.75,5.5,5.46,8.21,8.23,2.46,2.52,4.87,5.1,7.09,7.44,2.44-1.24,4.64-2.46,6.92-3.48,4.28-1.91,8.57-3.83,12.95-5.52,5.4-2.08,10.92-3.86,16.34-5.88,2.05-.77,3.84-1.63,3.82-4.6-.12-16.49-.05-32.99.04-49.49.02-4.32,3.96-8.24,7.8-10.29,3.59-1.92,7.08-1.44,10.64-1.45,33.73-.07,67.47-.07,101.2-.02,6.41.01,11.05,3.11,13.7,8.98.36.8.36,1.81.37,2.72.05,16.12.08,32.24.11,48.37,0,1.21,0,2.41,0,3.46,13.4,5.49,26.63,10.9,40.31,16.51,2.1-2.03,4.94-4.65,7.64-7.41,4.23-4.32,8.29-8.81,12.56-13.1,3.88-3.9,7.91-7.66,11.94-11.4,2.15-1.99,4.29-4.08,6.75-5.61,1.83-1.14,4.29-2.23,6.26-1.93,2.78.43,5.71,1.71,7.93,3.45,3.6,2.81,6.7,6.26,9.96,9.49,4.94,4.88,9.89,9.74,14.74,14.7,4.01,4.1,7.78,8.43,11.83,12.49,4.3,4.31,8.88,8.33,13.18,12.62,4.05,4.05,7.8,8.4,11.87,12.42,3.15,3.1,7.09,5.52,9.78,8.94,2.72,3.46,6.61,5.84,8.41,10.23,2.33,5.7.56,13.32-4.19,16.86-2.99,2.23-5.09,5.61-7.76,8.31-2.42,2.45-5.17,4.58-7.59,7.03-4.26,4.3-8.33,8.79-12.57,13.1-1.98,2.01-4.19,3.81-6.07,5.5,6.8,12.88,11.91,26.24,16.59,39.98,1.29,0,2.39,0,3.49,0,16.21.02,32.43.06,48.64.07,4.89,0,8.48,3.89,10.59,7.91,1.84,3.51,1.36,6.91,1.37,10.37.07,33.55.04,67.1.05,100.65,0,5.16-1.92,8.99-6.14,12.33-2.6,2.06-5.03,2.52-7.91,2.53-15.75.02-31.5.1-47.25-.07-2.82-.03-3.8,1.62-4.5,3.52-1.36,3.65-2.22,7.47-3.53,11.14-1.6,4.5-3.34,8.96-5.22,13.35-1.53,3.56-3.33,7-5.07,10.46-.25.49-.87.79-1.07.97,1.04,1.28,1.89,2.56,2.98,3.61,2.67,2.58,5.53,4.96,8.16,7.57,2.25,2.24,4.21,4.77,6.44,7.03,2.3,2.33,4.8,4.44,7.14,6.73,2.66,2.6,5.24,5.28,7.84,7.95.17.18.12.63.3.74,4.14,2.44,5.66,6.27,6.37,10.82.4,2.53-.45,4.63-1.09,6.81-1.31,4.45-5.47,6.67-8.3,9.94-1.95,2.25-4.11,4.32-6.27,6.38-2.75,2.63-5.65,5.1-8.35,7.77-2.33,2.3-4.43,4.81-6.7,7.17-2.53,2.63-5.13,5.19-7.7,7.78-2.47,2.48-4.9,4.99-7.42,7.42-2.74,2.64-5.62,5.13-8.31,7.81-2.5,2.5-4.75,5.25-7.27,7.73-4.32,4.25-8.8,8.32-13.12,12.57-2.02,1.99-3.55,4.57-5.78,6.26-2.94,2.23-6.41,3.79-10.31,2.77-2.23-.58-4.74-1.01-6.47-2.35-3.25-2.52-6.02-5.65-9-8.52-4.17-4.01-8.46-7.91-12.51-12.03-3.09-3.14-5.87-6.59-8.84-9.85-1.75-1.91-3.52-3.83-5.46-5.54-1.05-.92-2.43-.66-3.73-.05-3.63,1.72-7.27,3.42-10.96,5.04-4.02,1.76-8.06,3.47-12.13,5.09-3.45,1.37-6.98,2.53-10.43,3.91-1.28.51-2.42,1.37-4.11,2.36Zm-26.42,36.44c0-1.41,0-2.52,0-3.62,0-14.82-.08-29.64.06-44.46.05-4.94,2.27-9,6.96-11.08,3.39-1.5,6.99-2.54,10.51-3.73,5.65-1.92,11.35-3.69,16.95-5.73,3.57-1.3,7.01-2.94,10.5-4.47,2.42-1.07,4.87-2.09,7.2-3.34,3.94-2.11,7.66-4.68,11.72-6.51,5.23-2.36,13.25.63,16.69,5.36,1.91,2.63,4.33,4.92,6.67,7.22,2.65,2.61,5.55,4.97,8.18,7.61,2.31,2.32,4.28,4.98,6.6,7.28,3.09,3.07,6.38,5.95,9.41,8.74.95-.76,2.11-1.51,3.07-2.47,4.89-4.89,9.68-9.88,14.59-14.74,2.65-2.62,5.58-4.95,8.2-7.59,4.27-4.3,8.34-8.79,12.6-13.1,2.49-2.52,5.22-4.8,7.76-7.29,3.21-3.15,6.31-6.41,9.48-9.59,1.11-1.11,1.41-2.32.29-3.45-4.56-4.62-9.18-9.19-13.82-13.75-2.57-2.53-5.24-4.95-7.81-7.47-3.15-3.09-6.26-6.22-9.38-9.34-2.83-2.83-4.77-6.35-5.29-10.16-.31-2.22.99-4.8,2-7.02,1.2-2.61,2.96-4.95,4.33-7.49,1.76-3.28,3.48-6.59,4.99-9.99,1.84-4.12,3.51-8.32,5.13-12.53,1.7-4.4,3.36-8.83,4.84-13.31.97-2.93,1.79-5.95,2.32-8.99,1.07-6.08,7.12-10.07,12.51-10.06,14.82.04,29.63.01,44.45,0,1.08,0,2.16-.13,3.29-.2.06-.74.12-1.19.12-1.65,0-25.54-.03-51.07.06-76.61,0-2.53-1.24-2.61-3.12-2.6-15.1.03-30.19,0-45.29-.01-5,0-8.71-2.7-10.69-6.78-2.28-4.68-3.38-9.93-5.1-14.89-1.56-4.52-3.17-9.03-4.94-13.47-1.55-3.87-3.27-7.68-5.07-11.44-2.23-4.65-5.1-9.07-6.8-13.89-1.28-3.64-4.26-6.63-2.16-11.8,2.09-5.16,6.23-7.93,9.18-11.95,2.16-2.94,5.44-5.03,8.1-7.63,2.27-2.23,4.39-4.63,6.53-6.98,4.01-4.4,7.99-8.82,11.98-13.23.39.05.12-.86-.47-1.44-2.41-2.35-4.95-4.55-7.38-6.88-3.3-3.17-6.54-6.38-9.78-9.61-2.15-2.14-4.28-4.3-6.36-6.5-2.25-2.38-4.35-4.91-6.68-7.2-2.64-2.61-5.56-4.93-8.18-7.55-2.31-2.31-4.3-4.93-6.57-7.28-2.88-2.97-5.86-5.84-8.87-8.68-1.23-1.16-2.41-1.37-3.74.23-2.08,2.5-4.38,4.83-6.7,7.11-2.7,2.66-5.55,5.16-8.28,7.79-2.58,2.48-5.11,5.02-7.61,7.59-2.59,2.66-5.01,5.49-7.67,8.07-3.42,3.33-7.58,5.92-12.36,5.21-3.36-.5-6.5-2.72-9.65-4.35-4.31-2.24-8.48-4.78-12.81-6.97-3.62-1.83-7.33-3.51-11.12-4.96-4.83-1.86-9.74-3.51-14.67-5.08-2.85-.91-5.82-1.45-8.71-2.24-6.72-1.83-10.17-6.3-10.18-13.23-.03-14.54,0-29.08-.02-43.62,0-1.09-.11-2.17-.17-3.32h-80.9c0,1.29,0,2.39,0,3.48,0,14.82.05,29.64-.05,44.46-.03,4.89-2.2,9.02-6.72,10.99-4.8,2.09-9.98,3.29-14.93,5.05-4.25,1.51-8.74,2.07-12.75,4.65-3.73,2.41-8.28,3.53-12.36,5.43-4.57,2.13-8.98,4.61-13.55,6.73-2.73,1.27-5.67,2.97-8.49,2.93-2.68-.05-5.66-1.67-7.9-3.41-3.39-2.63-6.21-5.97-9.32-8.96-4.44-4.26-9.02-8.38-13.37-12.74-4.02-4.02-7.8-8.27-11.94-12.69-19.17,19.27-38.18,38.37-56.92,57.2,1.95,2.3,3.33,4.18,4.96,5.79,2.7,2.66,5.66,5.06,8.35,7.74,2.31,2.3,4.3,4.91,6.6,7.21,2.62,2.63,5.54,4.96,8.12,7.63,2.43,2.52,4.59,5.31,6.88,7.97,2.52,2.93,3.3,6.41,1.81,9.82-2.03,4.66-4.79,8.99-7.02,13.57-2.54,5.21-4.96,10.48-7.21,15.82-1.59,3.76-2.9,7.63-4.19,11.51-1.41,4.24-2.61,8.54-3.95,12.8-.51,1.62-1.01,3.27-1.77,4.77-2.45,4.84-6.54,7.19-11.89,7.2-14.72.05-29.45.01-44.17.03-1.07,0-2.15.14-3.21.21v80.7c1.22.06,2.31.17,3.4.17,14.72.01,29.45-.08,44.17.06,5.09.05,9.56,1.78,11.63,7.03,1.33,3.37,2.46,6.82,3.62,10.26,1.79,5.32,3.5,10.67,5.3,15.99.8,2.37,1.61,4.76,2.68,7.02,2.36,4.99,4.89,9.91,7.36,14.85,1.15,2.31,2.01,4.87,3.58,6.85,1.78,2.24,2.44,4.71,2.18,7.25-.5,4.8-3.42,8.28-6.96,11.39-2.74,2.4-5.24,5.09-7.77,7.71-2.27,2.36-4.36,4.9-6.68,7.21-2.7,2.67-5.66,5.1-8.36,7.77-2.66,2.63-5.14,5.43-7.73,8.18,18.98,18.97,38.01,37.99,57.11,57.07,2.68-2.85,4.84-5.31,7.17-7.59,2.7-2.65,5.64-5.06,8.32-7.73,2.3-2.29,4.29-4.89,6.58-7.18,2.61-2.62,5.51-4.95,8.09-7.59,2.89-2.96,5.53-6.45,9.86-6.99,2.87-.35,6.13-.21,8.76.85,3.92,1.58,7.35,4.34,11.14,6.29,4.87,2.51,9.89,4.75,14.87,7.02,2.41,1.1,4.88,2.08,7.37,3,1.94.71,3.97,1.19,5.93,1.86,2.96,1.01,5.87,2.19,8.86,3.11,1.91.59,4.05.55,5.84,1.34,1.94.86,3.82,2.12,5.32,3.62,2.81,2.79,3.42,6.44,3.4,10.31-.06,14.26-.03,28.52-.02,42.78,0,1.08.12,2.16.19,3.34h80.88Z"/>
  <path class="cls-1" d="m323.28,538.31h-80.88c-.07-1.17-.19-2.26-.19-3.34-.01-14.26-.05-28.52.02-42.78.02-3.87-.59-7.52-3.4-10.31-1.5-1.49-3.38-2.76-5.32-3.62-1.79-.79-3.93-.75-5.84-1.34-2.99-.92-5.9-2.1-8.86-3.11-1.96-.67-3.99-1.15-5.93-1.86-2.49-.91-4.96-1.9-7.37-3-4.99-2.28-10-4.52-14.87-7.02-3.79-1.95-7.22-4.7-11.14-6.29-2.63-1.06-5.89-1.2-8.76-.85-4.34.54-6.98,4.03-9.86,6.99-2.58,2.65-5.48,4.98-8.09,7.59-2.29,2.3-4.28,4.89-6.58,7.18-2.68,2.67-5.62,5.08-8.32,7.73-2.33,2.28-4.49,4.74-7.17,7.59-19.09-19.08-38.12-38.1-57.11-57.07,2.58-2.75,5.07-5.55,7.73-8.18,2.71-2.67,5.66-5.1,8.36-7.77,2.33-2.3,4.41-4.85,6.68-7.21,2.53-2.63,5.03-5.31,7.77-7.71,3.55-3.11,6.47-6.59,6.96-11.39.26-2.54-.4-5-2.18-7.25-1.57-1.98-2.42-4.54-3.58-6.85-2.47-4.94-5-9.86-7.36-14.85-1.07-2.26-1.87-4.65-2.68-7.02-1.8-5.32-3.51-10.67-5.3-15.99-1.16-3.44-2.29-6.89-3.62-10.26-2.06-5.24-6.54-6.97-11.63-7.03-14.72-.15-29.45-.05-44.17-.06-1.09,0-2.18-.1-3.4-.17v-80.7c1.07-.07,2.14-.21,3.21-.21,14.72-.01,29.45.02,44.17-.03,5.35-.02,9.45-2.36,11.89-7.2.76-1.51,1.26-3.16,1.77-4.77,1.34-4.26,2.55-8.56,3.95-12.8,1.29-3.87,2.6-7.75,4.19-11.51,2.26-5.34,4.67-10.61,7.21-15.82,2.23-4.58,4.99-8.91,7.02-13.57,1.48-3.41.71-6.89-1.81-9.82-2.29-2.66-4.44-5.45-6.88-7.97-2.58-2.67-5.5-5-8.12-7.63-2.3-2.31-4.29-4.92-6.6-7.21-2.69-2.67-5.65-5.08-8.35-7.74-1.64-1.61-3.01-3.49-4.96-5.79,18.74-18.83,37.74-37.93,56.92-57.2,4.14,4.42,7.93,8.67,11.94,12.69,4.35,4.35,8.93,8.47,13.37,12.74,3.11,2.99,5.94,6.33,9.32,8.96,2.23,1.73,5.22,3.36,7.9,3.41,2.82.05,5.75-1.66,8.49-2.93,4.58-2.12,8.98-4.6,13.55-6.73,4.08-1.9,8.63-3.02,12.36-5.43,4.01-2.59,8.5-3.14,12.75-4.65,4.95-1.76,10.13-2.96,14.93-5.05,4.52-1.97,6.69-6.1,6.72-10.99.11-14.82.05-29.64.05-44.46,0-1.1,0-2.2,0-3.48h80.9c.06,1.14.17,2.23.17,3.32.01,14.54,0,29.08.02,43.62.01,6.94,3.46,11.41,10.18,13.23,2.89.79,5.86,1.33,8.71,2.24,4.93,1.57,9.84,3.22,14.67,5.08,3.78,1.46,7.5,3.13,11.12,4.96,4.34,2.19,8.5,4.73,12.81,6.97,3.14,1.64,6.29,3.85,9.65,4.35,4.78.71,8.94-1.89,12.36-5.21,2.66-2.59,5.09-5.41,7.67-8.07,2.5-2.57,5.03-5.1,7.61-7.59,2.73-2.63,5.58-5.13,8.28-7.79,2.32-2.28,4.62-4.61,6.7-7.11,1.33-1.6,2.51-1.39,3.74-.23,3.01,2.84,5.99,5.71,8.87,8.68,2.27,2.35,4.26,4.97,6.57,7.28,2.62,2.62,5.54,4.95,8.18,7.55,2.33,2.3,4.43,4.83,6.68,7.2,2.08,2.2,4.21,4.36,6.36,6.5,3.24,3.22,6.49,6.44,9.78,9.61,2.42,2.33,4.97,4.54,7.38,6.88.59.58.86,1.49.47,1.44-3.99,4.41-7.97,8.83-11.98,13.23-2.15,2.36-4.26,4.75-6.53,6.98-2.65,2.6-5.94,4.69-8.1,7.63-2.95,4.01-7.09,6.79-9.18,11.95-2.1,5.18.88,8.17,2.16,11.8,1.7,4.83,4.57,9.24,6.8,13.89,1.8,3.76,3.53,7.57,5.07,11.44,1.77,4.44,3.38,8.95,4.94,13.47,1.72,4.96,2.82,10.21,5.1,14.89,1.98,4.08,5.69,6.77,10.69,6.78,15.1,0,30.19.04,45.29.01,1.88,0,3.13.07,3.12,2.6-.08,25.54-.05,51.07-.06,76.61,0,.45-.06.91-.12,1.65-1.13.07-2.21.2-3.29.2-14.82.02-29.63.04-44.45,0-5.4-.01-11.45,3.98-12.51,10.06-.53,3.04-1.35,6.05-2.32,8.99-1.48,4.48-3.14,8.9-4.84,13.31-1.62,4.21-3.3,8.41-5.13,12.53-1.52,3.4-3.24,6.71-4.99,9.99-1.36,2.54-3.13,4.88-4.33,7.49-1.02,2.22-2.31,4.8-2,7.02.53,3.81,2.46,7.33,5.29,10.16,3.12,3.12,6.23,6.26,9.38,9.34,2.57,2.52,5.24,4.95,7.81,7.47,4.64,4.55,9.26,9.12,13.82,13.75,1.11,1.13.81,2.34-.29,3.45-3.18,3.18-6.28,6.44-9.48,9.59-2.53,2.48-5.27,4.77-7.76,7.29-4.26,4.31-8.33,8.8-12.6,13.1-2.62,2.64-5.56,4.97-8.2,7.59-4.92,4.86-9.71,9.85-14.59,14.74-.96.96-2.12,1.71-3.07,2.47-3.03-2.8-6.32-5.67-9.41-8.74-2.32-2.3-4.29-4.96-6.6-7.28-2.63-2.64-5.53-5-8.18-7.61-2.33-2.3-4.75-4.59-6.67-7.22-3.44-4.73-11.46-7.71-16.69-5.36-4.06,1.83-7.78,4.4-11.72,6.51-2.33,1.25-4.78,2.27-7.2,3.34-3.48,1.53-6.93,3.18-10.5,4.47-5.6,2.04-11.3,3.81-16.95,5.73-3.52,1.2-7.12,2.23-10.51,3.73-4.68,2.08-6.91,6.14-6.96,11.08-.15,14.82-.06,29.64-.06,44.46,0,1.1,0,2.21,0,3.62Zm80.63-266.37c.54-55.27-54.75-110.44-120.99-110.4-66.53.05-121.16,54.71-121.25,120.79-.09,66.84,54.46,121.63,120.86,121.32,44.44-.21,78.8-20.12,102.98-57.19,12.5-19.17,18.32-40.57,18.41-74.52Z"/>
  <path class="cls-2" d="m403.91,271.94c-.09,33.94-5.91,55.35-18.41,74.52-24.18,37.07-58.54,56.99-102.98,57.19-66.4.31-120.95-54.48-120.86-121.32.09-66.08,54.73-120.74,121.25-120.79,66.24-.05,121.53,55.13,120.99,110.4Zm-216.2,11.21c.5,2.12,1.46,4.74,1.66,7.41.54,7.11,1.5,14.01,3.96,20.85,2.08,5.79,4.08,11.57,7.2,16.83,2.57,4.33,5.56,8.43,8.59,12.45,2.46,3.27,5.09,6.45,7.96,9.36,2.43,2.47,5.24,4.6,8.03,6.68,3.7,2.75,7.46,5.44,11.37,7.89,2.8,1.76,5.82,3.22,8.86,4.54,3.01,1.31,6.12,2.46,9.28,3.35,3.6,1.01,7.28,1.75,10.97,2.41,5.03.9,10.07,1.8,15.14,2.35,3.45.38,6.87-.66,10.29-1.08,8.35-1.02,16.64-1.79,24.39-5.39,4.3-2,8.79-3.65,12.9-5.98,4.3-2.44,8.32-5.4,12.32-8.31,2.73-1.99,5.42-4.11,7.79-6.51,2.69-2.73,5-5.82,7.47-8.77,2.17-2.59,4.66-4.98,6.4-7.84,2.56-4.2,4.65-8.7,6.79-13.15,1.27-2.64,2.53-5.34,3.31-8.15,1.09-3.96,1.91-8.01,2.51-12.08.96-6.42,1.82-12.87,2.36-19.33.17-2.07-1.1-4.21-1.21-6.35-.45-8.52-1.81-16.82-5.28-24.69-1.08-2.45-1.7-5.13-2.98-7.46-2.35-4.26-4.81-8.49-7.64-12.44-3.28-4.58-6.91-8.94-10.57-13.23-4.85-5.69-11.03-9.84-17.21-13.89-3.94-2.58-8.29-4.56-12.56-6.59-2.65-1.25-5.45-2.28-8.29-3.05-3.79-1.02-7.65-1.79-11.52-2.48-5.11-.91-10.23-1.98-15.39-2.3-3.38-.21-6.83.99-10.27,1.19-8.51.5-16.82,1.74-24.68,5.27-2.44,1.1-5.15,1.69-7.46,2.98-4.33,2.42-8.62,4.96-12.63,7.86-4.71,3.4-9.32,7.01-13.57,10.96-2.84,2.64-5.05,5.98-7.46,9.07-2.27,2.92-4.75,5.74-6.54,8.94-2.58,4.61-4.78,9.45-6.85,14.32-1.39,3.28-2.36,6.75-3.34,10.18-.6,2.1-.93,4.29-1.28,6.46-.93,5.67-1.81,11.35-2.81,17.71Z"/>
</svg>