<?xml version="1.0" encoding="UTF-8"?>
<svg id="Layer_1" data-name="Layer 1" xmlns="http://www.w3.org/2000/svg" viewBox="0 0 752.44 494.73">
  <defs>
    <style>
      .cls-1 {
        fill: #7e70b3;
      }

      .cls-1, .cls-2 {
        stroke-width: 0px;
      }

      .cls-2 {
        fill: #ced2de;
      }
    </style>
  </defs>
  <path class="cls-1" d="m376.1,411.02c-108.13,0-216.26,0-324.38,0q-6.62,0-6.62-6.78c0-126.95,0-253.91,0-380.86C45.09,9.35,54.55,0,68.67,0c204.93.02,409.85.03,614.78.04,14.55,0,23.89,9.17,23.89,23.54,0,126.62.01,253.24-.02,379.86,0,8.32,1.44,7.57-7.83,7.57-107.79.01-215.59,0-323.38,0Zm.14-26.86c97.29,0,194.58,0,291.87,0,10.28,0,12.31-1.99,12.31-12.17,0-111.12,0-222.24,0-333.36,0-1.33.05-2.67-.04-4-.3-4.74-2.98-7.24-7.58-7.71-1.65-.17-3.33-.05-5-.05-194.75,0-389.5,0-584.25,0-9.45,0-11.56,2.06-11.56,11.32,0,111.12,0,222.24,0,333.36,0,10.83,1.82,12.61,12.87,12.61,97.12,0,194.25,0,291.37,0Z"/>
  <path class="cls-1" d="m376.14,494.73c-109.81,0-219.61,0-329.42,0-24.78,0-46.63-21.92-46.66-46.72,0-5.67.12-11.33-.05-16.99-.08-2.76.76-4.07,3.65-3.79,1.32.13,2.66.02,4,.02,89.98,0,179.96.04,269.93-.13,4.8,0,6.63,1.38,7.59,5.98,1.83,8.79,4.31,17.45,6.57,26.16,1.78,6.85,3.95,8.6,10.81,8.6,49.15.01,98.31,0,147.46-.02,6.63,0,8.87-1.74,10.56-8.24,2.44-9.34,4.89-18.68,7.12-28.08.72-3.04,1.87-4.36,5.28-4.36,91.64.1,183.29.09,274.93,0,3.47,0,4.74.94,4.5,4.48-.6,8.61.92,17.31-1.13,25.88-5.2,21.8-24.4,37.15-46.73,37.16-109.47.02-218.95,0-328.42,0v.03Z"/>
  <path class="cls-2" d="m376.28,427.24c23.65,0,47.31.11,70.96-.09,4.32-.04,4.99,1.26,3.86,5.05-1.56,5.26-2.85,10.62-4.04,15.98-.57,2.58-1.81,3.45-4.44,3.45-44.31-.07-88.62-.08-132.93,0-2.78,0-3.77-1.1-4.33-3.55-1.26-5.52-2.53-11.05-4.16-16.47-1.11-3.69,0-4.46,3.61-4.44,23.82.14,47.64.07,71.46.07Z"/>
  <path class="cls-2" d="m376.22,367.86c-93.48,0-186.96,0-280.44-.02-8.95,0-7.54.45-7.54-7.42-.03-103.48-.02-206.95-.02-310.43q0-6.79,6.56-6.8c187.79,0,375.58.01,563.37-.11,4.66,0,6.17.94,6.16,5.93-.15,104.31-.15,208.62,0,312.93,0,4.93-1.44,6.02-6.16,6.01-93.98-.14-187.96-.1-281.93-.1Z"/>
</svg>