<?xml version="1.0" encoding="UTF-8"?>
<svg id="Layer_1" data-name="Layer 1" xmlns="http://www.w3.org/2000/svg" viewBox="0 0 529.94 530.08">
  <defs>
    <style>
      .cls-1 {
        fill: #cdd1de;
      }

      .cls-1, .cls-2 {
        stroke-width: 0px;
      }

      .cls-2 {
        fill: #7d70b2;
      }
    </style>
  </defs>
  <path class="cls-2" d="m0,255.29c0-54.62,0-109.25,0-163.87,0-1.11,0-2.22.01-3.33.05-6.43,3.92-12.18,9.48-15.29,1.63-.33,2.93-1.6,4.74-1.53,1.15.05,2.18-.87,3.45-.71.84.11,1.69.03,2.49.45,1.01.54,2.35.07,3.21.64.95.64,2,.86,2.98,1.33.71.34,1.28-.03,1.76-.63,3.04-3.84,6.07-7.69,9.17-11.49,3.6-4.41,7.11-8.89,10.62-13.36,3.08-3.93,6.93-6.86,11.49-8.76,3.5-1.46,7.26-1.92,11.03-1.67,2.54.17,5.07.5,7.6,1.04,2.41.51,4.84.97,7.27,1.41,2.42.44,4.82,1.07,7.21,1.67,1.57.39,3.17.56,4.74,1.04,2.35.72,4.81,1.1,7.23,1.59.89.18,1.24-.11,1.29-1.04.04-.68.02-1.37.02-2.05,0-10,.05-20-.04-30-.02-1.94.47-3.73,1.04-5.47.6-1.81,2.11-3.1,3.75-4.04,2.58-1.48,5.35-1.49,8.11-.55.66.23,1.31.33,1.98.41,1.17.14,2.39.03,3.42.84.29.23.82.18,1.24.23,1.17.12,2.37,0,3.4.82.29.23.82.17,1.24.22,1,.13,2.03.04,2.91.77.28.24.81.18,1.24.24.91.13,1.9,0,2.63.77.05.06.15.1.23.1,1.81-.02,3.43.83,5.15,1.2.73.16,1.53.04,2.11.74.17.21.63.2.97.25.9.15,1.81.1,2.63.79.45.38,1.31.28,1.98.38.84.13,1.35.98,2.31.94.84-.03,1.73.06,2.32.84,1.56.02,2.8,1.22,4.34,1.25.86.02,1.19.93,2.03.97.65.03,1.24.18,1.86.63.92.67,2.3.49,3.21,1.35,1.67.06,2.87,1.28,4.35,1.81,1.43.51,2.85,1.07,4.22,1.72,3.36,1.58,6.72,3.15,10.01,4.86,3.89,2.02,7.79,4.04,11.52,6.32,3.9,2.37,7.62,5.04,11.4,7.6,4.64,3.14,8.95,6.71,13.22,10.34,3.48,2.96,6.93,5.97,10.05,9.29,4.37,4.65,8.78,9.27,12.57,14.42,2.39,3.25,4.69,6.57,7.03,9.86,3.03,4.28,5.56,8.86,8.01,13.48,1.74,3.28,3.46,6.56,4.8,10.03.34.87.71,1.72,1.1,2.56.16.34.52.4.88.38.35-.02.77-.05.87-.4.25-.9.77-1.67,1.1-2.51.85-2.18,1.84-4.28,2.91-6.36,1.03-2.01,2.12-3.98,3.15-5.98,1.72-3.35,3.64-6.58,5.66-9.74.97-1.52,2.01-3.03,3.07-4.51,1.07-1.49,2.17-2.96,3.24-4.44,2.65-3.66,5.53-7.11,8.57-10.46,3.42-3.78,6.82-7.58,10.61-10.99,2.62-2.36,5.3-4.67,7.98-6.97,4.09-3.53,8.46-6.69,12.95-9.69,3.36-2.24,6.69-4.52,10.17-6.56,5.57-3.28,11.22-6.39,17.17-8.95,3.1-1.33,6.15-2.77,9.26-4.11,1.75-.75,3.41-1.7,5.3-2.07.95-1.1,2.63-.58,3.61-1.62,1.52-.16,2.73-1.36,4.28-1.33.96.02,1.42-.89,2.3-.98.74-.07,1.56.04,2.14-.64.1-.12.29-.24.44-.23,1.75.07,3.16-1.23,4.86-1.23,1.01,0,1.57-.94,2.56-.98.91-.04,1.86-.02,2.64-.75.26-.25.81-.2,1.23-.26.99-.15,2.02-.06,2.87-.83.26-.24.82-.15,1.24-.22.91-.14,1.84-.05,2.65-.72.34-.28.97-.23,1.48-.3,1-.14,2.02-.06,2.93-.72.37-.27.98-.25,1.48-.31,1.08-.13,2.2-.03,3.14-.83.28-.24.82-.18,1.24-.22,1.36-.12,2.66-.41,3.98-.78,2.59-.71,5.31-.59,7.6.94,1.92,1.28,3.57,2.94,3.96,5.47.23,1.44.43,2.86.43,4.32-.02,9.66,0,19.32,0,28.98,0,.6-.02,1.2,0,1.8.07,1.84.27,1.93,2.13,1.76,2.23-.2,4.3-1.04,6.47-1.47,2.66-.53,5.28-1.28,7.96-1.81,2.34-.46,4.65-1.06,6.97-1.57.66-.15,1.34-.29,2.02-.34,1.11-.1,2.18-.4,3.27-.59,3.69-.66,7.37-1.16,11.18-.75,5.37.58,9.89,2.87,14.06,6.07,1.06.81,2,1.82,2.83,2.86,3.15,3.93,6.2,7.94,9.34,11.87,2.1,2.63,4.34,5.15,6.46,7.76,1.76,2.16,3.48,4.37,5.15,6.6.43.57.86.77,1.5.61.25-.06.49-.24.73-.23,1.11.03,1.68-1.13,2.76-1.2,1-.07,1.96-.33,2.95-.64,1.69-.54,3.54-.58,5.26.15.4.17.78.33,1.2.35,2.38.12,4.28,1.48,6.13,2.7,2.26,1.49,4.11,3.5,5.36,5.97,1.36,2.69,2.26,5.5,2.11,8.57-.05,1.11,0,2.22,0,3.33,0,109.08,0,218.16,0,327.23,0,1.2.03,2.39-.02,3.59-.22,6.31-2.88,11.29-8.26,14.68-1.63,1.02-3.42,1.81-5.19,2.57-2.08.9-4.11,1.89-6.14,2.87-1.87.9-3.83,1.6-5.73,2.43-1.97.86-3.92,1.76-5.89,2.64-1.83.81-3.65,1.66-5.51,2.41-2.24.91-4.43,1.95-6.66,2.86-1.93.79-3.89,1.59-5.73,2.51-2,1-4.24,1.48-6.06,2.82-2.9.75-5.37,2.59-8.27,3.36-.71.9-1.79.85-2.75,1.09-.59,1.13-1.97.72-2.83,1.51-.68.62-1.96.43-2.68,1.25-2.36.77-4.5,2.08-6.8,2.93-2.75,1.02-5.28,2.49-8.02,3.52-2.76,1.04-5.4,2.38-8.1,3.57-4.79,2.12-9.54,4.34-14.4,6.31-4,1.62-7.82,3.62-11.8,5.28-3.51,1.47-7,2.99-10.48,4.51-3.55,1.55-7.05,3.26-10.65,4.67-2.89,1.13-5.63,2.6-8.49,3.8-3.52,1.48-7.07,2.94-10.49,4.68-1.78.91-3.7,1.53-5.55,2.32-1.99.85-3.96,1.75-5.94,2.62-1.15.5-2.31.97-3.45,1.49-1.94.88-3.91,1.73-5.8,2.71-.96.5-2.21.32-2.93,1.33-2.88.8-5.4,2.49-8.25,3.38-.67.21-1.19.94-2,.88-.8-.06-1.02.91-1.75.91-.83,0-1.36.72-2.05.91-.98.27-1.82.87-2.74,1.1-1.01.25-1.68,1.08-2.71,1.2-1,.12-1.66,1.19-2.77,1.09-1,1.12-2.61.9-3.78,1.83-1.01.81-2.52.95-3.73,1.55-1.98.98-4.14,1.2-6.23,1.18-2.09-.02-4.25-.18-6.23-1.19-1.42-.72-2.81-.68-4.35.15-1.78.96-3.77,1.57-5.87,1.55-1.03,0-2.05.04-3.08.04-16.5,0-32.99,0-49.49,0-1.03,0-2.05-.04-3.08-.03-2.19.02-4.25-.62-6.11-1.62-1.46-.78-2.78-.75-4.13-.16-2.74,1.2-5.57,1.29-8.5,1.09-2.89-.2-5.31-1.68-7.94-2.58-.42-.8-1.18-.91-1.96-.93-.76-.02-1.09-.73-1.75-.97-2.16-.78-4.31-1.63-6.32-2.79-.85-.49-2-.38-2.73-1.21-1.21.14-1.86-1.15-3-1.17-1.05-.02-1.67-1.15-2.76-1.08-2.53-1.57-5.51-2.17-8.03-3.78-.8-.51-2.01-.28-2.71-1.16-1.11.07-1.82-.97-2.82-1.07-1.16-.11-1.79-1.26-2.93-1.3-2.59-1.53-5.43-2.51-8.15-3.74-3.1-1.4-6.22-2.78-9.36-4.08-2.77-1.15-5.55-2.31-8.3-3.51-3.38-1.47-6.72-3.08-10.08-4.62-2.62-1.2-5.29-2.29-7.94-3.44-2.72-1.17-5.45-2.34-8.17-3.52-2.79-1.21-5.6-2.36-8.34-3.69-2.8-1.36-5.67-2.56-8.53-3.78-2.87-1.23-5.72-2.49-8.58-3.75-3.48-1.53-6.95-3.08-10.43-4.62-1.78-.79-3.58-1.53-5.32-2.39-2.21-1.09-4.49-2.09-6.76-3-1.99-.8-3.8-2.09-5.97-2.44-1.72-1.37-4.08-1.4-5.78-2.81-1.17.07-1.89-1.06-2.97-1.15-1.14-.09-1.82-1.32-3.03-1.17-.86-.83-2.12-.83-3.06-1.57-.77-.6-2-.32-2.69-1.2-1.35.02-2.31-.96-3.44-1.45-1.12-.49-2.41-.73-3.35-1.63-2.16-.47-4.06-1.6-6.04-2.48-3.48-1.56-7.01-3.03-10.48-4.63-2.73-1.26-5.53-2.39-8.33-3.53-2.63-1.07-5.16-2.4-7.75-3.6-1.52-.7-3.11-1.25-4.55-2.18-3.07-1.97-5.35-4.63-6.76-7.91-.68-1.58-1.32-3.31-1.35-5.13-.02-1.45-.05-2.91-.05-4.36C0,365.06,0,310.18,0,255.29Zm512.33.33c0-54.36,0-108.72,0-163.09,0-.77.02-1.54,0-2.31-.03-1.28-.3-1.46-1.58-1-.79.28-1.55.67-2.33,1.01-2.86,1.26-5.71,2.52-8.57,3.76-3.49,1.51-6.99,3.02-10.49,4.49-2.64,1.11-5.21,2.35-7.82,3.53-2.05.92-4.13,1.79-6.18,2.71-1.98.89-3.95,1.78-5.92,2.67-1.76.79-3.46,1.73-5.28,2.32-2.16.69-4.04,2-6.24,2.55-.84.91-2.32.55-3.11,1.55-1.23.01-1.89,1.41-3.18,1.29-.78.92-2.09.69-2.94,1.29-.67.47-1.45.48-2.04.87-.65.43-1.25.86-2.02.89-.61.03-.72.7-1.24.81-.58.12-1.21.19-1.72.45-1.32.68-2.63,1.33-4.02,1.9-.98.4-2.11.64-2.92,1.23-1.05.77-2.41.64-3.4,1.57-.46.44-1.39.29-2.01.89-.57.55-1.73.12-2.22,1.04-1.12.13-1.95,1.02-3.01,1.22-1.26.24-2.14,1.41-3.5,1.3-1.82,1.43-4.07,1.97-6.11,2.94-2.89,1.38-5.85,2.62-8.79,3.89-2.71,1.17-5.45,2.26-8.15,3.44-2.78,1.22-5.51,2.57-8.31,3.72-1.95.8-3.74,1.89-5.73,2.64-2.69,1-5.29,2.25-7.92,3.4-4.43,1.93-8.85,3.86-13.27,5.8-1.78.78-3.66,1.39-5.32,2.37-1.96,1.15-4.11,1.81-6.13,2.78-1.95.94-4.04,1.6-5.99,2.55-1.86.91-3.77,1.72-5.65,2.57-1.9.85-3.77,1.82-5.81,2.34-.74,1.07-2.31.6-3.08,1.63-1.25.01-2.09,1.02-3.25,1.3-1.04.25-1.91,1.02-3,1.21-.7,1.11-2.23.7-3.01,1.66-2.26.34-3.99,2.05-6.24,2.41-.46.78-1.27.8-2.02.91-.77.12-1.1,1.04-2,.99-.97-.05-1.31.76-1.42,1.51-.14.92-.09,1.87-.09,2.81,0,75.9,0,151.8,0,227.71,0,32.91,0,65.82,0,98.72,0,.94.02,1.88.07,2.82.04.56.6.89,1.13.65,1.07-.48,2.11-1.01,3.18-1.48,1.9-.85,3.81-1.7,5.72-2.52,1.91-.82,3.85-1.58,5.76-2.41,2.82-1.23,5.64-2.48,8.43-3.79,1.14-.53,2.36-.87,3.49-1.39,1.27-.58,2.51-1.25,3.78-1.82,3.55-1.59,7.11-3.16,10.67-4.72,2.72-1.19,5.45-2.33,8.17-3.52,2.79-1.22,5.55-2.52,8.35-3.71,1.79-.77,3.57-1.54,5.3-2.45,1.86-.98,3.92-1.57,5.84-2.43,4.69-2.1,9.34-4.27,14.13-6.14,2.43-.95,4.77-2.13,7.18-3.14,2.38-1.01,4.55-2.51,7.11-3.11,1.63-1.34,3.86-1.46,5.52-2.74,1.21.16,1.87-1.05,2.99-1.18,1.08-.12,1.83-1.19,3-1.15,1.74-1.32,4.06-1.44,5.78-2.79,2.14-.42,3.96-1.66,5.95-2.45,2.02-.81,4.01-1.85,6.02-2.71,2.68-1.14,5.32-2.4,8.02-3.49,2.22-.9,4.42-1.91,6.64-2.87,1.91-.83,3.79-1.74,5.7-2.59,1.9-.84,3.8-1.66,5.71-2.47,1.85-.78,3.82-1.36,5.55-2.35,2.58-1.48,5.35-2.51,8.03-3.74,5.31-2.44,10.75-4.6,16.09-6.97,3.32-1.47,6.69-2.81,9.91-4.52,2.59-1.38,5.44-2.29,8.17-3.41,1.11-.46,1.86-1.14,1.65-2.5-.09-.59-.01-1.19-.01-1.79v-163.34Zm-291.71,89.15c0-54.53,0-109.06,0-163.59,0-.77.02-1.54-.02-2.31-.05-.92-.35-1.75-1.44-1.74-.96.01-1.43-.85-2.27-1.06-1.92-.48-3.48-1.91-5.49-2.23-.79-1.16-2.47-.62-3.29-1.72-1.36.09-2.13-1.31-3.45-1.34-.75-.76-1.84-.78-2.72-1.24-2-1.04-4.12-1.81-6.16-2.76-1.96-.91-3.95-1.76-5.93-2.63-1.92-.83-3.82-1.71-5.76-2.46-1.95-.75-3.87-1.6-5.78-2.43-2.12-.92-4.22-1.93-6.32-2.92-2.83-1.33-5.69-2.59-8.56-3.84-2.63-1.15-5.29-2.22-7.92-3.36-2.79-1.21-5.55-2.49-8.32-3.72-2.08-.93-4.18-1.82-6.27-2.74-2.7-1.2-5.38-2.43-8.08-3.63-3.25-1.44-6.5-2.87-9.75-4.29-3.02-1.31-6.05-2.6-9.06-3.91-1.53-.67-3.2-1.05-4.45-2.28-1.51.08-2.51-1.35-4-1.36-.81-1.11-2.49-.57-3.27-1.72-1.31,0-2.3-.92-3.45-1.36-.99-.38-2.24-.58-2.94-1.25-.83-.8-1.94-.43-2.73-1.21-.74-.74-2.1-.52-2.88-1.39-2.16-.38-4.01-1.6-5.96-2.47-1.93-.87-3.99-1.5-5.84-2.62-.61-.37-1.41-.36-2-.96-.52-.52-1.39-.45-2.09-.79-2.69-1.31-5.49-2.42-8.24-3.6-1.07-.46-2.14-.89-3.2-1.36-1.98-.88-3.92-1.84-5.92-2.67-1.92-.8-3.81-1.66-5.73-2.46-1.97-.82-3.93-1.73-5.86-2.71-2.56-1.29-5.29-2.23-7.92-3.39-5.49-2.44-10.95-4.95-16.52-7.22-.7-.28-1.34-.71-2.1-.88-.98-.22-1.3-.05-1.34.86-.03.68-.01,1.37-.01,2.05,0,109.15,0,218.3,0,327.45,0,.6.03,1.2,0,1.79-.03.58.17.97.68,1.24.45.23.85.57,1.31.78,3.63,1.61,7.27,3.19,10.91,4.79,4.41,1.94,8.82,3.89,13.24,5.83,3.55,1.56,7.1,3.16,10.67,4.66,3.33,1.4,6.54,3.05,9.84,4.5,3.12,1.37,6.25,2.72,9.38,4.05,2.77,1.17,5.56,2.34,8.32,3.53,3.44,1.48,6.91,2.93,10.27,4.6.87.44,1.76,1.03,2.66,1.22,1.25.27,2.15,1.37,3.48,1.32,2.49,1.64,5.49,2.23,8.01,3.82,1.33,0,2.21,1.26,3.54,1.26.94,1.02,2.54.74,3.47,1.78,1.11-.07,1.78,1.11,2.75,1.1,1.15,0,1.68,1.11,2.75,1.15,1.01.04,1.6,1.26,2.73,1.08.77.94,2.1.64,2.94,1.26,1.8,1.33,3.94,1.88,5.9,2.82,2.89,1.38,5.85,2.62,8.79,3.91,1.7.75,3.41,1.5,5.11,2.23,2.87,1.23,5.75,2.43,8.61,3.68,2.16.94,4.29,1.94,6.44,2.9,2.55,1.13,5.1,2.24,7.65,3.37,3.55,1.57,7.1,3.14,10.65,4.71,3.64,1.61,7.27,3.21,10.9,4.83,1.76.79,3.46,1.73,5.27,2.38,2.12.76,4.12,1.8,6.2,2.65,2.01.83,3.99,1.73,5.99,2.59,1.92.82,3.85,1.62,5.76,2.46,1.97.87,3.9,1.85,5.9,2.62.65.25,1.13.74,1.78.94.55.18,1.05-.09,1.08-.68.04-.94.05-1.88.05-2.82,0-54.36,0-108.72,0-163.08Zm23.19-185.51c3.24,0,5.46,0,7.68,0,.85,0,1.71.02,2.56-.01,1.56-.06,1.98-.47,2.06-1.97.02-.43,0-.85,0-1.28,0-3.93-.12-7.87.04-11.79.11-2.74-.76-4.99-2.53-6.98-.22-.25-.47-.48-.71-.72-3.89-4.03-7.95-7.87-12.4-11.3-2.47-1.9-5.04-3.67-7.55-5.52-2.68-1.98-5.53-3.71-8.2-5.71-1.66-1.24-3.52-2.18-5.29-3.25-1.98-1.19-3.85-2.6-5.86-3.74-3.83-2.16-7.68-4.3-11.5-6.48-3.82-2.18-7.77-4.13-11.71-6.09-4.16-2.07-8.36-4.07-12.57-6.04-1.6-.75-3.16-1.6-4.77-2.28-2.79-1.18-5.57-2.42-8.39-3.55-4.31-1.72-8.57-3.57-12.94-5.14-4.14-1.49-8.22-3.15-12.36-4.63-1.03-.37-2.08-.65-3.02-1.24-1.67.13-2.91-1.37-4.59-1.24-.16.01-.39-.03-.48-.14-.75-.92-2-.47-2.8-.99-.92-.6-1.91-.62-2.85-.93-1.36-.45-2.66-1.03-4.11-1.17-.68-.84-1.68-.68-2.58-.84-.33-.06-.79-.04-.97-.24-.65-.77-1.55-.6-2.37-.76-.42-.08-.98-.01-1.23-.26-.76-.75-1.72-.64-2.62-.79-.33-.06-.79-.03-.97-.24-.66-.77-1.55-.6-2.37-.74-.58-.1-1.33-.03-1.71-.37-.67-.58-1.41-.52-2.15-.65-.5-.09-1.16,0-1.49-.28-.87-.75-1.89-.65-2.88-.79-.42-.06-.95,0-1.24-.23-.95-.76-2.06-.68-3.15-.8-.42-.05-.96.01-1.25-.22-.95-.77-2.07-.68-3.15-.8-.42-.05-.93-.01-1.25-.23-1.06-.73-2.26-.68-3.43-.8-.42-.04-.96.02-1.25-.21-1.09-.88-2.43-.62-3.63-.94-1.98-.53-3.96-.99-6.01-1.09-.4-.02-.78-.33-1.19-.43-2.86-.69-5.74-.76-8.64-.31-.17.03-.36.05-.49.15-1.19.92-2.53,1.6-3.47,2.86-1.57,2.11-3.3,4.1-4.94,6.16-2.3,2.87-4.6,5.75-6.89,8.63-1.77,2.22-3.54,4.44-5.3,6.67-.63.79-.63,1.08.28,1.58,1.17.65,2.41,1.17,3.64,1.72,2.08.93,4.16,1.83,6.24,2.75,2,.89,4,1.8,6,2.7,2.78,1.24,5.55,2.49,8.34,3.71,3.33,1.46,6.68,2.91,10.02,4.35,2.88,1.24,5.77,2.45,8.63,3.72,1.83.81,3.61,1.73,5.43,2.55,2.05.91,4.12,1.76,6.18,2.64,2,.86,4.01,1.7,5.99,2.59,1.83.82,3.76,1.45,5.55,2.31,2.1,1.01,4.25,1.88,6.37,2.82,1.74.77,3.36,1.83,5.24,2.28.97,1,2.36,1.21,3.55,1.7,1.91.78,3.65,1.97,5.7,2.4.61,1.14,1.98.67,2.88,1.39.86.68,2.12.91,3.19,1.37.69.29,1.34.6,2,.96.63.35,1.56.09,2,.91,1.27.15,2.23,1.06,3.46,1.41,1.02.28,1.9,1.04,3.02,1.13,1.91,1.35,4.19,1.92,6.25,2.96,2.78,1.41,5.67,2.6,8.53,3.85,3.4,1.48,6.82,2.91,10.22,4.39,2.78,1.21,5.55,2.45,8.33,3.68,2.08.92,4.16,1.85,6.24,2.77,2.71,1.2,5.42,2.4,8.13,3.6,3.41,1.51,6.82,3.01,10.24,4.51,2.09.91,4.15,1.88,6.29,2.67,2.21.81,4.3,1.9,6.4,2.91,2.63,1.26,5.41,2.15,7.95,3.61.96.55,2.11.36,3.18-.26,1.67-.97,3.44-1.62,5.44-1.74,2.99-.17,5.97-.23,7.95-.21Zm241.69-78.89c-.06-.17-.08-.35-.18-.48-1.31-1.66-2.56-3.38-3.96-4.95-1.44-1.62-2.36-3.67-4.15-5-3.21-4.04-6.41-8.09-9.62-12.13-1.3-1.63-2.91-2.71-5.05-2.91-1.11-.1-2.21-.07-3.32-.06-3.01.03-5.8,1.39-8.8,1.37-1.32.69-2.77.79-4.22.9-.34.03-.8.02-.97.23-.73.84-1.72.63-2.62.76-.67.1-1.5-.05-2,.29-1,.68-2.08.65-3.16.78-.42.05-.95,0-1.24.24-.88.72-1.91.63-2.9.76-.5.07-1.13,0-1.48.27-.82.63-1.74.63-2.66.75-.42.05-.97,0-1.24.23-.93.82-2.06.7-3.14.84-.34.04-.78,0-.99.2-.83.81-1.89.68-2.88.8-.51.06-1.01.1-1.42.48-.48.44-1.1.41-1.69.5-.51.08-1.13-.01-1.49.25-1.49,1.11-3.47.63-4.99,1.67-.51.35-1.47.04-1.96.4-.75.54-1.51.81-2.36.76-1.02-.06-1.64.96-2.56.93-1.69-.06-2.93,1.37-4.62,1.23-1.04.82-2.43.7-3.53,1.26-.79.4-1.54.66-2.39.75-.96.1-1.58.91-2.54,1.12-1.47.33-2.88.97-4.3,1.49-2.3.84-4.61,1.68-6.9,2.55-3.16,1.2-6.31,2.43-9.46,3.67-2.13.83-4.25,1.66-6.36,2.54-2.65,1.11-5.35,2.13-7.9,3.46-1.95,1.02-3.95,1.91-5.92,2.87-3.87,1.9-7.85,3.59-11.67,5.58-4.91,2.55-9.85,5.04-14.61,7.88-2.64,1.58-5.47,2.85-8.03,4.52-4.58,3-9.37,5.67-13.83,8.87-4.26,3.06-8.66,5.94-12.76,9.21-2.38,1.9-4.71,3.88-6.96,5.92-1.96,1.78-3.83,3.68-5.68,5.58-2.2,2.27-3.34,4.94-3.2,8.21.16,3.67.03,7.35.04,11.03,0,.68.03,1.37.15,2.04.14.74.66,1.14,1.45,1.2.6.04,1.2.02,1.79.02,3.93,0,7.86-.04,11.8.02,2.13.03,4.26.2,6.39.35.5.03,1.12.06,1.45.35.93.82,2.25.63,3.22,1.47.75.65,1.98.43,2.92-.08,1.33-.73,2.68-1.36,4.12-1.84,1.11-.38,2.19-.87,3.25-1.37,1.82-.85,3.58-1.82,5.42-2.62,4.35-1.88,8.8-3.53,13.06-5.58,5.1-2.45,10.39-4.46,15.47-6.96,5.3-2.6,10.81-4.76,16.22-7.15,4.64-2.04,9.32-3.98,13.96-6.04.99-.44,1.82-1.27,2.93-1.39,1.28-.14,2.17-1.25,3.48-1.28.49-1.12,1.87-.56,2.59-1.41.64-.76,2.07-.2,2.67-1.27.98-.2,1.86-.6,2.78-1.02.81-.38,1.54-.99,2.46-1.17,2.14-.41,3.84-1.93,5.98-2.36.84-1.05,2.4-.73,3.28-1.7,1.14.2,1.7-1.04,2.74-1.09,1.12-.05,1.78-1.3,2.98-1.16.7-1.05,2.11-.59,2.92-1.31.91-.8,2.05-1.18,3.09-1.56,2.05-.75,3.99-1.74,6-2.57,1.91-.79,3.92-1.46,5.68-2.61,1.31-.08,2.21-1.26,3.53-1.31.83-1.12,2.49-.59,3.33-1.7,3.26-1.27,6.45-2.69,9.61-4.22,3.95-1.91,8.05-3.53,12.09-5.26,4.27-1.83,8.58-3.58,12.82-5.48,3.16-1.41,6.28-2.93,9.47-4.29,2.96-1.26,5.87-2.62,8.83-3.88.74-.31,1.3-.75,1.75-1.37Zm-247.03,263.66c0,25.55,0,51.09,0,76.64q0,3.51,3.61,3.51c15.21,0,30.41,0,45.62,0,.68,0,1.37.02,2.05-.01,1.16-.06,1.79-.73,1.84-1.94.02-.51,0-1.03,0-1.54,0-50.84,0-101.67,0-152.51,0-2.75.68-3.05-3.09-3.05-12.39.02-24.77,0-37.16,0-3.59,0-7.18-.02-10.76,0-1.96.01-2.05.13-2.09,1.99-.01.68,0,1.37,0,2.05,0,24.95,0,49.9,0,74.84ZM406.41,34.46c0-3.33,0-6.66,0-9.99,0-1.02.03-2.05-.03-3.07-.06-1.09-.75-1.61-1.71-1.21-1.83.76-3.82.76-5.7,1.4-1.33.46-2.72,1.01-4.16,1.16-1.8.19-3.45.93-5.15,1.43-1.21.36-2.46.6-3.66,1.03-2.47.9-4.9,1.93-7.42,2.62-3.45.94-6.6,2.6-9.91,3.85-3.64,1.37-7.16,3.06-10.66,4.75-3.87,1.87-7.74,3.77-11.44,5.98-2.21,1.32-4.33,2.78-6.52,4.12-2.68,1.64-5.28,3.35-7.85,5.15-5.35,3.74-10.29,7.98-15.16,12.31-3.11,2.76-5.99,5.75-8.8,8.83-4.15,4.56-8.14,9.23-11.55,14.38-1.71,2.59-3.55,5.09-5.2,7.73-1.64,2.6-3.02,5.34-4.58,7.98-.38.64-.49,1.43-1.07,2-.1.1-.03.5.09.68.15.22.45.22.69.09.29-.16.58-.33.86-.51,2.34-1.58,4.69-3.15,7.02-4.74,7-4.77,14.38-8.9,21.66-13.22,4.63-2.75,9.39-5.25,14.2-7.67,4.52-2.27,9.03-4.57,13.58-6.77.75-.36,1.43-.8,2.16-1.17.64-.33,1.36-.4,2-.93.59-.49,1.66-.26,2.18-1.08,1.36.11,2.32-.91,3.5-1.32,1.07-.37,2.2-.77,3.16-1.35,1.08-.65,2.28-1.07,3.4-1.47,1.24-.45,2.29-1.47,3.72-1.38.71-1.18,2.18-.63,3.16-1.41.93-.73,2.41-.56,3.42-1.39,1.13.18,1.76-.97,2.79-1.06,1.44-.13,2.55-1.29,4.04-1.28.66-.85,1.69-.65,2.55-.94.85-.28,1.58-.81,2.46-1.11,1.26-.43,2.61-.68,3.79-1.3,1.36-.7,2.95-.7,4.24-1.55,1.67.05,2.99-1.22,4.65-1.21,1.08-.77,2.45-.69,3.59-1.18,1.87-.8,3.85-1.15,5.76-1.72.88-.26,1.25-.77,1.63-1.39.38-.61.23-1.33.23-2.01,0-4.01,0-8.03,0-12.04ZM124.92,20.02c-.61.08-1.01.27-1.09.75-.09.5-.1,1.02-.1,1.53,0,8.2,0,16.4,0,24.6,0,.59.04,1.2.19,1.77.16.58.47,1.04,1.21,1.14,2.01.27,3.85,1.18,5.78,1.71,1.54.43,3.04.95,4.58,1.39,1.54.44,3.18.69,4.59,1.39,1.38.68,3,.63,4.24,1.6,1.36-.14,2.3,1.01,3.6,1.13,1.33.12,2.31,1.39,3.75,1.25.75.81,1.89.63,2.75,1.08.85.44,1.79.56,2.56.97.91.48,1.79.86,2.79,1,.16.02.33.11.45.22,1.04.89,2.41,1.12,3.61,1.53,1.25.42,2.31,1.45,3.73,1.33,1.81,1.34,4.17,1.49,6,2.8,1.03-.09,1.59.98,2.5,1.07,1.38.14,2.33,1.38,3.74,1.38,1.78,1.2,3.81,1.89,5.71,2.87,3.08,1.58,6.31,2.87,9.37,4.49,6.33,3.35,12.79,6.44,18.91,10.17,5.16,3.15,10.46,6.09,15.61,9.26,4.06,2.5,8.06,5.1,11.92,7.91.67.49,1.43.88,2.16,1.29.11.06.34,0,.44-.08.11-.1.22-.34.17-.44-.83-1.64-1.69-3.27-2.54-4.91-1.95-3.73-4.32-7.21-6.63-10.72-4.52-6.85-9.79-13.08-15.34-19.1-2.6-2.82-5.37-5.47-8.28-7.96-3.37-2.89-6.78-5.73-10.29-8.45-5.07-3.93-10.54-7.3-15.97-10.7-2-1.25-4.08-2.38-6.18-3.46-5.32-2.73-10.64-5.45-16.23-7.6-1.89-.73-3.86-1.33-5.62-2.3-1.42-.79-2.94-1.28-4.42-1.85-2.52-.98-5.18-1.57-7.72-2.49-3.11-1.13-6.34-1.88-9.48-2.89-1.95-.63-4-.81-5.91-1.56-1.5-.6-3.23-.32-4.54-1.13Zm140.08,492.52c7.95,0,15.89,0,23.84,0,3.11,0,2.75-.11,2.76-2.84.01-9.83,0-19.66,0-29.48,0-3.01,0-3.02-2.93-3.03-15.81,0-31.62,0-47.43,0-2.73,0-2.75.02-2.75,2.67,0,10,0,20,0,30,0,.6.03,1.19.08,1.79.04.48.32.8.8.83.77.05,1.54.06,2.3.06,7.78,0,15.55,0,23.33,0Zm.13-335.56c-8.03,0-16.06,0-24.09,0-2.54,0-2.54.02-2.56,2.56,0,.17,0,.34,0,.51,0,9.57,0,19.13,0,28.7,0,.6-.02,1.2.03,1.79.1,1.13.5,1.53,1.58,1.61.51.04,1.02.02,1.54.02,15.54,0,31.09-.02,46.63.02,3.3,0,3.36-.43,3.35-3.26-.03-9.65,0-19.3-.02-28.96,0-2.63.63-3.01-2.89-3-7.86.03-15.72,0-23.57,0Zm0,70.49c7.77,0,15.54,0,23.32,0,.77,0,1.54-.03,2.3-.11.44-.05.79-.32.81-.83.03-.68.05-1.37.05-2.05,0-3.93.02-7.86,0-11.79-.01-2.54.52-2.79-2.81-2.79-15.89.01-31.77,0-47.66,0-.6,0-1.2.01-1.79.07-.48.04-.76.36-.81.83-.05.42-.05.85-.05,1.28,0,4.27-.01,8.54,0,12.81,0,2.54.03,2.54,2.56,2.57.43,0,.85,0,1.28,0,7.6,0,15.2,0,22.8,0Zm-.26,212.15c7.77,0,15.53,0,23.3,0,.6,0,1.2.02,1.79-.01.8-.04,1.47-.59,1.59-1.34.06-.33.04-.68.04-1.02,0-4.44.01-8.88,0-13.31,0-1.53-.26-1.79-1.72-1.88-.43-.03-.85,0-1.28,0-15.7,0-31.41,0-47.11,0-.6,0-1.2-.01-1.79.04-.86.07-1.19.41-1.19,1.33-.02,4.69-.04,9.39,0,14.08.02,1.84.36,2.09,2.31,2.12.34,0,.68,0,1.02,0,7.68,0,15.36,0,23.04,0Z"/>
  <path class="cls-1" d="m512.33,255.63v163.34c0,.6-.07,1.21.01,1.79.2,1.36-.54,2.04-1.65,2.5-2.73,1.12-5.57,2.03-8.17,3.41-3.22,1.71-6.59,3.06-9.91,4.52-5.35,2.36-10.78,4.53-16.09,6.97-2.68,1.23-5.45,2.26-8.03,3.74-1.73.99-3.69,1.57-5.55,2.35-1.91.81-3.82,1.63-5.71,2.47-1.91.85-3.79,1.76-5.7,2.59-2.21.96-4.41,1.98-6.64,2.87-2.71,1.09-5.34,2.36-8.02,3.49-2.01.85-4,1.9-6.02,2.71-1.99.8-3.81,2.04-5.95,2.45-1.73,1.35-4.04,1.47-5.78,2.79-1.17-.04-1.92,1.03-3,1.15-1.12.13-1.78,1.34-2.99,1.18-1.66,1.28-3.89,1.4-5.52,2.74-2.56.6-4.72,2.11-7.11,3.11-2.41,1.02-4.75,2.19-7.18,3.14-4.79,1.87-9.44,4.04-14.13,6.14-1.93.86-3.98,1.45-5.84,2.43-1.73.91-3.5,1.69-5.3,2.45-2.8,1.2-5.56,2.49-8.35,3.71-2.72,1.19-5.45,2.33-8.17,3.52-3.56,1.56-7.12,3.13-10.67,4.72-1.28.57-2.52,1.23-3.78,1.82-1.13.52-2.35.86-3.49,1.39-2.79,1.31-5.61,2.55-8.43,3.79-1.91.83-3.85,1.59-5.76,2.41-1.92.82-3.82,1.67-5.72,2.52-1.07.48-2.11,1.01-3.18,1.48-.52.23-1.09-.09-1.13-.65-.06-.94-.07-1.88-.07-2.82,0-32.91,0-65.82,0-98.72,0-75.9,0-151.8,0-227.71,0-.94-.05-1.89.09-2.81.11-.75.45-1.56,1.42-1.51.9.05,1.23-.87,2-.99.75-.12,1.56-.14,2.02-.91,2.25-.36,3.98-2.07,6.24-2.41.78-.96,2.31-.56,3.01-1.66,1.09-.2,1.96-.96,3-1.21,1.16-.28,2.01-1.28,3.25-1.3.77-1.02,2.33-.55,3.08-1.63,2.04-.52,3.91-1.49,5.81-2.34,1.89-.85,3.79-1.65,5.65-2.57,1.94-.96,4.03-1.61,5.99-2.55,2.02-.97,4.17-1.63,6.13-2.78,1.66-.98,3.54-1.6,5.32-2.37,4.42-1.93,8.85-3.87,13.27-5.8,2.64-1.15,5.24-2.39,7.92-3.4,1.98-.74,3.78-1.83,5.73-2.64,2.81-1.16,5.53-2.51,8.31-3.72,2.7-1.18,5.44-2.28,8.15-3.44,2.94-1.27,5.9-2.51,8.79-3.89,2.04-.97,4.3-1.51,6.11-2.94,1.36.11,2.24-1.06,3.5-1.3,1.06-.2,1.89-1.09,3.01-1.22.49-.92,1.65-.49,2.22-1.04.62-.61,1.55-.45,2.01-.89.98-.93,2.34-.8,3.4-1.57.8-.59,1.94-.83,2.92-1.23,1.38-.56,2.7-1.22,4.02-1.9.52-.27,1.14-.33,1.72-.45.52-.11.63-.78,1.24-.81.77-.03,1.37-.46,2.02-.89.59-.38,1.37-.4,2.04-.87.86-.6,2.16-.37,2.94-1.29,1.28.13,1.95-1.27,3.18-1.29.79-1.01,2.27-.64,3.11-1.55,2.2-.55,4.08-1.86,6.24-2.55,1.82-.58,3.53-1.53,5.28-2.32,1.97-.89,3.95-1.78,5.92-2.67,2.05-.92,4.13-1.79,6.18-2.71,2.61-1.17,5.18-2.42,7.82-3.53,3.51-1.47,7-2.98,10.49-4.49,2.86-1.24,5.71-2.51,8.57-3.76.77-.34,1.53-.72,2.33-1.01,1.27-.46,1.54-.27,1.58,1,.02.77,0,1.54,0,2.31,0,54.36,0,108.72,0,163.09Zm-185.33,18.2c0,14.02,0,28.03,0,42.05,0,1.37.05,2.73.13,4.1.03.5.09,1.06.34,1.48.9,1.51,1.81,3.01,3.43,3.94,2.04,1.17,4.11,1.9,6.53,1.27,1.65-.43,3.25-1.04,4.74-1.79,5.58-2.81,11.33-5.25,16.96-7.94,4.04-1.93,8.09-3.85,12.13-5.77,4.03-1.91,8.06-3.81,12.1-5.72,3.42-1.61,6.85-3.22,10.27-4.84.74-.35,1.49-.61,2.19-1.14.65-.5,1.59-.85,2.42-1.14,1.97-.7,3.87-1.61,5.7-2.53,2.55-1.29,5.21-2.35,7.75-3.67,1.74-.9,3.61-1.63,5.37-2.49,1.85-.9,3.86-1.51,5.58-2.68,1.12.11,1.7-1.01,2.75-1.17,1.05-.16,1.92-.93,2.86-1.42,2.43-1.26,4.91-2.41,7.4-3.54,2.05-.93,4.07-1.94,6.14-2.84,2.35-1.02,4.61-2.25,6.93-3.33,3.02-1.39,6.05-2.75,9.01-4.27,2.99-1.54,6.12-2.82,9.17-4.23,4.07-1.88,8.15-3.76,12.2-5.69,3.2-1.52,6.33-3.18,9.55-4.65.86-.39,1.67-.87,2.41-1.39,1.29-.91,2.3-2.05,2.91-3.65.6-1.57.82-3.09.82-4.71-.01-28.46,0-56.92-.01-85.38,0-.77.04-1.55-.07-2.3-.24-1.77-.9-3.41-2.02-4.78-.63-.77-1.43-1.48-2.3-1.96-2.39-1.31-4.9-1.94-7.57-.72-3,1.37-6.01,2.72-9.02,4.07-2.37,1.06-4.62,2.36-6.97,3.44-2.81,1.29-5.61,2.59-8.41,3.91-2.39,1.13-4.8,2.25-7.2,3.37-3.34,1.55-6.73,2.98-10.03,4.61-.61.3-1.42.35-1.79.8-.56.68-1.24.78-1.97.98-.63.17-.93,1.05-1.71.91-.92-.16-1.25.77-2,.97-1.94.52-3.66,1.6-5.46,2.43-2.01.92-4.01,1.88-6,2.86-.97.48-2.03.74-2.95,1.25-1.79,1-3.66,1.82-5.51,2.67-1.72.79-3.3,1.9-5.18,2.33-1.63,1.4-3.73,1.89-5.6,2.83-3.98,2-8.1,3.74-12.13,5.63-5.02,2.36-10.02,4.77-15.03,7.15-3.82,1.82-7.64,3.64-11.52,5.33-3.34,1.45-6.52,3.27-9.86,4.72-3.3,1.43-6.5,3.06-9.76,4.58-3.64,1.69-7.23,3.48-10.92,5.05-1.2.51-2.41,1.13-3.42,1.95-1.94,1.57-3.45,3.47-3.34,6.21.04,1.11-.03,2.22-.03,3.33,0,13.85,0,27.69,0,41.54Zm.05,88.41c-.25,2.78.88,5.01,3.03,6.8,1.18.98,2.35,1.86,4.01,1.92,2.22.08,4.44.31,6.33-1.23,4.51-2.09,9.01-4.2,13.53-6.28,2.54-1.17,5.17-2.14,7.61-3.49,2.42-1.34,5.21-1.95,7.39-3.73,2.61-.81,4.89-2.34,7.42-3.33.99-.39,2-.78,2.96-1.26,1.99-.99,3.99-1.94,6.01-2.87.9-.41,1.77-.85,2.72-1.15.46-1.1,1.8-.61,2.54-1.45.52-.59,1.61-.82,2.43-1.11.97-.34,1.8-.91,2.75-1.23,1.96-.67,3.69-1.82,5.58-2.64,1.81-.79,3.55-1.73,5.34-2.57,1.88-.89,3.78-1.74,5.67-2.61,1.82-.84,3.62-1.72,5.45-2.53,1.75-.77,3.55-1.47,5.24-2.32,2.74-1.39,5.53-2.67,8.27-4.05,1.81-.91,3.66-1.76,5.49-2.63,3.8-1.8,7.56-3.72,11.43-5.36,5.82-2.48,11.39-5.46,17.13-8.08,3.91-1.78,7.76-3.7,11.65-5.53,3.75-1.76,7.55-3.39,11.26-5.24,2.71-1.35,5.02-3.07,6.06-6.24.9-2.73.21-4.76-1.15-7.13-1.16-2.02-3.11-3.18-5.24-3.92-1.37-.48-2.96-.55-4.28.03-1.22.54-2.52.89-3.7,1.59-1.1.66-2.31,1.22-3.55,1.69-1.23.47-2.39,1.15-3.59,1.71-.97.45-2.01.78-2.92,1.32-1.7,1-3.5,1.81-5.29,2.55-1.93.79-3.86,1.63-5.68,2.56-2.4,1.23-4.84,2.39-7.27,3.52-2.79,1.3-5.53,2.72-8.34,3.98-2.38,1.07-4.69,2.28-7.05,3.37-3.45,1.6-6.92,3.13-10.37,4.73-2.75,1.28-5.47,2.61-8.19,3.93-1.75.84-3.48,1.72-5.24,2.54-4.06,1.89-8.14,3.75-12.2,5.64-3.37,1.57-6.75,3.1-10.07,4.76-2.96,1.48-5.91,3.01-8.94,4.32-2.68,1.17-5.41,2.27-7.99,3.6-3.92,2.02-8.01,3.64-11.93,5.66-1.24.64-2.55,1.16-3.78,1.85-1.23.68-2.66,1.01-3.86,1.72-2.48,1.48-5.2,2.44-7.77,3.69-1.75.85-3.57,1.66-5.37,2.45-2.11.92-4.24,1.86-6.29,2.93-.88.46-1.93.69-2.68,1.24-2.61,1.91-4.78,4.19-4.53,7.87Zm26.48,44.64c1.08-.11,1.84.02,2.57-.37,1.75-.92,3.58-1.7,5.38-2.49,2.55-1.12,5.02-2.46,7.66-3.39.45-.16.8-.58,1.24-.79.45-.21,1.09-.15,1.43-.45,1.48-1.3,3.51-1.53,5.04-2.69,2.17-.43,3.95-1.78,5.95-2.61,1.9-.79,3.72-1.78,5.59-2.65,1.81-.84,3.67-1.58,5.45-2.44,3.43-1.65,6.89-3.24,10.3-4.94,1.74-.87,3.52-1.67,5.29-2.49,3.37-1.57,6.74-3.13,10.11-4.71,2.53-1.19,5.04-2.4,7.56-3.6,3.95-1.89,7.89-3.81,11.85-5.67,4.05-1.9,8.18-3.62,12.17-5.63,3.83-1.93,7.92-3.31,11.51-5.71,2.65-.72,4.94-2.26,7.46-3.29.9-.37,1.91-.72,2.66-1.28,4.11-3.06,5.43-7.46,3.32-11.45-1.51-2.85-3.71-4.64-7.12-4.8-2.37-.11-4.46.51-6.53,1.56-2.61,1.32-5.27,2.54-7.95,3.72-1.73.76-3.24,1.99-5.13,2.39-2.31,1.6-4.97,2.54-7.5,3.66-2.56,1.14-4.93,2.72-7.68,3.41-.53.94-1.82.54-2.37,1.23-.66.83-1.78.41-2.45,1.21-.57.68-1.79.44-2.37,1.28-2.43.86-4.7,2.05-7,3.21-3.53,1.79-7.11,3.49-10.73,5.1-3.01,1.34-6,2.7-8.96,4.14-3.01,1.46-6.07,2.84-9.07,4.34-5.06,2.52-10.23,4.82-15.35,7.21-2.76,1.29-5.49,2.67-8.3,3.84-2.8,1.17-5.47,2.59-8.21,3.86-2.03.93-4.03,1.95-6.07,2.86-1.37.61-2.72,1.28-4.04,1.99-2.46,1.33-3.66,3.63-4.35,6.17-.58,2.16.28,4.19,1.34,6.02.72,1.25,1.77,2.57,3.09,3.01,1.47.49,2.83,1.7,4.25,1.25Z"/>
  <path class="cls-1" d="m220.62,344.78c0,54.36,0,108.72,0,163.08,0,.94,0,1.88-.05,2.82-.03.59-.53.86-1.08.68-.65-.21-1.13-.69-1.78-.94-2.01-.77-3.93-1.75-5.9-2.62-1.91-.84-3.84-1.63-5.76-2.46-2-.86-3.98-1.76-5.99-2.59-2.08-.85-4.08-1.89-6.2-2.65-1.81-.65-3.51-1.59-5.27-2.38-3.63-1.62-7.27-3.23-10.9-4.83-3.55-1.57-7.1-3.14-10.65-4.71-2.55-1.12-5.1-2.23-7.65-3.37-2.15-.96-4.28-1.96-6.44-2.9-2.86-1.25-5.74-2.45-8.61-3.68-1.71-.73-3.41-1.48-5.11-2.23-2.93-1.29-5.9-2.52-8.79-3.91-1.96-.94-4.1-1.49-5.9-2.82-.84-.62-2.17-.32-2.94-1.26-1.13.18-1.72-1.04-2.73-1.08-1.07-.05-1.6-1.16-2.75-1.15-.97,0-1.64-1.18-2.75-1.1-.93-1.04-2.53-.76-3.47-1.78-1.33,0-2.21-1.26-3.54-1.26-2.52-1.59-5.51-2.18-8.01-3.82-1.33.06-2.22-1.04-3.48-1.32-.9-.2-1.79-.79-2.66-1.22-3.36-1.68-6.84-3.12-10.27-4.6-2.76-1.19-5.55-2.35-8.32-3.53-3.13-1.33-6.27-2.68-9.38-4.05-3.3-1.45-6.51-3.1-9.84-4.5-3.58-1.51-7.12-3.1-10.67-4.66-4.41-1.94-8.82-3.89-13.24-5.83-3.63-1.6-7.28-3.18-10.91-4.79-.46-.2-.86-.54-1.31-.78-.52-.27-.72-.66-.68-1.24.03-.6,0-1.2,0-1.79,0-109.15,0-218.3,0-327.45,0-.68-.02-1.37.01-2.05.04-.91.36-1.08,1.34-.86.76.17,1.4.59,2.1.88,5.57,2.27,11.03,4.78,16.52,7.22,2.62,1.17,5.36,2.1,7.92,3.39,1.92.97,3.89,1.88,5.86,2.71,1.91.8,3.81,1.66,5.73,2.46,2,.83,3.94,1.79,5.92,2.67,1.06.47,2.14.9,3.2,1.36,2.76,1.18,5.55,2.29,8.24,3.6.71.34,1.57.27,2.09.79.6.6,1.4.59,2,.96,1.84,1.12,3.9,1.75,5.84,2.62,1.94.88,3.8,2.09,5.96,2.47.78.87,2.14.65,2.88,1.39.79.78,1.9.42,2.73,1.21.7.67,1.95.87,2.94,1.25,1.15.44,2.13,1.35,3.45,1.36.79,1.15,2.46.61,3.27,1.72,1.48.01,2.48,1.44,4,1.36,1.24,1.22,2.92,1.61,4.45,2.28,3.02,1.31,6.05,2.6,9.06,3.91,3.26,1.42,6.51,2.85,9.75,4.29,2.7,1.2,5.38,2.43,8.08,3.63,2.08.93,4.18,1.82,6.27,2.74,2.78,1.23,5.54,2.5,8.32,3.72,2.63,1.15,5.29,2.22,7.92,3.36,2.87,1.25,5.73,2.51,8.56,3.84,2.1.99,4.2,1.99,6.32,2.92,1.91.83,3.83,1.68,5.78,2.43,1.95.75,3.85,1.63,5.76,2.46,1.98.86,3.97,1.72,5.93,2.63,2.04.95,4.16,1.72,6.16,2.76.88.46,1.97.47,2.72,1.24,1.31.02,2.09,1.43,3.45,1.34.82,1.1,2.5.57,3.29,1.72,2.01.32,3.56,1.75,5.49,2.23.85.21,1.31,1.07,2.27,1.06,1.09-.01,1.39.82,1.44,1.74.04.77.02,1.54.02,2.31,0,54.53,0,109.06,0,163.59Zm-17.56-70.76c0-13.93,0-27.87,0-41.8,0-1.03-.03-2.05-.04-3.08-.05-3.53-2.11-5.8-4.97-7.35-2.77-1.5-5.68-2.74-8.55-4.05-3.5-1.59-6.95-3.29-10.44-4.9-3.29-1.52-6.55-3.09-9.82-4.63-3.35-1.58-6.71-3.16-10.06-4.75-3.96-1.88-7.9-3.79-11.88-5.65-4.75-2.22-9.53-4.38-14.29-6.57-.92-.43-1.81-.93-2.72-1.37-.91-.45-1.82-.88-2.75-1.29-1-.44-2.14-.69-3-1.32-.84-.61-1.94-.61-2.65-1.38-.7-.77-2-.42-2.59-1.39-2.79-.83-5.21-2.54-7.98-3.42-.68-.84-1.84-.72-2.64-1.25-1.58-1.05-3.38-1.65-5.04-2.53-1.3-.69-2.7-1.25-4.04-1.91-1.76-.87-3.57-1.67-5.41-2.35-1.01-.37-1.95-.91-2.9-1.37-1.25-.6-2.46-1.31-3.75-1.87-1.38-.6-2.7-1.32-4.05-1.97-1.89-.9-3.8-1.79-5.7-2.68-2.49-1.16-4.96-2.34-7.47-3.46-1.75-.79-3.45-1.64-5.25-2.34-2.09-.82-4.03-2-6.06-2.98-3.34-1.61-6.69-3.21-10.06-4.75-2.69-1.22-5.4-1.92-8.32-.44-3.02,1.53-4.84,3.83-5.28,7.18-.12.93-.08,1.88-.08,2.82,0,28.21,0,56.42,0,84.63,0,.68-.03,1.37.02,2.05.24,2.95,1.47,5.36,4.1,6.84,2.12,1.19,4.3,2.28,6.49,3.34,2.43,1.18,4.9,2.25,7.35,3.4,4.2,1.96,8.39,3.93,12.59,5.89,2.3,1.08,4.71,1.98,6.9,3.25,2.45,1.43,5.15,2.29,7.56,3.77,1.26,0,2.03,1.22,3.25,1.31.79.98,2.27.68,3.06,1.67,1.87.54,3.5,1.62,5.29,2.34,1.85.75,3.73,1.46,5.46,2.44,2.3,1.3,4.78,2.21,7.06,3.56,1.18.7,2.54,1.2,3.82,1.78,1.28.58,2.6,1.05,3.88,1.61.44.19.79.59,1.22.79.46.21,1.19.13,1.41.45.55.77,1.53.43,2.01.93.53.55,1.15.63,1.75.89.67.28,1.27.72,1.96,1.02.99.43,2.08.7,2.97,1.23,2.34,1.39,5.01,2.08,7.25,3.64,3.05.93,5.66,2.81,8.57,4.05,2.57,1.1,5.1,2.27,7.63,3.45,3.28,1.53,6.51,3.16,9.81,4.65,3.15,1.42,6.19,3.09,9.33,4.5,5.16,2.33,10.24,4.82,15.37,7.2,2.84,1.32,5.65,2.72,8.53,3.94,2.29.97,4.6,1.57,7.18.61,3.29-1.22,5.71-4.01,5.92-7.49.07-1.11.06-2.22.06-3.33,0-13.85,0-27.7,0-41.55Zm-.04,88.44c.18-3.82-1.95-6.27-4.85-8.26-.91-.02-1.44-.89-2.23-1.04-.8-.14-1.33-.72-2-.96-.79-.28-1.5-.62-2.24-1-.72-.37-1.46-.75-2.21-1.08-2.19-.97-4.46-1.78-6.49-3.09-1.1.06-1.75-.99-2.73-1.13-1.19-.17-1.98-1.26-3.21-1.28-.56-1.1-2.13-.55-2.69-1.65-1.28.07-2.1-.96-3.16-1.41-1.77-.75-3.53-1.56-5.28-2.36-2.48-1.12-4.86-2.47-7.35-3.56-2.6-1.13-5.16-2.34-7.74-3.5-3.55-1.6-7.09-3.25-10.56-5.06-1.65-.86-3.36-1.6-5.04-2.4-3.9-1.85-7.77-3.78-11.71-5.54-5.07-2.27-10.07-4.68-15.07-7.1-4.02-1.95-8.1-3.78-12.15-5.67-2.59-1.21-5.15-2.51-7.77-3.65-3.37-1.47-6.6-3.23-9.98-4.67-1.66-.71-3.2-1.7-4.95-2.23-.61-1.06-2.16-.49-2.75-1.58-1.25.01-2.08-.98-3.17-1.39-1.13-.42-2.31-.88-3.42-1.49-1.57-.87-3.21-1.68-4.87-2.35-1.83-.74-3.45-1.93-5.41-2.34-.79-1.08-2.2-1.06-3.25-1.72-1.09-.69-2.44-1.11-3.67-1.64-2.82-1.22-5.32-.53-7.64.96-1.59,1.02-2.73,2.49-3.49,4.36-1.36,3.34-.49,6.1,1.65,8.7.97,1.18,2.28,2.04,3.57,2.69,4.43,2.24,8.98,4.24,13.49,6.33,4.21,1.95,8.42,3.89,12.62,5.85,1.91.89,3.79,1.84,5.69,2.75,3.37,1.61,6.73,3.21,10.11,4.79,3.21,1.5,6.44,2.98,9.67,4.46,1.61.74,3.24,1.46,4.85,2.19,1.59.73,3.12,1.59,4.7,2.34,1.78.85,3.56,1.73,5.33,2.6,2.55,1.24,5.26,2.19,7.78,3.49,2.49,1.28,5.08,2.37,7.57,3.65,1.93.99,3.94,1.84,5.9,2.77,1.71.82,3.37,1.77,5.13,2.47,1.83.73,3.5,1.87,5.45,2.29.47,1.12,1.85.63,2.56,1.48.56.66,1.83.31,2.38,1.23,1.08,0,1.76,1.01,2.73,1.14,1.06.14,1.63,1.25,2.74,1.17.81.83,2.15.67,2.9,1.34.86.77,2.21.43,2.81,1.52,1.26-.04,1.98,1.21,3.21,1.32.43.04.79.56,1.22.76.45.21,1.1.16,1.41.47.94.92,2.19,1.22,3.3,1.76,2.58,1.26,5.28,2.27,7.84,3.57,3.3,1.68,6.69,3.16,10.04,4.71,2.46,1.14,5.02,2.11,7.33,3.5,1.52.91,3.04,1.03,4.64,1.07,1.72.04,3.32-.38,4.75-1.51,2.32-1.85,3.83-4.03,3.71-7.09Zm-141.17-27.03c-1.28.27-2.59-.04-3.9.76-2.12,1.28-3.75,2.77-4.3,5.25-.93,1.19-.97,2.64-.59,3.9.37,1.24.66,2.56,1.56,3.67.45.55,1.05,1.01,1.4,1.69.21.42.8.49,1.17.88.61.63,1.74.52,2.36,1.29,1.27-.08,1.99,1.28,3.24,1.26.89.98,2.44.74,3.29,1.79,1.29-.07,2.1.94,3.14,1.42,3.84,1.75,7.61,3.65,11.51,5.29,2.8,1.18,5.55,2.53,8.24,3.94,2.77,1.45,5.68,2.57,8.43,4.06,3.48,1.89,7.1,3.56,10.74,5.13,5.12,2.21,10.09,4.73,15.18,7,1.92.85,3.75,1.86,5.67,2.71,1.68.75,3.38,1.49,5.02,2.34,2.52,1.31,5.12,2.43,7.68,3.63,1.87.88,3.73,1.8,5.61,2.68,2.5,1.17,5,2.34,7.52,3.46,1.82.81,3.61,1.68,5.38,2.57,1.67.84,3.47,1.41,5,2.53,1.17-.06,1.89.96,2.97,1.23,1.09.27,2.03,1.06,3.07,1.55,2.08.98,4.21,1.69,6.58,1.41,2.09-.24,3.79-1.22,5.2-2.65,1.82-1.84,2.42-4.16,2.31-6.75-.14-3.3-1.79-5.55-4.55-7.08-1.89-1.05-3.81-2.1-5.82-2.86-3.53-1.35-6.75-3.3-10.22-4.77-3.41-1.45-6.71-3.17-10.07-4.76-4.05-1.91-8.11-3.8-12.16-5.71-1.76-.83-3.5-1.7-5.24-2.57-1.27-.63-2.6-1.2-3.91-1.79-3.3-1.5-6.57-3.06-9.85-4.6-3.96-1.86-7.95-3.68-11.87-5.62-2.52-1.25-5.08-2.42-7.63-3.59-1.79-.82-3.6-1.63-5.37-2.46-1.91-.91-3.85-1.79-5.76-2.71-1.71-.82-3.38-1.77-5.22-2.31-.74-1.01-2.25-.68-2.98-1.71-1.24,0-1.95-1.39-3.24-1.24-.67-.9-1.97-.61-2.65-1.26-.89-.85-2.03-1.14-3.03-1.63-2.7-1.3-5.38-2.64-8.13-3.83-1.83-.79-3.62-1.95-5.81-1.56Z"/>
  <path class="cls-1" d="m243.81,159.26c-1.98-.01-4.96.04-7.95.21-2,.11-3.77.77-5.44,1.74-1.06.62-2.22.81-3.18.26-2.54-1.46-5.33-2.35-7.95-3.61-2.1-1-4.19-2.09-6.4-2.91-2.13-.78-4.2-1.75-6.29-2.67-3.42-1.49-6.83-3-10.24-4.51-2.71-1.2-5.42-2.4-8.13-3.6-2.08-.92-4.16-1.85-6.24-2.77-2.77-1.23-5.54-2.47-8.33-3.68-3.4-1.48-6.82-2.91-10.22-4.39-2.86-1.25-5.75-2.44-8.53-3.85-2.06-1.05-4.34-1.62-6.25-2.96-1.12-.09-2-.85-3.02-1.13-1.23-.34-2.19-1.25-3.46-1.41-.44-.82-1.37-.55-2-.91-.66-.37-1.31-.67-2-.96-1.07-.46-2.33-.68-3.19-1.37-.91-.72-2.28-.26-2.88-1.39-2.05-.42-3.79-1.62-5.7-2.4-1.19-.49-2.59-.69-3.55-1.7-1.88-.45-3.5-1.51-5.24-2.28-2.12-.94-4.27-1.81-6.37-2.82-1.79-.86-3.72-1.49-5.55-2.31-1.99-.89-3.99-1.73-5.99-2.59-2.06-.88-4.14-1.73-6.18-2.64-1.83-.82-3.6-1.74-5.43-2.55-2.86-1.27-5.75-2.48-8.63-3.72-3.34-1.45-6.69-2.89-10.02-4.35-2.79-1.22-5.56-2.47-8.34-3.71-2-.9-4-1.81-6-2.7-2.08-.92-4.17-1.82-6.24-2.75-1.22-.55-2.47-1.07-3.64-1.72-.9-.5-.91-.79-.28-1.58,1.76-2.23,3.53-4.45,5.3-6.67,2.3-2.88,4.59-5.76,6.89-8.63,1.65-2.05,3.37-4.05,4.94-6.16.94-1.26,2.29-1.94,3.47-2.86.13-.1.32-.12.49-.15,2.9-.45,5.78-.38,8.64.31.41.1.79.41,1.19.43,2.06.1,4.03.56,6.01,1.09,1.2.32,2.54.06,3.63.94.29.23.82.17,1.25.21,1.18.12,2.38.07,3.43.8.32.22.82.18,1.25.23,1.08.13,2.2.03,3.15.8.29.23.82.17,1.25.22,1.08.12,2.2.04,3.15.8.29.23.82.17,1.24.23.99.14,2.01.04,2.88.79.33.28.98.19,1.49.28.74.13,1.48.07,2.15.65.39.33,1.13.26,1.71.37.82.14,1.71-.02,2.37.74.18.21.64.18.97.24.9.15,1.85.04,2.62.79.25.25.81.18,1.23.26.81.16,1.71-.01,2.37.76.18.21.64.18.97.24.9.16,1.9,0,2.58.84,1.44.13,2.75.72,4.11,1.17.94.31,1.93.33,2.85.93.8.52,2.05.06,2.8.99.09.11.32.15.48.14,1.68-.14,2.91,1.37,4.59,1.24.93.59,1.98.87,3.02,1.24,4.15,1.47,8.22,3.14,12.36,4.63,4.37,1.57,8.63,3.43,12.94,5.14,2.82,1.12,5.6,2.37,8.39,3.55,1.61.68,3.17,1.54,4.77,2.28,4.21,1.97,8.41,3.96,12.57,6.04,3.94,1.96,7.89,3.92,11.71,6.09,3.82,2.18,7.66,4.32,11.5,6.48,2.02,1.13,3.88,2.54,5.86,3.74,1.77,1.07,3.63,2.01,5.29,3.25,2.67,2,5.52,3.73,8.2,5.71,2.51,1.85,5.08,3.62,7.55,5.52,4.45,3.43,8.51,7.26,12.4,11.3.23.24.48.47.71.72,1.77,1.99,2.63,4.24,2.53,6.98-.15,3.93-.04,7.86-.04,11.79,0,.43.01.86,0,1.28-.07,1.49-.49,1.9-2.06,1.97-.85.03-1.71.01-2.56.01-2.22,0-4.44,0-7.68,0Z"/>
  <path class="cls-1" d="m485.51,80.37c-.45.63-1.01,1.06-1.75,1.37-2.96,1.26-5.87,2.62-8.83,3.88-3.19,1.36-6.3,2.88-9.47,4.29-4.24,1.9-8.55,3.65-12.82,5.48-4.04,1.73-8.14,3.35-12.09,5.26-3.16,1.53-6.35,2.95-9.61,4.22-.83,1.11-2.5.58-3.33,1.7-1.32.05-2.22,1.24-3.53,1.31-1.76,1.15-3.77,1.82-5.68,2.61-2,.83-3.95,1.82-6,2.57-1.04.38-2.19.76-3.09,1.56-.81.72-2.22.26-2.92,1.31-1.2-.14-1.85,1.11-2.98,1.16-1.04.05-1.61,1.29-2.74,1.09-.89.97-2.44.64-3.28,1.7-2.13.43-3.84,1.96-5.98,2.36-.92.17-1.64.79-2.46,1.17-.91.42-1.8.82-2.78,1.02-.6,1.08-2.03.51-2.67,1.27-.72.86-2.1.29-2.59,1.41-1.3.03-2.2,1.15-3.48,1.28-1.11.12-1.94.95-2.93,1.39-4.63,2.06-9.32,4-13.96,6.04-5.41,2.38-10.92,4.54-16.22,7.15-5.08,2.5-10.37,4.51-15.47,6.96-4.26,2.05-8.72,3.7-13.06,5.58-1.84.8-3.61,1.77-5.42,2.62-1.06.5-2.14.99-3.25,1.37-1.44.49-2.79,1.12-4.12,1.84-.94.52-2.17.73-2.92.08-.98-.84-2.29-.65-3.22-1.47-.33-.29-.96-.32-1.45-.35-2.13-.14-4.26-.32-6.39-.35-3.93-.05-7.86-.01-11.8-.02-.6,0-1.2.02-1.79-.02-.78-.05-1.31-.46-1.45-1.2-.12-.67-.14-1.36-.15-2.04-.01-3.68.12-7.36-.04-11.03-.15-3.27.99-5.94,3.2-8.21,1.85-1.91,3.71-3.8,5.68-5.58,2.26-2.05,4.58-4.02,6.96-5.92,4.1-3.27,8.5-6.15,12.76-9.21,4.46-3.2,9.24-5.87,13.83-8.87,2.57-1.68,5.4-2.95,8.03-4.52,4.75-2.85,9.7-5.33,14.61-7.88,3.82-1.99,7.8-3.68,11.67-5.58,1.97-.97,3.97-1.86,5.92-2.87,2.54-1.33,5.24-2.35,7.9-3.46,2.1-.88,4.23-1.71,6.36-2.54,3.15-1.23,6.3-2.46,9.46-3.67,2.29-.87,4.59-1.71,6.9-2.55,1.43-.52,2.83-1.16,4.3-1.49.96-.21,1.58-1.02,2.54-1.12.85-.09,1.61-.35,2.39-.75,1.1-.56,2.48-.44,3.53-1.26,1.68.14,2.93-1.29,4.62-1.23.92.03,1.54-.99,2.56-.93.85.05,1.61-.22,2.36-.76.5-.35,1.45-.05,1.96-.4,1.52-1.03,3.5-.55,4.99-1.67.36-.27.99-.18,1.49-.25.59-.09,1.21-.06,1.69-.5.41-.38.91-.42,1.42-.48,1-.12,2.05,0,2.88-.8.2-.2.65-.16.99-.2,1.08-.14,2.2-.02,3.14-.84.27-.24.82-.18,1.24-.23.92-.12,1.84-.12,2.66-.75.35-.27.98-.2,1.48-.27,1-.13,2.03-.05,2.9-.76.29-.23.82-.19,1.24-.24,1.08-.14,2.16-.11,3.16-.78.5-.34,1.33-.19,2-.29.9-.14,1.89.07,2.62-.76.18-.2.64-.2.97-.23,1.45-.12,2.89-.22,4.22-.9,3.01.02,5.79-1.34,8.8-1.37,1.11,0,2.22-.04,3.32.06,2.13.2,3.75,1.28,5.05,2.91,3.21,4.04,6.41,8.08,9.62,12.13,1.78,1.33,2.7,3.38,4.15,5,1.41,1.58,2.65,3.29,3.96,4.95.1.12.12.31.18.48Z"/>
  <path class="cls-1" d="m238.48,344.03c0-24.95,0-49.9,0-74.84,0-.68-.01-1.37,0-2.05.04-1.86.12-1.97,2.09-1.99,3.59-.02,7.18,0,10.76,0,12.39,0,24.77.01,37.16,0,3.77,0,3.09.3,3.09,3.05.01,50.84,0,101.67,0,152.51,0,.51.02,1.03,0,1.54-.05,1.22-.68,1.89-1.84,1.94-.68.03-1.37.01-2.05.01-15.21,0-30.41,0-45.62,0q-3.6,0-3.61-3.51c0-25.55,0-51.09,0-76.64Z"/>
  <path class="cls-1" d="m406.41,34.46c0,4.01,0,8.03,0,12.04,0,.68.15,1.39-.23,2.01-.38.62-.75,1.13-1.63,1.39-1.92.57-3.9.92-5.76,1.72-1.14.49-2.51.41-3.59,1.18-1.66-.01-2.98,1.26-4.65,1.21-1.29.85-2.88.85-4.24,1.55-1.19.62-2.53.87-3.79,1.3-.89.3-1.62.83-2.46,1.11-.86.29-1.89.09-2.55.94-1.48-.01-2.6,1.15-4.04,1.28-1.03.09-1.65,1.25-2.79,1.06-1.01.83-2.49.65-3.42,1.39-.99.78-2.45.23-3.16,1.41-1.43-.09-2.48.94-3.72,1.38-1.12.4-2.32.82-3.4,1.47-.96.58-2.09.98-3.16,1.35-1.18.41-2.14,1.43-3.5,1.32-.52.81-1.59.59-2.18,1.08-.64.52-1.36.6-2,.93-.72.37-1.41.81-2.16,1.17-4.56,2.2-9.07,4.5-13.58,6.77-4.81,2.42-9.57,4.92-14.2,7.67-7.27,4.32-14.66,8.46-21.66,13.22-2.33,1.59-4.68,3.16-7.02,4.74-.28.19-.57.35-.86.51-.25.13-.55.13-.69-.09-.12-.18-.19-.58-.09-.68.57-.57.69-1.36,1.07-2,1.56-2.64,2.95-5.37,4.58-7.98,1.66-2.63,3.49-5.14,5.2-7.73,3.41-5.15,7.4-9.82,11.55-14.38,2.8-3.08,5.69-6.07,8.8-8.83,4.87-4.33,9.81-8.57,15.16-12.31,2.57-1.8,5.18-3.52,7.85-5.15,2.19-1.34,4.31-2.8,6.52-4.12,3.7-2.21,7.57-4.11,11.44-5.98,3.5-1.69,7.03-3.38,10.66-4.75,3.32-1.25,6.46-2.91,9.91-3.85,2.52-.69,4.95-1.72,7.42-2.62,1.19-.43,2.45-.67,3.66-1.03,1.7-.51,3.34-1.24,5.15-1.43,1.43-.15,2.82-.7,4.16-1.16,1.87-.65,3.87-.65,5.7-1.4.97-.4,1.65.13,1.71,1.21.06,1.02.03,2.05.03,3.07,0,3.33,0,6.66,0,9.99Z"/>
  <path class="cls-1" d="m124.92,20.02c1.31.81,3.04.54,4.54,1.13,1.91.76,3.96.93,5.91,1.56,3.14,1.01,6.36,1.76,9.48,2.89,2.54.92,5.21,1.51,7.72,2.49,1.48.57,3,1.06,4.42,1.85,1.76.97,3.73,1.57,5.62,2.3,5.59,2.15,10.91,4.88,16.23,7.6,2.1,1.08,4.18,2.21,6.18,3.46,5.43,3.4,10.9,6.77,15.97,10.7,3.51,2.72,6.92,5.56,10.29,8.45,2.91,2.49,5.68,5.14,8.28,7.96,5.55,6.02,10.82,12.25,15.34,19.1,2.31,3.51,4.68,6.99,6.63,10.72.85,1.63,1.71,3.26,2.54,4.91.05.1-.06.34-.17.44-.1.09-.34.14-.44.08-.73-.41-1.48-.8-2.16-1.29-3.86-2.81-7.86-5.42-11.92-7.91-5.15-3.17-10.45-6.11-15.61-9.26-6.12-3.74-12.59-6.82-18.91-10.17-3.06-1.62-6.29-2.91-9.37-4.49-1.89-.98-3.93-1.66-5.71-2.87-1.41,0-2.35-1.25-3.74-1.38-.92-.09-1.47-1.16-2.5-1.07-1.82-1.31-4.19-1.45-6-2.8-1.43.12-2.49-.9-3.73-1.33-1.2-.41-2.57-.64-3.61-1.53-.12-.11-.29-.2-.45-.22-1.01-.14-1.88-.52-2.79-1-.77-.41-1.72-.53-2.56-.97-.85-.44-2-.27-2.75-1.08-1.44.14-2.42-1.13-3.75-1.25-1.29-.12-2.24-1.27-3.6-1.13-1.24-.97-2.86-.92-4.24-1.6-1.41-.7-3.05-.95-4.59-1.39-1.53-.44-3.04-.97-4.58-1.39-1.94-.54-3.77-1.44-5.78-1.71-.74-.1-1.05-.56-1.21-1.14-.15-.57-.19-1.18-.19-1.77-.01-8.2,0-16.4,0-24.6,0-.51.01-1.03.1-1.53.08-.48.48-.67,1.09-.75Z"/>
  <path class="cls-1" d="m264.99,512.53c-7.78,0-15.55,0-23.33,0-.77,0-1.54-.01-2.3-.06-.48-.03-.76-.35-.8-.83-.05-.6-.08-1.19-.08-1.79,0-10,0-20,0-30,0-2.64.03-2.67,2.75-2.67,15.81,0,31.62,0,47.43,0,2.93,0,2.93.01,2.93,3.03,0,9.83,0,19.66,0,29.48,0,2.73.35,2.85-2.76,2.84-7.95-.01-15.89,0-23.84,0Z"/>
  <path class="cls-1" d="m265.13,176.97c7.86,0,15.72.02,23.57,0,3.52-.01,2.88.37,2.89,3,.02,9.65-.01,19.3.02,28.96,0,2.84-.06,3.27-3.35,3.26-15.54-.04-31.09-.02-46.63-.02-.51,0-1.03.02-1.54-.02-1.08-.08-1.48-.48-1.58-1.61-.05-.59-.03-1.19-.03-1.79,0-9.57,0-19.13,0-28.7,0-.17,0-.34,0-.51.02-2.54.02-2.56,2.56-2.56,8.03,0,16.06,0,24.09,0Z"/>
  <path class="cls-1" d="m265.13,247.46c-7.6,0-15.2,0-22.8,0-.43,0-.85,0-1.28,0-2.53-.03-2.55-.03-2.56-2.57-.02-4.27,0-8.54,0-12.81,0-.43,0-.85.05-1.28.05-.47.33-.79.81-.83.59-.05,1.19-.07,1.79-.07,15.89,0,31.77,0,47.66,0,3.32,0,2.79.25,2.81,2.79.02,3.93,0,7.86,0,11.79,0,.68-.02,1.37-.05,2.05-.02.51-.37.78-.81.83-.76.09-1.53.11-2.3.11-7.77,0-15.54,0-23.32,0Z"/>
  <path class="cls-1" d="m264.87,459.62h-23.04c-.34,0-.68,0-1.02,0-1.94-.03-2.29-.28-2.31-2.12-.04-4.69-.02-9.39,0-14.08,0-.92.34-1.25,1.19-1.33.59-.05,1.19-.04,1.79-.04,15.7,0,31.41,0,47.11,0,.43,0,.85-.02,1.28,0,1.46.09,1.72.35,1.72,1.88.01,4.44,0,8.88,0,13.31,0,.34.01.69-.04,1.02-.13.75-.79,1.31-1.59,1.34-.6.03-1.19.01-1.79.01-7.77,0-15.53,0-23.3,0Z"/>
  <path class="cls-2" d="m327,273.83c0-13.85,0-27.69,0-41.54,0-1.11.07-2.22.03-3.33-.11-2.74,1.4-4.63,3.34-6.21,1.01-.82,2.22-1.44,3.42-1.95,3.7-1.57,7.29-3.36,10.92-5.05,3.26-1.51,6.46-3.15,9.76-4.58,3.34-1.45,6.52-3.27,9.86-4.72,3.89-1.68,7.7-3.51,11.52-5.33,5.01-2.38,10.01-4.79,15.03-7.15,4.04-1.89,8.15-3.63,12.13-5.63,1.87-.94,3.97-1.43,5.6-2.83,1.88-.43,3.46-1.54,5.18-2.33,1.85-.85,3.72-1.68,5.51-2.67.92-.51,1.98-.77,2.95-1.25,1.99-.98,3.99-1.94,6-2.86,1.8-.83,3.52-1.91,5.46-2.43.74-.2,1.08-1.13,2-.97.78.14,1.08-.75,1.71-.91.73-.19,1.41-.3,1.97-.98.37-.45,1.18-.5,1.79-.8,3.3-1.63,6.69-3.06,10.03-4.61,2.4-1.12,4.8-2.24,7.2-3.37,2.8-1.32,5.6-2.62,8.41-3.91,2.35-1.08,4.6-2.39,6.97-3.44,3.01-1.35,6.02-2.7,9.02-4.07,2.67-1.22,5.18-.59,7.57.72.87.48,1.67,1.19,2.3,1.96,1.13,1.37,1.78,3.01,2.02,4.78.1.76.07,1.54.07,2.3,0,28.46,0,56.92.01,85.38,0,1.63-.21,3.15-.82,4.71-.62,1.6-1.62,2.74-2.91,3.65-.74.52-1.55.99-2.41,1.39-3.22,1.47-6.35,3.13-9.55,4.65-4.05,1.93-8.13,3.81-12.2,5.69-3.06,1.41-6.18,2.69-9.17,4.23-2.96,1.52-5.99,2.88-9.01,4.27-2.32,1.07-4.58,2.3-6.93,3.33-2.07.9-4.09,1.91-6.14,2.84-2.48,1.13-4.97,2.28-7.4,3.54-.94.49-1.81,1.26-2.86,1.42-1.05.16-1.63,1.28-2.75,1.17-1.72,1.18-3.73,1.78-5.58,2.68-1.76.86-3.63,1.59-5.37,2.49-2.54,1.32-5.2,2.38-7.75,3.67-1.83.93-3.73,1.83-5.7,2.53-.83.29-1.77.65-2.42,1.14-.7.53-1.45.79-2.19,1.14-3.42,1.62-6.85,3.22-10.27,4.84-4.03,1.9-8.07,3.81-12.1,5.72-4.05,1.92-8.09,3.83-12.13,5.77-5.63,2.7-11.38,5.14-16.96,7.94-1.49.75-3.09,1.36-4.74,1.79-2.42.63-4.49-.1-6.53-1.27-1.61-.92-2.52-2.43-3.43-3.94-.25-.41-.31-.97-.34-1.48-.08-1.36-.13-2.73-.13-4.1,0-14.02,0-28.03,0-42.05Zm149.73-100.08c-1.82-.26-3.06,1.28-4.72,1.5-.99.94-2.36,1.14-3.5,1.81-1.21.71-2.5,1.38-3.77,1.85-2.72.98-5.28,2.33-7.88,3.53-2.76,1.27-5.51,2.6-8.24,3.95-4.6,2.26-9.3,4.33-13.95,6.49-2.76,1.29-5.54,2.54-8.24,3.93-2.77,1.42-5.61,2.72-8.42,4.04-3.98,1.87-7.87,3.96-11.99,5.54-2.04.78-3.94,1.9-5.92,2.85-1.9.92-3.77,1.94-5.73,2.71-2.04.79-3.81,2.12-5.93,2.72-.66,1.01-2.11.63-2.8,1.58-1.75.6-3.34,1.59-5.05,2.26-2.64,1.03-5.11,2.42-7.73,3.49-2.07.85-4.08,1.9-6.11,2.86-1.66.79-3.41,1.43-5,2.33-3.02,1.69-6.2,3.07-9.3,4.6-2.27,1.12-4.63,2.12-6.95,3.17-.68.31-.91.63-.91,1.28,0,.77-.01,1.54-.01,2.31,0,20.68,0,41.36,0,62.04,0,.51-.01,1.03,0,1.54.04,1.56.37,1.77,1.86,1.21.32-.12.62-.28.92-.45,2.32-1.32,5-1.93,7.15-3.59,2.74-.74,5.04-2.48,7.71-3.43,1.46-.52,2.81-1.39,4.28-1.96,1.53-.59,2.89-1.61,4.51-2.04.6-1.14,1.93-.83,2.85-1.42,1.58-1.01,3.34-1.78,5.09-2.46,1.86-.72,3.52-1.9,5.48-2.37,2.24-1.78,5.02-2.51,7.53-3.77,1.92-.96,3.85-1.93,5.82-2.8,1.92-.85,3.85-1.67,5.75-2.56,1.72-.81,3.45-1.59,5.19-2.37,2.66-1.19,5.22-2.62,7.86-3.86,3.91-1.84,7.91-3.48,11.75-5.45,5.48-2.81,11.27-4.98,16.67-7.98,1.76-.98,3.68-1.65,5.5-2.52,3.19-1.52,6.35-3.12,9.55-4.61,2.6-1.21,5.31-2.2,7.86-3.51,2.53-1.3,5.28-2.19,7.62-3.85,1.26-.1,1.43-.98,1.43-1.99,0-.34,0-.68,0-1.03,0-21.11,0-42.21,0-63.32,0-.75.17-1.53-.24-2.24Z"/>
  <path class="cls-2" d="m327.05,362.24c-.25-3.68,1.91-5.96,4.53-7.87.75-.55,1.8-.78,2.68-1.24,2.05-1.07,4.18-2.01,6.29-2.93,1.8-.79,3.61-1.6,5.37-2.45,2.58-1.25,5.3-2.21,7.77-3.69,1.2-.72,2.63-1.04,3.86-1.72,1.24-.68,2.54-1.21,3.78-1.85,3.91-2.02,8.01-3.64,11.93-5.66,2.58-1.33,5.31-2.44,7.99-3.6,3.03-1.32,5.97-2.85,8.94-4.32,3.32-1.66,6.71-3.19,10.07-4.76,4.06-1.89,8.14-3.75,12.2-5.64,1.76-.82,3.49-1.7,5.24-2.54,2.73-1.32,5.45-2.65,8.19-3.93,3.44-1.6,6.92-3.13,10.37-4.73,2.36-1.1,4.68-2.31,7.05-3.37,2.81-1.26,5.54-2.68,8.34-3.98,2.43-1.13,4.88-2.29,7.27-3.52,1.83-.94,3.76-1.77,5.68-2.56,1.8-.74,3.6-1.55,5.29-2.55.92-.54,1.95-.87,2.92-1.32,1.2-.56,2.35-1.24,3.59-1.71,1.24-.47,2.45-1.03,3.55-1.69,1.18-.7,2.48-1.05,3.7-1.59,1.32-.58,2.9-.51,4.28-.03,2.13.74,4.08,1.89,5.24,3.92,1.36,2.38,2.05,4.4,1.15,7.13-1.04,3.16-3.35,4.89-6.06,6.24-3.7,1.84-7.51,3.48-11.26,5.24-3.89,1.83-7.74,3.74-11.65,5.53-5.74,2.62-11.32,5.61-17.13,8.08-3.87,1.65-7.62,3.56-11.43,5.36-1.83.87-3.68,1.72-5.49,2.63-2.74,1.38-5.53,2.66-8.27,4.05-1.69.86-3.49,1.55-5.24,2.32-1.83.81-3.63,1.69-5.45,2.53-1.89.87-3.79,1.72-5.67,2.61-1.79.84-3.53,1.78-5.34,2.57-1.89.82-3.61,1.97-5.58,2.64-.94.32-1.78.89-2.75,1.23-.82.29-1.91.52-2.43,1.11-.74.84-2.08.35-2.54,1.45-.95.29-1.82.73-2.72,1.15-2.02.93-4.02,1.88-6.01,2.87-.96.48-1.98.87-2.96,1.26-2.53.99-4.81,2.52-7.42,3.33-2.19,1.78-4.97,2.39-7.39,3.73-2.44,1.34-5.08,2.32-7.61,3.49-4.52,2.08-9.02,4.18-13.53,6.28-1.89,1.54-4.11,1.31-6.33,1.23-1.66-.06-2.84-.95-4.01-1.92-2.15-1.78-3.29-4.02-3.03-6.8Z"/>
  <path class="cls-2" d="m353.53,406.87c-1.42.45-2.78-.76-4.25-1.25-1.32-.44-2.37-1.76-3.09-3.01-1.05-1.83-1.92-3.86-1.34-6.02.69-2.54,1.89-4.84,4.35-6.17,1.32-.71,2.67-1.38,4.04-1.99,2.05-.91,4.05-1.92,6.07-2.86,2.75-1.27,5.42-2.69,8.21-3.86,2.81-1.18,5.53-2.55,8.3-3.84,5.12-2.39,10.29-4.69,15.35-7.21,3-1.5,6.06-2.87,9.07-4.34,2.96-1.44,5.95-2.8,8.96-4.14,3.62-1.61,7.2-3.31,10.73-5.1,2.29-1.16,4.57-2.35,7-3.21.58-.84,1.8-.6,2.37-1.28.67-.8,1.79-.38,2.45-1.21.55-.69,1.84-.29,2.37-1.23,2.75-.69,5.13-2.27,7.68-3.41,2.53-1.13,5.19-2.06,7.5-3.66,1.89-.4,3.4-1.63,5.13-2.39,2.68-1.18,5.34-2.4,7.95-3.72,2.07-1.05,4.16-1.67,6.53-1.56,3.41.16,5.61,1.95,7.12,4.8,2.11,3.99.79,8.39-3.32,11.45-.75.56-1.75.9-2.66,1.28-2.52,1.03-4.81,2.57-7.46,3.29-3.59,2.4-7.69,3.78-11.51,5.71-3.99,2.01-8.12,3.73-12.17,5.63-3.97,1.86-7.9,3.78-11.85,5.67-2.52,1.2-5.03,2.42-7.56,3.6-3.36,1.58-6.74,3.14-10.11,4.71-1.77.82-3.55,1.62-5.29,2.49-3.4,1.71-6.87,3.3-10.3,4.94-1.78.86-3.64,1.6-5.45,2.44-1.87.87-3.7,1.86-5.59,2.65-2,.83-3.78,2.18-5.95,2.61-1.53,1.16-3.56,1.39-5.04,2.69-.34.3-.97.25-1.43.45-.44.2-.79.63-1.24.79-2.64.94-5.1,2.27-7.66,3.39-1.8.79-3.63,1.57-5.38,2.49-.73.38-1.49.26-2.57.37Z"/>
  <path class="cls-2" d="m203.06,274.02c0,13.85,0,27.7,0,41.55,0,1.11,0,2.22-.06,3.33-.2,3.48-2.62,6.27-5.92,7.49-2.58.96-4.89.36-7.18-.61-2.88-1.22-5.69-2.62-8.53-3.94-5.13-2.38-10.21-4.87-15.37-7.2-3.14-1.42-6.18-3.08-9.33-4.5-3.3-1.49-6.53-3.12-9.81-4.65-2.53-1.18-5.06-2.35-7.63-3.45-2.91-1.24-5.51-3.12-8.57-4.05-2.24-1.56-4.91-2.25-7.25-3.64-.89-.53-1.98-.81-2.97-1.23-.69-.3-1.29-.73-1.96-1.02-.61-.26-1.22-.34-1.75-.89-.48-.5-1.46-.16-2.01-.93-.23-.32-.96-.25-1.41-.45-.44-.2-.78-.6-1.22-.79-1.28-.57-2.61-1.04-3.88-1.61-1.28-.58-2.64-1.08-3.82-1.78-2.28-1.35-4.76-2.26-7.06-3.56-1.73-.98-3.61-1.69-5.46-2.44-1.79-.72-3.42-1.8-5.29-2.34-.78-.99-2.27-.69-3.06-1.67-1.22-.1-1.99-1.31-3.25-1.31-2.41-1.48-5.12-2.34-7.56-3.77-2.19-1.28-4.59-2.18-6.9-3.25-4.2-1.96-8.39-3.94-12.59-5.89-2.45-1.14-4.92-2.22-7.35-3.4-2.19-1.06-4.37-2.15-6.49-3.34-2.63-1.48-3.86-3.89-4.1-6.84-.06-.68-.02-1.37-.02-2.05,0-28.21,0-56.42,0-84.63,0-.94-.04-1.89.08-2.82.43-3.35,2.26-5.65,5.28-7.18,2.92-1.48,5.63-.78,8.32.44,3.38,1.53,6.72,3.14,10.06,4.75,2.03.98,3.97,2.16,6.06,2.98,1.79.7,3.5,1.56,5.25,2.34,2.5,1.13,4.98,2.3,7.47,3.46,1.9.89,3.8,1.77,5.7,2.68,1.35.65,2.67,1.37,4.05,1.97,1.29.56,2.5,1.27,3.75,1.87.95.45,1.89,1,2.9,1.37,1.84.68,3.65,1.48,5.41,2.35,1.34.66,2.74,1.22,4.04,1.91,1.66.88,3.46,1.48,5.04,2.53.81.54,1.96.41,2.64,1.25,2.77.88,5.19,2.6,7.98,3.42.59.97,1.89.62,2.59,1.39.71.77,1.81.77,2.65,1.38.86.63,2,.88,3,1.32.93.41,1.84.85,2.75,1.29.91.45,1.8.95,2.72,1.37,4.76,2.2,9.54,4.36,14.29,6.57,3.97,1.85,7.92,3.77,11.88,5.65,3.35,1.59,6.71,3.17,10.06,4.75,3.27,1.55,6.54,3.12,9.82,4.63,3.49,1.61,6.94,3.3,10.44,4.9,2.87,1.31,5.78,2.55,8.55,4.05,2.86,1.55,4.92,3.82,4.97,7.35.02,1.03.04,2.05.04,3.08,0,13.93,0,27.87,0,41.8Zm-17.7-4.59c0-10.43,0-20.85,0-31.28,0-.77-.02-1.54-.06-2.3-.02-.35-.14-.73-.54-.75-.68-.05-.88-.76-1.48-.94-2.7-.82-5.1-2.34-7.73-3.32-.45-.17-.8-.58-1.24-.78-.46-.2-1.23-.13-1.41-.45-.6-1-2.08-.35-2.52-1.48-.99-.24-1.8-.88-2.72-1.24-4.13-1.59-8.05-3.63-12.03-5.52-3.3-1.56-6.65-3.03-9.9-4.72-3.26-1.69-6.72-2.99-9.99-4.65-6.17-3.14-12.56-5.81-18.78-8.85-3.41-1.66-6.85-3.25-10.27-4.88-3.27-1.55-6.53-3.11-9.8-4.65-4.12-1.94-8.25-3.87-12.39-5.78-1.6-.74-3.12-1.7-4.72-2.36-1.92-.78-3.66-1.98-5.7-2.47-.76-.99-2.27-.67-3.02-1.69-1.27.08-1.99-1.26-3.23-1.25-.68-.9-2.05-.58-2.64-1.26-.74-.85-2.07-.38-2.56-1.45-1.01-.16-1.8-.98-2.73-1.15-1.07-.19-1.71-1.06-2.76-1.22-1.05-.16-1.83-1.1-3-1.2-.99-.08-1.17-.06-1.21.92-.02.51-.01,1.03-.01,1.54,0,20.94,0,41.88,0,62.81,0,.6-.03,1.2.04,1.79.07.61.37,1.07,1,1.35,1.83.83,3.63,1.72,5.45,2.58,4.03,1.91,8.06,3.82,12.09,5.72,3.36,1.58,6.74,3.14,10.1,4.72,1.98.93,3.95,1.89,5.93,2.83,2.6,1.23,5.2,2.47,7.81,3.69,3.97,1.85,7.94,3.69,11.92,5.52,1.53.71,3.06,1.44,4.61,2.1,1.61.69,3.16,1.52,4.7,2.32,3.47,1.82,7.12,3.21,10.61,4.97,1.78.9,3.62,1.65,5.39,2.6,1.52.81,3.09,1.64,4.7,2.25,2.11.81,4.05,1.93,6.12,2.8,1.91.8,3.67,1.88,5.6,2.66.99.4,2.08.71,2.94,1.3.59.41,1.26.45,1.78.81.63.44,1.21.89,1.99.93.6.03.68.73,1.22.83.5.09,1.22.11,1.42.43.63.98,1.84.6,2.64,1.36.64.61,1.76,1.04,2.67,1.23,1.05.22,1.69,1.12,2.75,1.22,1.09.09,1.79,1.23,2.96,1.21.45,1.13,1.74.76,2.55,1.43.75.62,1.86,1.11,2.87,1.32,1.05.23,1.67,1.04,2.64,1.37,1.75.59,3.46,1.38,5.08,2.28,3.13,1.72,2.88.76,2.88-1.74,0-10.51,0-21.02,0-31.53Z"/>
  <path class="cls-2" d="m203.02,362.45c.12,3.06-1.39,5.24-3.71,7.09-1.43,1.14-3.03,1.55-4.75,1.51-1.59-.04-3.12-.16-4.64-1.07-2.31-1.38-4.87-2.36-7.33-3.5-3.36-1.55-6.74-3.03-10.04-4.71-2.56-1.3-5.26-2.31-7.84-3.57-1.11-.54-2.36-.84-3.3-1.76-.32-.31-.96-.26-1.41-.47-.44-.2-.8-.72-1.22-.76-1.23-.11-1.95-1.36-3.21-1.32-.6-1.08-1.95-.75-2.81-1.52-.75-.68-2.09-.51-2.9-1.34-1.1.08-1.68-1.03-2.74-1.17-.97-.12-1.66-1.14-2.73-1.14-.55-.92-1.82-.56-2.38-1.23-.72-.85-2.09-.35-2.56-1.48-1.96-.43-3.62-1.56-5.45-2.29-1.76-.7-3.41-1.65-5.13-2.47-1.96-.93-3.97-1.78-5.9-2.77-2.49-1.28-5.08-2.36-7.57-3.65-2.52-1.3-5.22-2.25-7.78-3.49-1.78-.86-3.55-1.75-5.33-2.6-1.58-.76-3.11-1.62-4.7-2.34-1.61-.74-3.24-1.45-4.85-2.19-3.23-1.48-6.45-2.95-9.67-4.46-3.38-1.58-6.74-3.19-10.11-4.79-1.9-.91-3.78-1.86-5.69-2.75-4.2-1.96-8.41-3.9-12.62-5.85-4.51-2.09-9.06-4.1-13.49-6.33-1.29-.65-2.6-1.51-3.57-2.69-2.13-2.59-3-5.35-1.65-8.7.76-1.87,1.91-3.34,3.49-4.36,2.32-1.49,4.82-2.18,7.64-.96,1.22.53,2.58.95,3.67,1.64,1.06.67,2.46.64,3.25,1.72,1.96.42,3.58,1.61,5.41,2.34,1.66.67,3.3,1.48,4.87,2.35,1.1.61,2.29,1.07,3.42,1.49,1.09.41,1.93,1.4,3.17,1.39.59,1.09,2.14.52,2.75,1.58,1.75.53,3.29,1.52,4.95,2.23,3.38,1.44,6.61,3.2,9.98,4.67,2.62,1.14,5.18,2.44,7.77,3.65,4.05,1.89,8.13,3.73,12.15,5.67,5,2.42,10,4.83,15.07,7.1,3.94,1.76,7.81,3.68,11.71,5.54,1.68.8,3.39,1.54,5.04,2.4,3.46,1.8,7.01,3.46,10.56,5.06,2.58,1.16,5.14,2.38,7.74,3.5,2.5,1.08,4.87,2.43,7.35,3.56,1.76.8,3.52,1.6,5.28,2.36,1.06.45,1.88,1.48,3.16,1.41.56,1.1,2.13.55,2.69,1.65,1.23.01,2.02,1.11,3.21,1.28.98.14,1.63,1.19,2.73,1.13,2.03,1.31,4.3,2.12,6.49,3.09.75.33,1.49.71,2.21,1.08.74.37,1.46.72,2.24,1,.68.24,1.2.82,2,.96.79.14,1.32,1.02,2.23,1.04,2.9,1.99,5.02,4.44,4.85,8.26Z"/>
  <path class="cls-2" d="m61.85,335.42c2.19-.39,3.98.77,5.81,1.56,2.75,1.18,5.44,2.52,8.13,3.83,1,.48,2.14.78,3.03,1.63.68.65,1.98.36,2.65,1.26,1.29-.14,2,1.24,3.24,1.24.73,1.03,2.24.7,2.98,1.71,1.84.54,3.51,1.48,5.22,2.31,1.91.92,3.85,1.8,5.76,2.71,1.77.84,3.58,1.65,5.37,2.46,2.55,1.17,5.11,2.33,7.63,3.59,3.92,1.95,7.91,3.76,11.87,5.62,3.28,1.54,6.55,3.09,9.85,4.6,1.3.6,2.64,1.16,3.91,1.79,1.74.87,3.48,1.74,5.24,2.57,4.05,1.91,8.11,3.8,12.16,5.71,3.36,1.59,6.65,3.31,10.07,4.76,3.46,1.47,6.69,3.43,10.22,4.77,2.01.77,3.93,1.82,5.82,2.86,2.76,1.53,4.41,3.78,4.55,7.08.11,2.59-.49,4.9-2.31,6.75-1.41,1.43-3.11,2.41-5.2,2.65-2.38.28-4.51-.43-6.58-1.41-1.04-.49-1.99-1.28-3.07-1.55-1.08-.27-1.8-1.29-2.97-1.23-1.53-1.11-3.33-1.69-5-2.53-1.77-.89-3.56-1.76-5.38-2.57-2.52-1.12-5.02-2.29-7.52-3.46-1.88-.88-3.73-1.8-5.61-2.68-2.56-1.21-5.17-2.32-7.68-3.63-1.64-.85-3.33-1.6-5.02-2.34-1.92-.85-3.75-1.86-5.67-2.71-5.09-2.27-10.06-4.79-15.18-7-3.64-1.57-7.26-3.24-10.74-5.13-2.75-1.5-5.66-2.62-8.43-4.06-2.7-1.41-5.44-2.76-8.24-3.94-3.9-1.64-7.67-3.54-11.51-5.29-1.04-.48-1.85-1.49-3.14-1.42-.86-1.04-2.4-.81-3.29-1.79-1.25.02-1.97-1.34-3.24-1.26-.62-.77-1.75-.66-2.36-1.29-.37-.39-.96-.46-1.17-.88-.34-.68-.94-1.14-1.4-1.69-.91-1.11-1.19-2.43-1.56-3.67-.38-1.26-.34-2.72.59-3.9.55-2.48,2.18-3.97,4.3-5.25,1.31-.79,2.63-.49,3.9-.76Z"/>
  <path class="cls-2" d="m476.73,173.75c.41.71.24,1.49.24,2.24,0,21.11,0,42.21,0,63.32,0,.34,0,.68,0,1.03,0,1.01-.18,1.88-1.43,1.99-2.35,1.66-5.09,2.56-7.62,3.85-2.55,1.31-5.26,2.3-7.86,3.51-3.2,1.49-6.36,3.09-9.55,4.61-1.82.87-3.75,1.54-5.5,2.52-5.39,3-11.18,5.17-16.67,7.98-3.84,1.97-7.85,3.61-11.75,5.45-2.64,1.25-5.19,2.68-7.86,3.86-1.74.77-3.47,1.56-5.19,2.37-1.9.89-3.83,1.71-5.75,2.56-1.97.87-3.91,1.84-5.82,2.8-2.51,1.26-5.29,1.99-7.53,3.77-1.96.48-3.62,1.65-5.48,2.37-1.76.68-3.52,1.45-5.09,2.46-.92.59-2.25.29-2.85,1.42-1.62.43-2.98,1.45-4.51,2.04-1.48.57-2.82,1.44-4.28,1.96-2.67.95-4.97,2.69-7.71,3.43-2.15,1.66-4.83,2.27-7.15,3.59-.3.17-.6.33-.92.45-1.49.57-1.83.35-1.86-1.21-.01-.51,0-1.03,0-1.54,0-20.68,0-41.36,0-62.04,0-.77.02-1.54.01-2.31,0-.65.23-.98.91-1.28,2.32-1.05,4.67-2.05,6.95-3.17,3.1-1.53,6.27-2.91,9.3-4.6,1.6-.89,3.34-1.54,5-2.33,2.04-.96,4.05-2.01,6.11-2.86,2.62-1.08,5.09-2.46,7.73-3.49,1.71-.67,3.3-1.66,5.05-2.26.69-.95,2.14-.57,2.8-1.58,2.11-.6,3.89-1.92,5.93-2.72,1.97-.76,3.83-1.79,5.73-2.71,1.97-.95,3.88-2.07,5.92-2.85,4.13-1.58,8.01-3.68,11.99-5.54,2.81-1.32,5.65-2.62,8.42-4.04,2.71-1.39,5.48-2.64,8.24-3.93,4.65-2.17,9.35-4.23,13.95-6.49,2.73-1.34,5.48-2.68,8.24-3.95,2.6-1.2,5.15-2.55,7.88-3.53,1.28-.46,2.57-1.14,3.77-1.85,1.14-.67,2.51-.86,3.5-1.81,1.66-.22,2.89-1.76,4.72-1.5Z"/>
  <path class="cls-2" d="m185.36,269.43c0,10.51,0,21.02,0,31.53,0,2.49.25,3.46-2.88,1.74-1.62-.89-3.33-1.69-5.08-2.28-.97-.33-1.59-1.14-2.64-1.37-1-.22-2.12-.7-2.87-1.32-.81-.67-2.1-.29-2.55-1.43-1.17.03-1.87-1.11-2.96-1.21-1.07-.09-1.7-1-2.75-1.22-.91-.19-2.03-.61-2.67-1.23-.79-.76-2.01-.38-2.64-1.36-.2-.32-.93-.34-1.42-.43-.54-.1-.62-.8-1.22-.83-.78-.03-1.37-.49-1.99-.93-.51-.36-1.18-.41-1.78-.81-.85-.58-1.95-.9-2.94-1.3-1.93-.78-3.69-1.85-5.6-2.66-2.07-.87-4.01-2-6.12-2.8-1.62-.62-3.18-1.44-4.7-2.25-1.76-.94-3.61-1.7-5.39-2.6-3.48-1.76-7.14-3.15-10.61-4.97-1.53-.8-3.09-1.63-4.7-2.32-1.55-.67-3.08-1.39-4.61-2.1-3.97-1.84-7.95-3.67-11.92-5.52-2.61-1.22-5.21-2.45-7.81-3.69-1.98-.94-3.95-1.9-5.93-2.83-3.36-1.58-6.74-3.14-10.1-4.72-4.04-1.9-8.06-3.81-12.09-5.72-1.82-.86-3.61-1.76-5.45-2.58-.63-.28-.93-.74-1-1.35-.07-.59-.04-1.19-.04-1.79,0-20.94,0-41.88,0-62.81,0-.51-.01-1.03.01-1.54.04-.98.22-1,1.21-.92,1.16.09,1.94,1.03,3,1.2,1.05.16,1.69,1.04,2.76,1.22.92.16,1.71.98,2.73,1.15.49,1.07,1.82.59,2.56,1.45.59.68,1.96.36,2.64,1.26,1.24,0,1.96,1.34,3.23,1.25.75,1.02,2.25.7,3.02,1.69,2.04.49,3.78,1.69,5.7,2.47,1.61.66,3.12,1.62,4.72,2.36,4.14,1.91,8.27,3.84,12.39,5.78,3.27,1.54,6.53,3.1,9.8,4.65,3.43,1.62,6.87,3.21,10.27,4.88,6.22,3.04,12.6,5.71,18.78,8.85,3.27,1.66,6.73,2.96,9.99,4.65,3.25,1.69,6.6,3.15,9.9,4.72,3.98,1.89,7.91,3.93,12.03,5.52.93.36,1.74,1,2.72,1.24.44,1.13,1.92.48,2.52,1.48.19.31.96.24,1.41.45.44.2.79.61,1.24.78,2.63.98,5.03,2.5,7.73,3.32.59.18.8.89,1.48.94.4.03.52.4.54.75.04.77.06,1.54.06,2.3,0,10.43,0,20.85,0,31.28Z"/>
</svg>