<svg xmlns="http://www.w3.org/2000/svg" data-name="S_History_18_N@2x" height="36" id="S_History_18_N_2x" viewBox="0 0 36 36" width="36">
  <defs>
    <style>
      .fill {
        fill: #6e6e6e;
      }

      
    </style>
  </defs>
  <path class="fill" d="M19,6H17a1,1,0,0,0-1,1V17.586a1,1,0,0,0,.293.707L21.9,23.9a1,1,0,0,0,1.414,0l1.336-1.336a1,1,0,0,0,0-1.414L20,16.5V7A1,1,0,0,0,19,6Z" />
  <path class="fill" d="M18,2A15.946,15.946,0,0,0,6.856,6.519,13.124,13.124,0,0,0,2.847,14H.5a.5.5,0,0,0-.5.5.49.49,0,0,0,.147.35l3.537,4.033a.5.5,0,0,0,.632,0l3.537-4.033A.49.49,0,0,0,8,14.5a.5.5,0,0,0-.5-.5H4.969A11.708,11.708,0,0,1,8.458,7.755a14,14,0,1,1-.009,20.481.5.5,0,0,0-.691.006l-.707.707a.506.506,0,0,0,0,.723A16,16,0,1,0,18,2Z" />
  </svg>