<?xml version="1.0" encoding="UTF-8"?>
<svg id="Capa_1" data-name="Capa 1" xmlns="http://www.w3.org/2000/svg" viewBox="0 0 271.99 279.32">
  <defs>
    <style>
      .cls-1 {
        fill: #00a17e;
      }

      .cls-2 {
        fill: #fff;
      }
    </style>
  </defs>
  <path class="cls-1" d="M178.63,223.83l5.66,36.98c5.14.42,11.1-.58,16.14,0,10.93,1.25,11.17,17.46-.54,18.51h-126.85c-11.67.04-12.69-17.19-1.11-18.51,5.04-.58,10.99.43,16.14,0l5.66-36.98c-22.41-.58-44.41,3.38-64.49-9C2.33,198.24.95,173.68.28,144.41c-.12-5.33-.65-14.63.16-19.53,1.65-10.03,16.78-9.74,17.98,1.02,1.78,16-2.07,38.34,3.69,53.43,5.87,15.39,20.45,24.55,36.2,26.03h155.72c20.14-1.81,36.42-15.79,38.68-36.78,2.29-21.22,1.16-45.55.62-66.92-.79-30.81,3.97-69.47-32.93-79.63-8.34-2.3-15.2-.43-22.67-1.71-9.69-1.66-10.01-17.33,1.54-18.37,40.46-3.64,68.08,22.37,71.06,62.72,2,26.98,1.96,54.99,1.11,82.01-.92,29.43-1.4,52.52-29.4,68.79-20.15,11.7-41.2,7.78-63.42,8.37ZM106.17,260.83h60l-5.66-36.98h-48.36s-5.98,36.98-5.98,36.98Z"/>
  <path class="cls-1" d="M130.4,42.48c40.6-3.42,72.68,29.91,73.98,70.33,44.57,18.22,15.55,81.88-27.08,58.46-24.28,19.02-57.98,18.98-82.26,0-42.57,23.41-71.67-40.23-27.08-58.46.99-35.54,26.96-67.34,62.43-70.33ZM131.53,60.97c-8.26.79-17.06,4.2-23.59,9.42,11.04,31.36,46.44,49.51,77.82,39.55-1.64-28.59-25.74-51.68-54.23-48.97ZM86.36,113.37c6.26-3.65,12.07-8.47,15.78-14.87l-7.58-12.86-3.04,4.4c-3.17,7.35-5.14,15.24-5.16,23.33ZM183.72,129.55c-24.09,5.03-49.1-2.07-68.21-17.36-1.32-.02-1.98,2.01-2.82,2.92-6.64,7.15-13.68,13.29-22.87,16.82,1.2,6.53,5.92,14.06,10.39,19,26.75,29.56,73.15,16.25,83.51-21.38ZM70.49,132.44c-.74-.55-3.68,2.79-4.19,3.51-7.87,11.2,3.12,25.13,15.52,21.32-4.94-7.69-9.08-15.87-11.33-24.84ZM190.52,157.28c11.8,3.72,22.77-9.13,16.22-20.3-.52-.89-3.34-4.22-4.05-4.53-.91-.4-.76.32-.96.72-1.53,3.06-2.41,7.58-3.92,11.03-2.01,4.6-4.77,8.77-7.28,13.08Z"/>
  <path class="cls-1" d="M58.5.88c31.17-2.61,65.18,1.59,96.64-.17,10.68,1.52,11.06,16.3.51,18.44-31.01,1.8-64.34-2.22-95.08.03-19.76,1.45-36.79,16.68-39.82,36.78-1.17,7.75.09,18.43-1.59,25.54-2.36,9.98-16.62,8.78-17.74-.75-.69-5.87.42-19.2,1.15-25.43C6.03,25.98,29.69,3.29,58.5.88Z"/>
  <polygon class="cls-2" points="106.18 260.83 112.16 223.85 160.51 223.86 166.16 260.83 106.18 260.83"/>
  <path class="cls-2" d="M183.72,129.55c-10.35,37.63-56.76,50.95-83.51,21.38-4.47-4.94-9.2-12.48-10.39-19,9.18-3.53,16.23-9.67,22.87-16.82.84-.91,1.5-2.94,2.82-2.92,19.12,15.29,44.13,22.39,68.21,17.36Z"/>
  <path class="cls-2" d="M131.53,60.97c28.49-2.71,52.6,20.38,54.23,48.97-31.38,9.96-66.77-8.19-77.82-39.55,6.53-5.22,15.32-8.63,23.59-9.42Z"/>
  <path class="cls-2" d="M70.49,132.44c2.25,8.97,6.39,17.15,11.33,24.84-12.4,3.81-23.39-10.12-15.52-21.32.51-.72,3.45-4.06,4.19-3.51Z"/>
  <path class="cls-2" d="M190.52,157.28c2.51-4.3,5.27-8.48,7.28-13.08,1.51-3.45,2.4-7.98,3.92-11.03.2-.4.05-1.12.96-.72.71.31,3.53,3.65,4.05,4.53,6.55,11.17-4.42,24.02-16.22,20.3Z"/>
  <path class="cls-2" d="M86.36,113.37c.02-8.09,1.99-15.98,5.16-23.33l3.04-4.4,7.58,12.86c-3.71,6.39-9.52,11.22-15.78,14.87Z"/>
</svg>