<?xml version="1.0" encoding="UTF-8"?>
<svg id="Layer_1" data-name="Layer 1" xmlns="http://www.w3.org/2000/svg" viewBox="0 0 269.05 247.26">
  <defs>
    <style>
      .cls-1 {
        fill: #cdd1de;
      }

      .cls-1, .cls-2 {
        stroke-width: 0px;
      }

      .cls-2 {
        fill: #7d70ba;
      }
    </style>
  </defs>
  <path class="cls-2" d="m0,86.18v-17.21c1.42-.49,1.06-1.86,1.19-2.82,1-7.11,3.22-13.84,6-20.41,3.92-8.47,9.33-15.91,15.58-22.78,7.22-6.82,15.33-12.34,24.27-16.64,2-.75,3.99-1.51,5.99-2.26,3.77-1.01,7.54-2.03,11.31-3.04.72-.08,1.45-.17,2.17-.25C73.22-.24,79.96.05,86.69.01c.73.07,1.47.14,2.2.21,8.04,1.32,15.89,3.28,23.43,6.43l7.3,3.4c1.7,1.02,3.41,2.04,5.11,3.06.6.61,1.2,1.24,2.15,1.27l2.33,1.59-.05-.05c.81,1.08,1.84,1.87,3.05,2.46l.64.5c.9,1.43,1.77,1.6,3.23.45,3.27-2.58,6.71-4.94,10.08-7.39,4.37-2.17,8.73-4.33,13.1-6.5,2.97-.99,5.94-1.98,8.91-2.96,2.35-.14,4.61-.63,6.79-1.51.73-.08,1.47-.15,2.2-.23C183.58-.21,190.07.06,196.55,0l2.94.22c8.19,1.36,16.13,3.57,23.82,6.7,3.94,2.1,8.26,3.71,11.71,6.44,3.7,2.92,7.36,5.97,10.89,9.13.49.52.98,1.05,1.47,1.57,5.56,6.43,10.33,13.4,14.26,20.95,1.46,3.75,2.92,7.49,4.38,11.24,1.01,4.98,2.03,9.96,3.04,14.95v18.71c-2.23,6.1-2.74,12.62-4.71,18.79-3.39,9.06-7.82,17.61-12.58,26.01,0,0,.02-.02.02-.02-.51.77-1.02,1.54-1.54,2.3,0,0,.04-.06.04-.06-.61.86-1.21,1.71-1.82,2.57,0,0-.13.2-.13.2-.8.33-1.07,1-1.17,1.78-1.13.71-1.67,1.84-2.1,3.04-.84.51-1.27,1.33-1.62,2.21-2.41,3.02-4.81,6.05-7.22,9.07-.89,1.01-1.77,2.02-2.66,3.02-2.63,2.97-5.25,5.94-7.88,8.92-2.09,2.22-4.19,4.43-6.28,6.65-1.17,1.17-2.34,2.34-3.51,3.51-1.48,1.47-2.96,2.95-4.44,4.42,0,0,0,0,0,0-.63.6-1.27,1.2-1.9,1.79-2.07,2.04-4.13,4.07-6.2,6.11-.97.51-1.79,1.17-2.34,2.14-3.51,2.73-6.74,5.76-9.76,9.01-1.06.44-1.76,1.29-2.37,2.22-2.95,2.67-5.9,5.33-8.85,8-1.16.64-2.14,1.5-2.88,2.61-2.42,1.76-4.7,3.69-6.68,5.95-.65.55-1.29,1.11-1.94,1.66,0,0,0,0,0,0-.95.87-1.9,1.74-2.84,2.62,0,0,.04-.05.04-.05-.42.37-.84.75-1.25,1.12-6.26,5.4-12.52,10.81-18.78,16.21-8.82,8.33-15.36,6.48-22.88-.41-10.68-9.79-21.8-19.09-32.73-28.6-3.84-3.37-7.68-6.74-11.52-10.11-.17-.18-.34-.35-.52-.53-3.31-2.98-6.62-5.96-9.93-8.94-12.34-11.6-24.63-23.25-35.99-35.84-3.04-3.88-6.09-7.77-9.13-11.65-5.68-7.9-10.52-16.29-14.76-25.05-2.34-6.74-4.69-13.47-6.22-20.47-.63-2.9.02-6.13-2.01-8.71v-2.99c.74-.75.4-1.5,0-2.25Zm118.15,118.21c.69.61,1.39,1.23,2.08,1.84.46.41.93.83,1.39,1.24,2.68,2.65,5.4,5.25,8.52,7.38.5.53,1.05,1.03,1.49,1.6,1.96,2.56,3.71,2.24,5.87.03,2.85-2.92,6.02-5.54,9.05-8.29l5.91-5.26c4.9-4.07,9.78-8.16,14.2-12.77l1.83-1.57c.14-.04.25-.12.32-.24,3.31-3.11,6.61-6.23,9.92-9.34.23-.2.46-.4.69-.6,3.74-3.04,7.33-6.25,10.52-9.87.22-.22.45-.44.67-.66,3.86-3.18,7.32-6.78,10.62-10.54.21-.2.41-.41.62-.61,3.61-3.25,6.86-6.84,9.94-10.59.67-.77,1.35-1.54,2.02-2.3,2.6-2.57,4.96-5.34,7.06-8.33.15-.08.24-.2.26-.37.26-.39.52-.78.79-1.16,5.15-5.95,9.53-12.4,12.92-19.52.96-1.31,1.8-2.68,2.18-4.28.6-.33.77-.86.7-1.5.97-1.65,1.81-3.35,2.14-5.26.39-.51.86-.99.69-1.73,1.59-4.02,2.73-8.15,3-12.48.06-.48.13-.97.19-1.45,1.59-9.65.76-19.07-2.8-28.21-.19-.6-.39-1.19-.58-1.79-1-2.42-1.9-4.89-3.55-6.98-.41-.68-.83-1.36-1.24-2.04-3.1-5.16-7.05-9.54-12.02-12.96-5.94-4.89-12.64-8.16-20.24-9.51-5.63-1.79-11.38-2.19-17.22-1.45l-2.24.09c-1.02.11-2.22-.65-3.03.58-.48.04-.97.07-1.45.11-9.95,1.42-18.63,5.66-26.45,11.84-2.43,1.67-4.85,3.36-6.49,5.91-.99.62-1.83,1.39-2.35,2.46-2.69,2.54-5.9,3.97-9.54,4.46-4.46-.34-7.81-2.73-10.77-5.85-3.69-4.37-8-7.99-13.03-10.73-10.79-6.77-22.45-10.11-35.25-8.88-.75.03-1.5.07-2.24.1-11.35.91-21.35,5-29.85,12.64-2.42,1.57-4.41,3.58-5.99,5.99-6.63,7.51-10.58,16.24-11.9,26.17-.05.49-.09.99-.14,1.48-.72.97-.68,2.07-.55,3.19-.07.2-.07.41-.02.62-.37,6.29-.4,12.56,1.26,18.71.07.48.14.97.21,1.45-.21,1.1.31,2.02.74,2.97.05.26.09.52.14.79,2.13,9.53,6.3,18.14,11.79,26.15.64,1.45,1.47,2.77,2.63,3.86.32.95.8,1.78,1.69,2.31h-.01c.83,1.6,1.89,3.04,3.21,4.29,2.62,3.78,5.57,7.28,8.9,10.46.5.52.99,1.03,1.49,1.55,2.48,3.41,5.59,6.21,8.63,9.08.8,1.24,1.88,2.18,3.11,2.97,2.58,2.94,5.38,5.65,8.46,8.07.76,1.08,1.69,1.95,2.89,2.53.26.7.72,1.17,1.46,1.34,3.04,3.23,6.28,6.23,9.77,8.97,2.64,2.8,5.51,5.35,8.62,7.63,1.36,1.2,2.72,2.4,4.08,3.6,2.25,2.52,4.81,4.69,7.55,6.65,1.91,2.36,4.37,4.1,6.71,5.97l.05.05Z"/>
  <path class="cls-1" d="m180.23,102.66c2.26-.07,3.43.48,3.36,3.29-.23,8.97-.14,17.95-.03,26.92.03,2.04-.39,2.8-2.6,2.73-4.22-.14-8.45.05-12.68.1-5.23,0-10.46.01-15.69.02-.26,0-.51-.01-.77-.02-.55-.13-.75.1-.66.64,0,.76,0,1.51,0,2.27,0,3.74,0,7.47,0,11.21,0,3.75,0,7.49,0,11.24-.04,1.09-.24,2.2-.09,3.25.44,3.02-.39,4.68-3.8,4.01-.45-.09-.95.1-1.43.15-3.73-.35-7.47-.35-11.2,0-3.74,0-7.48,0-11.22,0q-5.06-.49-5.16-5.99c0-.48-.09-.96-.14-1.44,0-3.74,0-7.47,0-11.21,0-3.75,0-7.49,0-11.24.58-2.28-.06-3.45-2.64-3.05-1.07.17-2.17.11-3.25.16-3.74,0-7.48,0-11.23,0-4.98-.02-9.96-.03-14.93-.05-.19-2.75-.37-5.51-.56-8.26.36-3.74.37-7.49,0-11.23.45-3.76.44-7.52,0-11.29.13-3.25,2.77-1.64,4.29-2.22,3.74,0,7.48,0,11.21,0,3.98,0,7.97,0,11.95,0,.5,0,1,0,1.5,0,.5,0,.99,0,1.49,0,.5,0,1,0,1.5,0,.59.11.76-.18.67-.71,0-2.75,0-5.5,0-8.25,0-3.74,0-7.47,0-11.21,0-3.75-.02-7.49-.02-11.24.42-1.38,1.54-.93,2.47-.93,9.26-.05,18.53-.05,27.79-.18,2.05-.03,2.84.46,2.72,2.67-.17,3.21.03,6.45.07,9.67,0,3.75,0,7.49,0,11.24q-.47,9.19,8.55,9.09c.61,0,1.22-.09,1.83-.14,1.99,0,3.99,0,5.98,0,4.23,0,8.47,0,12.7,0Z"/>
</svg>