<?xml version="1.0" encoding="UTF-8"?>
<svg id="Layer_1" data-name="Layer 1" xmlns="http://www.w3.org/2000/svg" viewBox="0 0 573.63 573.62">
  <defs>
    <style>
      .cls-1 {
        fill: #7d70ba;
        stroke-width: 0px;
      }
    </style>
  </defs>
  <path class="cls-1" d="m228.5,1.74c2.95,2.1,5.59-.5,8.41-.58,9.2-.26,18.39-.73,27.58-1.11,3.76-.01,7.51-.03,11.27-.04,3.73,0,7.46,0,11.19,0,3.76,0,7.52,0,11.28,0,3.73.01,7.46.03,11.2.04,1.98.08,3.95.16,5.93.23,5.51.17,11.03.34,16.54.51,1.1.46,2.28.29,3.48.74,2.43.9,5.2,1.67,7.79.01,3.02.35,6.21-.46,9.03,1.45.48.33,1.68.51,2.24-.49,1.71,0,3.42,0,5.12.01.51,0,1.03-.02,1.54-.03,1.42.94,2.99.57,4.53.53,4.17,1.09,8.5.7,12.72,1.27,3.25.33,6.5.65,9.74.98,3.73.49,7.46.99,11.19,1.48.99.09,1.98.18,2.96.26.25.08.5.15.74.23,2.52.33,5.05.67,7.57,1,7.48,1.25,14.95,2.51,22.43,3.76.49.08.98.16,1.47.25.25.09.5.18.74.27,3.02.6,6.04,1.2,9.05,1.8,3.57,1.51,7.38,2.01,11.15,2.65,3.72.98,7.44,1.97,11.16,2.95,7.54,2.39,15.08,4.79,22.61,7.18,3.38,1.55,6.77,3.1,10.15,4.64.58.34,1.15.68,1.73,1.02,3.15,2.66,6.31,5.32,9.46,7.98,1.06,1.29,1.88,2.79,3.35,3.71,4.52,6.55,8.6,13.34,11.31,20.87.78,3.74,1.56,7.47,2.33,11.21.02,3.76.04,7.52.06,11.29,0,3.73,0,7.45,0,11.18,0,3.76,0,7.53,0,11.29,0,3.73,0,7.45,0,11.18,0,3.76,0,7.53,0,11.29-.92,3.79.42,5.29,4.4,4.87,2.91-.31,5.89-.03,8.84,0,1.51.11,3.03.22,4.54.34,3.47,1.27,6.93,2.54,10.4,3.82,1.13.75,2.26,1.5,3.39,2.25,2.54,2.55,5.08,5.1,7.61,7.65.79,1.16,1.59,2.32,2.38,3.49,1.88,4.08,3.54,8.23,4.04,12.75-.09.9-.4,1.83.43,2.57-.14,13.63-.28,27.26-.42,40.89-.09.74-.18,1.48-.27,2.21-.08.25-.16.5-.23.75l-2,6.42c-1.24,2.11-2.48,4.22-3.73,6.34-1.93,2.02-3.87,4.05-5.8,6.07-1.57,1.13-3.15,2.26-4.72,3.4-3.62,1.59-7.26,3.13-11.1,4.14-5.76.19-11.52.37-17.28.56-1.17,1.17-.47,2.56-.48,3.87,0,3.73,0,7.45,0,11.18,0,3.77,0,7.53,0,11.3,0,3.73,0,7.45,0,11.18,0,3.76,0,7.53,0,11.29,0,3.73,0,7.45,0,11.18,0,3.76,0,7.53,0,11.29,0,3.73,0,7.45,0,11.18,0,3.76,0,7.53,0,11.29,0,3.73,0,7.45,0,11.18,0,3.76,0,7.53,0,11.29,0,3.73,0,7.45,0,11.18,0,3.76,0,7.53,0,11.29,0,3.73,0,7.45,0,11.18,0,3.76,0,7.53,0,11.29,0,3.73,0,7.45,0,11.18,0,3.76,0,7.53,0,11.29,0,3.73,0,7.45,0,11.18,0,3.77,0,7.53,0,11.3,0,3.73,0,7.45,0,11.18,0,3.77,0,7.53,0,11.3-.1,4.23-.2,8.46-.31,12.69-1.01,2.88-2.03,5.77-3.04,8.65l-2.21,4.07c-2.25,2.37-4.49,4.75-6.74,7.12-1.21.91-2.41,1.81-3.62,2.72-2.01,1.03-4.02,2.05-6.03,3.08-1.6.7-.96,2.13-.98,3.26-.1,6.86-.12,13.72-.16,20.58-.23,1.68-.45,3.37-.68,5.05-2.08,8.54-6.12,16.03-12.03,22.53l-3.37,3.1c-6.35,5.33-13.71,8.55-21.74,10.36-3.74.12-7.47.76-11.23.33-3.82-.07-7.5-.94-11.13-2.03-.62-.15-1.25-.3-1.87-.45-2.88-1.49-5.76-2.98-8.64-4.47-2.75-2.24-5.51-4.48-8.26-6.72-1.22-1.42-2.44-2.83-3.66-4.25-1.41-2.35-2.83-4.7-4.24-7.05-1.78-3.57-2.91-7.38-4.11-11.16,0-.69.19-1.41-.41-1.97-.06-.37-.12-.73-.18-1.1-.09-2.73-.18-5.46-.27-8.2,0-3.73,0-7.46,0-11.19-.64-1.48,2.19-4.68-2.14-4.32-3.73,0-7.45,0-11.18,0-3.76,0-7.53,0-11.29,0-3.73,0-7.45,0-11.18,0-3.76,0-7.53,0-11.29,0-3.73,0-7.45,0-11.18,0h-11.29c-3.73,0-7.45,0-11.18,0-3.76,0-7.53,0-11.29,0-3.73,0-7.45,0-11.18,0-3.76,0-7.53,0-11.29,0-3.72,0-7.45,0-11.17,0-3.77,0-7.53,0-11.3,0-3.73,0-7.45,0-11.18,0-3.76,0-7.53,0-11.29,0-3.73,0-7.45,0-11.18,0-3.76,0-7.53,0-11.29,0-3.73,0-7.45,0-11.18,0-3.76,0-7.53,0-11.29,0-3.73,0-7.45,0-11.18,0-3.76,0-7.53,0-11.29,0-3.73,0-7.45,0-11.18,0-3.76,0-7.53,0-11.29,0-2.45-.65-2.54.77-2.54,2.64-.03,8.05.44,16.13-1.04,24.11-1.1,3.38-2.2,6.76-3.29,10.13-4.03,7.67-9.58,14-16.69,18.95-2.16,1.16-4.31,2.32-6.47,3.48-1.27.52-2.53,1.04-3.8,1.56-3.7.68-7.3,1.94-11.11,2.04-4.25.49-8.45-.03-12.66-.59-7.42-1.62-14.01-5.05-20.17-9.38-1.53-1.49-3.05-2.98-4.58-4.47-2.23-3.02-4.46-6.05-6.69-9.07l-1.4-2.51c-1.09-3.38-2.18-6.77-3.26-10.15-.85-3.69-.66-7.45-.83-11.19,0-3.76,0-7.53,0-11.29.75-4.2-.1-7.46-4.91-8.43-.59-.12-1.13-.46-1.69-.71-.96-.7-1.92-1.39-2.88-2.09-2.48-2.51-4.97-5.02-7.45-7.54-.34-1.48-1.13-2.7-2.23-3.71-1.32-3.74-3-7.37-3.55-11.35-.15-3.7-.3-7.41-.44-11.11,0-3.73,0-7.46,0-11.19,0-3.76,0-7.52,0-11.28,0-3.73,0-7.46,0-11.19,0-3.76,0-7.52,0-11.28,0-3.73,0-7.46,0-11.19,0-3.76,0-7.52,0-11.28,0-3.73,0-7.46,0-11.19,0-3.76,0-7.52,0-11.28,0-3.73,0-7.46,0-11.19,0-3.76,0-7.52,0-11.28,0-3.73,0-7.46,0-11.19,0-3.76,0-7.52,0-11.28,0-3.73,0-7.46,0-11.19,0-3.76,0-7.52,0-11.28,0-3.73,0-7.46,0-11.2,0-3.76,0-7.52,0-11.28,0-3.73,0-7.46,0-11.19,0-3.76,0-7.52,0-11.28,0-3.73,0-7.46,0-11.19v-11.28c.63-3.08-.26-4.44-3.75-4.09-3.4.34-6.87.03-10.31,0-.98-.55-2.03-.31-3.06-.27-3.83-1.04-7.58-2.3-11.19-3.94-1.26-1.3-2.74-2.27-4.41-2.94-1.93-2.06-3.86-4.11-5.79-6.17-1.12-1.68-2.23-3.37-3.35-5.05-1.63-3.61-2.75-7.39-3.71-11.22L0,200.13c0-3.73,0-7.46,0-11.19,0-3.76,0-7.52,0-11.28.09-3.75.18-7.5.27-11.25,1.12-3.27,2.25-6.53,3.37-9.8,1.06-1.74,2.13-3.49,3.19-5.23,2.05-2.08,4.1-4.16,6.15-6.25,2-1.38,3.99-2.75,5.99-4.13,3.21-1.04,6.43-2.08,9.64-3.12,5.04-.12,10.08-.23,15.12-.38.76-.02,1.84.37,1.96-1,0-1.26,0-2.53,0-3.79,0-3.73,0-7.46,0-11.19,0-3.76,0-7.52,0-11.28,0-3.73,0-7.46,0-11.19,0-3.76,0-7.52,0-11.28.09-4.26.19-8.53.28-12.79.8-3.17,1.6-6.35,2.4-9.52,2.64-8.39,7.28-15.67,12.57-22.59.69-.26,1.14-.76,1.4-1.44,3.55-3.51,7.36-6.71,11.42-9.61l11-4.85c1.33-.26,2.68-.47,3.76-1.4,1.2-.35,2.53-.38,3.45-1.4.36-.05.72-.11,1.08-.16.39-.2.78-.4,1.16-.6.61-.06,1.22-.13,1.82-.19,1.99-.7,3.98-1.39,5.96-2.09.51-.05,1.02-.1,1.53-.15.82-.12,1.66-.2,2-1.15.68.77,1.19.19,1.72-.21,3.79-.9,7.58-1.79,11.37-2.69,2.97-.72,5.94-1.45,8.91-2.17.25-.08.5-.15.75-.23.49-.09.97-.17,1.46-.26,3.73-.75,7.46-1.49,11.2-2.24,3.28-.59,6.56-1.18,9.85-1.78.47-.12.94-.24,1.4-.37,2.59.16,5.05-.66,7.55-1.1.25-.08.51-.16.76-.23.98-.1,1.96-.19,2.95-.29,3.73-.51,7.46-1.02,11.19-1.52,2.27-.32,4.55-.64,6.82-.95.51-.08,1.01-.16,1.52-.24.98-.09,1.96-.18,2.94-.28,3.73-.5,7.55-.32,11.21-1.38.73.04,1.46.08,2.19.12.32.75.92.65,1.54.51,1.28.15,2.65.5,3.2-1.24l.32.1.32-.1c.96,0,1.92-.01,2.87-.02.96,1.25,2.66.93,3.35.47,2.85-1.89,5.75-1,8.67-.7,1.22.14,2.55.52,2.98-1.24.78.26,1.55.41,2.28-.14l3.69.11Zm-47.16,89.67c1.52,0,3.03.02,4.55.02,3.73,0,7.47,0,11.2,0h11.27c3.73,0,7.47,0,11.2,0,3.76,0,7.51,0,11.27,0h11.2c3.76,0,7.51,0,11.27,0,3.73,0,7.47,0,11.2,0,3.76,0,7.51,0,11.27,0,3.73,0,7.47,0,11.2,0h11.27c3.73,0,7.47,0,11.2,0,3.76,0,7.51,0,11.27,0h11.2c3.76,0,7.51,0,11.27,0,3.73,0,7.47,0,11.2,0,3.76,0,7.51,0,11.27,0,3.73,0,7.47,0,11.2,0,3.76,0,7.51,0,11.27,0,4,.56,7.48-.38,10.14-3.6.74-.94,1.9-1.61,1.9-3.01,1.13-1.62.96-3.49.96-5.31.01-6.83.01-13.66,0-20.48,0-8.54-4.22-12.75-13-13.01-3.77,0-7.53,0-11.3,0-3.73,0-7.45,0-11.18,0-3.76,0-7.53,0-11.29,0-3.73,0-7.45,0-11.18,0-3.76,0-7.53,0-11.29,0-3.73,0-7.45,0-11.18,0-3.76,0-7.53,0-11.29,0h-11.18c-3.76,0-7.53,0-11.29,0-3.73,0-7.45,0-11.18,0-3.76,0-7.53,0-11.29,0-3.73,0-7.45,0-11.18,0-3.76,0-7.53,0-11.29,0-3.73,0-7.45,0-11.18,0-3.76,0-7.53,0-11.29,0h-11.18c-3.76,0-7.53,0-11.29,0-3.72,0-7.45,0-11.17,0-4.55-.15-8.63.78-11.3,4.93-1.2,1-1.7,2.38-2.05,3.83-.02,3.51-.05,7.02-.07,10.53-.03,5.21-.14,10.42-.06,15.63.05,3.06,1.09,5.78,3.68,7.69.96,1.47,2.4,2.05,4.08,2.17.39.2.77.4,1.16.6Zm299.6,243.59c1.49-3.69.46-7.51.57-11.27,0-3.73,0-7.45,0-11.18,0-3.76,0-7.53,0-11.29,0-3.73,0-7.46,0-11.18,0-3.77,0-7.53,0-11.3,0-3.73,0-7.45,0-11.18,0-3.77,0-7.53,0-11.3,0-3.73,0-7.45,0-11.18,0-3.76,0-7.53,0-11.29,0-3.73,0-7.45,0-11.18,0-3.76,0-7.53,0-11.29,0-3.73,0-7.45,0-11.18,0-3.76,0-7.53,0-11.29,0-3.73,0-7.45,0-11.18,0-3.76,0-7.53,0-11.29,0-3.73,0-7.45,0-11.18,1.65-13.66-5.9-18.59-14.8-17.16-3.73,0-7.47,0-11.2,0h-11.27c-3.73,0-7.47,0-11.2,0-3.76,0-7.51,0-11.27,0-3.73,0-7.47,0-11.2,0-3.76,0-7.51,0-11.27,0-3.73,0-7.47,0-11.2,0-3.76,0-7.51,0-11.27,0-3.73,0-7.47,0-11.2,0-3.76,0-7.51,0-11.27,0-3.73,0-7.47,0-11.2,0-3.76,0-7.51,0-11.27,0-3.73,0-7.47,0-11.2,0-3.76,0-7.51,0-11.27,0-3.73,0-7.47,0-11.2,0-3.76,0-7.51,0-11.27,0-3.73,0-7.47,0-11.2,0-3.76,0-7.51,0-11.27,0-3.73,0-7.47,0-11.2,0-3.76,0-7.51,0-11.27,0-3.73,0-7.47,0-11.2,0-3.76,0-7.51,0-11.27,0-3.73,0-7.47,0-11.2,0-3.76,0-7.51,0-11.27,0-3.73,0-7.47,0-11.2,0-3.76,0-7.51,0-11.27,0-3.73,0-7.47,0-11.2,0-3.76,0-7.51,0-11.27,0-3.73,0-7.47,0-11.2,0-3.76,0-7.51,0-11.27,0-3.73,0-7.47,0-11.2,0-3.76,0-7.51,0-11.27,0-.87-.03-1.73-.09-2.6-.09-7.89-.02-12.42,4-12.6,11.81-.2,9.3.04,18.62.09,27.92,0,.46,0,.92,0,1.39-.05,7.22-.15,14.44-.14,21.65.02,22.29.09,44.57.14,66.86,0,.46,0,.92,0,1.39-.05,12.43-.21,24.86-.12,37.29.06,9.56-.53,19.14.38,28.69.04,1.82,1.03,3.19,2.12,4.52,3.17,4.59,7.86,4.75,12.73,4.36,3.76,0,7.52,0,11.28,0,3.73,0,7.46,0,11.19,0,3.76,0,7.52,0,11.28,0,3.73,0,7.46,0,11.19,0,3.76,0,7.52,0,11.28,0,3.73,0,7.46,0,11.19,0,3.76,0,7.52,0,11.28,0,3.73,0,7.46,0,11.19,0,3.76,0,7.52,0,11.28,0,3.73,0,7.46,0,11.19,0,3.76,0,7.52,0,11.28,0,3.73,0,7.46,0,11.19,0,3.76,0,7.52,0,11.28,0,3.73,0,7.46,0,11.19,0,3.76,0,7.52,0,11.28,0,3.73,0,7.46,0,11.19,0,3.76,0,7.52,0,11.28,0,3.73,0,7.46,0,11.19,0,3.76,0,7.52,0,11.28,0,3.73,0,7.46,0,11.19,0,3.76,0,7.52,0,11.28,0,3.73,0,7.46,0,11.19,0,3.76,0,7.52,0,11.28,0,3.73,0,7.46,0,11.19,0,3.76,0,7.52,0,11.28,0,3.73,0,7.46,0,11.19,0,3.76,0,7.52,0,11.28,0,3.73,0,7.46,0,11.19,0,3.76,0,7.52,0,11.28,0,3.73,0,7.46,0,11.19,0,3.76,0,7.52,0,11.28,0,3.73,0,7.46,0,11.19,0,4.18.38,8.23.32,11.31-3.19,1.52-1.61,2.99-3.24,2.93-5.67Zm-36.75,73.8c-3.03.78-5.67,2.3-8.14,4.17-1.25.7-2.32,1.58-3.06,2.83-2.87,2.17-4.54,5.19-5.93,8.4-1.71,2.98-2.32,6.23-2.42,9.61-.36,5.17.21,10.16,2.99,14.69.79,2.57,2.52,4.52,4.25,6.48,1.66,1.76,3.23,3.64,5.61,4.49,1.86,1.95,4.32,2.74,6.8,3.48,4,.42,7.71,4.29,12.03,1.03,9.97-1.04,17.16-6.08,21.68-15,.9-.49.62-1.55,1.09-2.26,1.82-3.31,2.38-6.9,2.47-10.61.3-16.11-13.77-29.57-29.87-28.58-2.56.05-5.1.2-7.49,1.27Zm-314.45.29c-3.61-1.62-7.37-2.06-11.27-1.41-6.99-.57-12.31,3.34-17.15,7.32-6.44,5.29-9.37,12.65-9.21,21.1-.47,15.38,13.26,27.36,24.64,27.87.52,1.52,1.8,1.46,3.03,1.38,3.49-.24,6.68-1.64,9.99-2.61,2.86-.72,5.36-2.1,7.52-4.1,1.67-.51,2.49-2.02,3.66-3.11,2.39-2.03,3.91-4.65,5.2-7.45,1.82-3.78,3.14-7.68,2.86-11.97.24-4.27-.75-8.25-2.75-12-.8-2.63-2.36-4.8-4.17-6.81-1.48-1.65-2.86-3.42-4.98-4.34-2.14-1.89-4.54-3.29-7.37-3.87Z"/>
</svg>