<?xml version="1.0" encoding="UTF-8"?>
<svg id="Layer_1" data-name="Layer 1" xmlns="http://www.w3.org/2000/svg" viewBox="0 0 503.06 503.09">
  <defs>
    <style>
      .cls-1 {
        fill: #fefefe;
      }

      .cls-1, .cls-2, .cls-3 {
        stroke-width: 0px;
      }

      .cls-2 {
        fill: #cdd1de;
      }

      .cls-3 {
        fill: #7d70b2;
      }
    </style>
  </defs>
  <path class="cls-3" d="m0,251.2c0-66.72,0-133.44,0-200.15C0,22.15,22.19.05,51.12.06c66.35.02,132.7,0,199.06,0,11.34,0,18.16,6.86,18.16,18.31,0,70.75.03,141.5-.07,212.25,0,3.23.67,4.21,4.1,4.2,70.75-.11,141.5-.09,212.25-.09,11.64,0,18.41,6.77,18.41,18.43,0,66.47,0,132.95,0,199.42,0,28.19-22.31,50.48-50.52,50.48-134.05,0-268.1,0-402.15,0-27.95,0-50.34-22.34-50.35-50.26-.02-67.21,0-134.42,0-201.62Zm268.33,117.41c0,32.5.04,65-.07,97.49,0,2.76.73,3.43,3.42,3.43,59.99-.09,119.97-.07,179.96-.1,10.94,0,17.7-6.88,17.71-17.93.02-59.74-.01-119.48.12-179.23,0-3.33-.94-3.94-4.03-3.94-64.38.08-128.77.09-193.15-.03-3.55,0-4.03,1.19-4.02,4.28.1,32.01.06,64.02.07,96.03Zm-133.93-100.21c-32.37,0-64.75.03-97.12-.05-2.69,0-3.71.47-3.7,3.49.1,59.99.07,119.97.08,179.96,0,10.68,6.98,17.64,17.65,17.64,59.86,0,119.73-.02,179.59.07,2.91,0,3.88-.5,3.88-3.69-.11-64.63-.1-129.26-.01-193.88,0-2.91-.77-3.6-3.6-3.59-32.25.1-64.51.06-96.76.06Zm-.18-33.64c32.25,0,64.5-.04,96.76.07,3.03.01,3.8-.73,3.79-3.79-.1-64.5-.11-129.01.02-193.51,0-3.43-1.08-3.88-4.09-3.87-59.62.08-119.24.06-178.85.06-11.41,0-18.2,6.78-18.2,18.21,0,59.62.02,119.24-.07,178.85,0,3.02.46,4.09,3.88,4.07,32.25-.16,64.5-.1,96.76-.09Z"/>
  <path class="cls-3" d="m402.27,201.25c-22,0-43.99,0-65.99,0-20.21-.01-34.45-14.47-34.43-34.74.04-44.11.23-88.23-.09-132.34C301.62,15.55,317.11-.07,335.72,0c44.6.16,89.2-.06,133.8.11,14.46.05,24.76,7.28,30.83,20.28,1.78,3.8,2.68,8.01,2.68,12.32,0,45.33.08,90.67-.03,136-.04,18.11-15.09,32.5-33.65,32.53-22.36.04-44.72,0-67.09,0Zm-58.44-58.25c.31,6.65,3.58,11.86,9.86,14.76,6.03,2.78,12.07,2.07,17.17-2.27,5.09-4.33,10.11-8.83,14.59-13.77,4.67-5.15,9.73-9.9,14.39-15.04,1.94-2.14,3.11-2.09,5.13-.02,8.76,9,17.72,17.81,26.57,26.73,3.3,3.33,7.1,5.57,11.86,5.83,6.81.38,13.1-3.39,16.01-9.52,2.93-6.17,1.98-13.35-2.89-18.34-9.21-9.44-18.53-18.78-27.96-27.99-2.14-2.09-2.29-3.21-.07-5.37,9.36-9.12,18.59-18.37,27.72-27.72,5.81-5.95,6.37-14.54,1.72-21.09-5.94-8.37-17.41-9.63-24.95-2.4-9.3,8.93-18.41,18.07-27.4,27.31-2.38,2.44-3.67,2.76-6.21.11-8.71-9.07-17.72-17.86-26.6-26.76-3.94-3.94-8.64-6.02-14.22-5.23-6.72.95-11.49,4.69-13.72,11.15-2.24,6.48-.73,12.36,4.03,17.2,9.07,9.23,18.19,18.42,27.5,27.41,2.29,2.22,2.16,3.4-.08,5.37-9.65,8.47-17.93,18.33-27.21,27.19-3.43,3.28-5.14,7.34-5.2,12.44Z"/>
  <path class="cls-1" d="m343.82,143c.06-5.1,1.76-9.17,5.2-12.44,9.28-8.86,17.56-18.72,27.21-27.19,2.24-1.97,2.38-3.15.08-5.37-9.3-9-18.42-18.18-27.5-27.41-4.76-4.85-6.27-10.72-4.03-17.2,2.23-6.46,7.01-10.21,13.72-11.15,5.57-.79,10.28,1.29,14.22,5.23,8.89,8.9,17.9,17.68,26.6,26.76,2.54,2.65,3.83,2.34,6.21-.11,8.99-9.24,18.1-18.38,27.4-27.31,7.54-7.23,19.01-5.97,24.95,2.4,4.65,6.55,4.09,15.13-1.72,21.09-9.13,9.35-18.36,18.6-27.72,27.72-2.22,2.16-2.07,3.28.07,5.37,9.44,9.21,18.76,18.55,27.96,27.99,4.87,4.99,5.82,12.18,2.89,18.34-2.92,6.14-9.2,9.9-16.01,9.52-4.77-.26-8.56-2.51-11.86-5.83-8.85-8.92-17.8-17.73-26.57-26.73-2.02-2.07-3.18-2.12-5.13.02-4.66,5.14-9.72,9.89-14.39,15.04-4.48,4.94-9.5,9.43-14.59,13.77-5.1,4.34-11.13,5.05-17.17,2.27-6.28-2.9-9.55-8.11-9.86-14.76Z"/>
  <path class="cls-2" d="m369.2,352.13c13.44,0,26.88-.01,40.33,0,10.64,0,18.1,7.03,18.04,16.94-.06,9.74-7.47,16.69-17.93,16.7-27.5.03-54.99.06-82.49-.02-9.19-.03-16.31-6.7-16.95-15.48-.63-8.77,5.18-16.34,13.93-17.87,2.26-.4,4.62-.25,6.94-.25,12.71-.02,25.42,0,38.13-.01Z"/>
  <path class="cls-2" d="m134.11,352.13c13.57,0,27.13-.01,40.7,0,10.49.01,18,6.91,18.09,16.57.08,9.88-7.4,17.05-18,17.07-27.25.04-54.5.03-81.76,0-10.36-.01-17.71-7.13-17.67-16.96.04-9.71,7.53-16.68,17.95-16.68,13.57,0,27.13,0,40.7,0Z"/>
  <path class="cls-2" d="m134.81,301.91c2.18.07,5.13-.3,8,.47,7.63,2.06,12.92,9.55,12.31,17.36-.65,8.28-6.73,14.79-14.87,15.5-3.99.34-8.06.36-12.05.03-8.73-.7-15.43-8.5-15.1-17.21.34-8.85,7.36-15.85,16.22-16.15,1.58-.05,3.17,0,5.5,0Z"/>
  <path class="cls-2" d="m135.37,402.51c5.38-.6,11.12.54,15.45,5.48,4.28,4.87,5.5,10.52,3.37,16.7-2.13,6.17-6.51,9.93-12.93,11.05-4.47.78-9.02.66-13.5.12-8.69-1.04-15.14-8.75-14.66-17.23.52-9.2,7.51-15.98,16.63-16.11,1.59-.02,3.17,0,5.63,0Z"/>
  <path class="cls-2" d="m169.75,151.02c-5.01,0-10.03.17-15.02-.07-2.91-.14-3.94.49-3.86,3.69.25,9.65.1,19.3.09,28.95-.02,10.36-7.01,17.64-16.93,17.66-9.55.02-16.66-7.4-16.71-17.54-.05-9.9-.1-19.79.04-29.69.03-2.39-.61-3.09-3.03-3.06-9.89.13-19.79.07-29.69.05-10.16-.02-17.76-7.38-17.68-17.06.07-9.26,7.62-16.5,17.42-16.57,9.77-.07,19.55-.12,29.32.05,2.79.05,3.74-.55,3.68-3.55-.21-9.65-.11-19.3-.06-28.95.05-10.19,7.06-17.77,16.47-17.89,9.84-.13,17.14,7.48,17.17,17.94.02,9.65.14,19.31-.07,28.95-.06,3,.91,3.56,3.67,3.51,9.65-.17,19.3-.1,28.96-.05,10.38.05,17.77,7.16,17.68,16.93-.09,9.79-7.48,16.7-17.88,16.71-4.52,0-9.04,0-13.56,0Z"/>
</svg>